<svg width="249" height="115" viewBox="0 0 249 115" fill="none" xmlns="http://www.w3.org/2000/svg">
<path d="M248.976 65.1383C248.853 65.802 248.754 66.4902 248.582 67.1293C247.304 72.0454 243.937 74.7738 239.217 75.9783C236.464 76.6911 233.638 76.6419 230.885 75.9291C226.116 74.7001 222.896 71.6767 221.544 66.9572C219.897 61.2054 220.045 55.4291 222.306 49.8739C224.74 43.9254 229.336 40.9266 235.702 40.6562C239.906 40.4596 243.789 41.4428 247.255 43.9254C247.427 44.0483 247.6 44.1712 247.772 44.2941C247.821 44.3187 247.82 44.3679 247.919 44.4908C246.468 46.6784 245.018 48.866 243.519 51.1274C243.002 50.7833 242.536 50.4638 242.069 50.1688C240.053 48.9152 237.89 48.2761 235.481 48.6694C233.687 48.9644 232.359 49.9476 231.45 51.5207C230.737 52.7989 230.344 54.1754 230.221 55.8223C230.614 55.5765 230.885 55.4045 231.155 55.2324C235.555 52.1353 241.946 52.971 245.387 55.9207C247.353 57.5921 248.46 59.7306 248.828 62.287C248.853 62.5082 248.927 62.754 249.001 62.9752V65.1874L248.976 65.1383ZM234.768 69.022C237.03 69.0711 238.799 67.965 239.414 66.0969C240.397 63.0981 238.48 60.296 235.285 60.0747C232.851 59.9027 230.934 61.0088 230.27 62.9015C229.189 66.0478 231.303 68.9237 234.793 68.9975L234.768 69.022Z" fill="#0038FF"/>
<path d="M66.6621 114.594L112.013 57.3953L81.558 49.7016L172.456 0C172.456 0 172.506 0.0737112 172.555 0.122872C157.487 15.3382 127.229 45.8671 127.229 45.8671L158.716 56.0925L66.7851 114.717L66.6621 114.594Z" fill="#0038FF"/>
<path d="M32.8141 72.3406C34.2889 70.1529 35.7639 68.0145 37.2387 65.8268C38.0744 66.343 38.8364 66.8592 39.6721 67.3016C41.5648 68.334 43.6295 68.6781 45.768 68.4323C47.3903 68.2357 48.6932 67.4491 49.6027 66.0972C50.5368 64.7452 50.9549 63.1967 51.127 61.4024C50.832 61.6236 50.6353 61.771 50.4633 61.9185C45.4488 66.0972 34.5843 64.5241 32.6424 56.1667C30.971 49.0384 35.2479 42.4016 42.4254 41.0006C45.203 40.4598 48.0295 40.4107 50.7579 41.1973C55.1086 42.4263 58.206 45.2284 59.5825 49.5546C61.4506 55.4785 61.3031 61.476 58.968 67.2524C56.7066 72.8076 52.454 75.8556 46.4809 76.3718C41.7369 76.7897 37.3861 75.6835 33.5024 72.8568C33.3058 72.7093 33.1091 72.5373 32.8633 72.3652L32.8141 72.3406ZM46.4071 57.2728C48.816 57.2728 50.6354 56.0684 51.1516 54.0528C51.9136 51.1031 50.1188 48.4484 47.0954 48.0797C44.4653 47.7602 42.2532 49.1122 41.7125 51.4227C40.9505 54.6919 42.9904 57.2482 46.4071 57.2728Z" fill="#0038FF"/>
<path d="M178.749 72.3162C180.224 70.1531 181.675 68.0146 183.149 65.8516C183.985 66.3677 184.747 66.8839 185.583 67.3263C187.475 68.3587 189.54 68.7274 191.679 68.4325C194.063 68.1129 195.587 66.6381 196.373 64.4258C196.693 63.5164 196.89 62.5577 197.111 61.6483C197.062 61.6237 196.988 61.5991 196.939 61.55C196.816 61.6237 196.693 61.6729 196.595 61.7712C192.072 65.3845 184.82 64.8684 180.912 60.6405C178.552 58.0842 177.963 54.9624 178.332 51.6195C179.045 45.2286 183.911 41.6152 189.368 40.8532C192.048 40.4845 194.727 40.5091 197.283 41.394C201.757 42.9426 204.657 46.0643 205.812 50.6363C207.14 55.8473 207.017 61.083 205.272 66.1711C202.74 73.5207 196.84 76.7898 189.589 76.4211C185.804 76.2245 182.363 75.0692 179.29 72.7832C179.167 72.6849 179.045 72.5865 178.922 72.4882C178.872 72.4636 178.848 72.4145 178.774 72.2916L178.749 72.3162ZM192.465 57.2975C193.621 57.3221 194.825 57.0271 195.783 56.1177C197.258 54.7166 197.504 52.9959 196.914 51.1278C196.373 49.358 194.727 48.2028 192.735 48.0799C190.155 47.9078 188.213 49.1368 187.623 51.2999C186.713 54.5937 188.828 57.273 192.465 57.2975Z" fill="#0038FF"/>
<path d="M7.61957 75.6835V49.9969C5.65314 50.4394 3.78536 50.8572 1.81893 51.2997C1.20442 48.8416 0.61451 46.4328 0 43.9502C1.40108 43.5323 2.75281 43.1636 4.10474 42.7703C5.80079 42.2787 7.4724 41.7871 9.16845 41.3446C9.75838 41.1972 10.3975 41.0988 11.012 41.0988C12.9784 41.0742 14.9447 41.0988 16.9602 41.0988V75.708H7.61957V75.6835Z" fill="#0038FF"/>
</svg>
