<svg width="12" height="21" viewBox="0 0 12 21" fill="none" xmlns="http://www.w3.org/2000/svg">
<path d="M1.06428 2.12855C1.65206 2.12855 2.12855 1.65206 2.12855 1.06428C2.12855 0.476493 1.65206 0 1.06428 0C0.476493 0 0 0.476493 0 1.06428C0 1.65206 0.476493 2.12855 1.06428 2.12855Z" fill="#FEED00"/>
<path d="M1.06428 5.25746C1.65206 5.25746 2.12855 4.78097 2.12855 4.19318C2.12855 3.6054 1.65206 3.12891 1.06428 3.12891C0.476493 3.12891 0 3.6054 0 4.19318C0 4.78097 0.476493 5.25746 1.06428 5.25746Z" fill="#FEED00"/>
<path d="M1.06428 8.38637C1.65206 8.38637 2.12855 7.90987 2.12855 7.32209C2.12855 6.73431 1.65206 6.25781 1.06428 6.25781C0.476493 6.25781 0 6.73431 0 7.32209C0 7.90987 0.476493 8.38637 1.06428 8.38637Z" fill="#FEED00"/>
<path d="M1.06428 11.5133C1.65206 11.5133 2.12855 11.0368 2.12855 10.449C2.12855 9.86126 1.65206 9.38477 1.06428 9.38477C0.476493 9.38477 0 9.86126 0 10.449C0 11.0368 0.476493 11.5133 1.06428 11.5133Z" fill="#FEED00"/>
<path d="M1.06428 14.6422C1.65206 14.6422 2.12855 14.1657 2.12855 13.5779C2.12855 12.9902 1.65206 12.5137 1.06428 12.5137C0.476493 12.5137 0 12.9902 0 13.5779C0 14.1657 0.476493 14.6422 1.06428 14.6422Z" fill="#FEED00"/>
<path d="M1.06428 17.7711C1.65206 17.7711 2.12855 17.2946 2.12855 16.7069C2.12855 16.1191 1.65206 15.6426 1.06428 15.6426C0.476493 15.6426 0 16.1191 0 16.7069C0 17.2946 0.476493 17.7711 1.06428 17.7711Z" fill="#FEED00"/>
<path d="M1.06428 20.9C1.65206 20.9 2.12855 20.4235 2.12855 19.8358C2.12855 19.248 1.65206 18.7715 1.06428 18.7715C0.476493 18.7715 0 19.248 0 19.8358C0 20.4235 0.476493 20.9 1.06428 20.9Z" fill="#FEED00"/>
<path d="M4.19318 5.25746C4.78097 5.25746 5.25746 4.78097 5.25746 4.19318C5.25746 3.6054 4.78097 3.12891 4.19318 3.12891C3.6054 3.12891 3.12891 3.6054 3.12891 4.19318C3.12891 4.78097 3.6054 5.25746 4.19318 5.25746Z" fill="#FEED00"/>
<path d="M4.19318 8.38637C4.78097 8.38637 5.25746 7.90987 5.25746 7.32209C5.25746 6.73431 4.78097 6.25781 4.19318 6.25781C3.6054 6.25781 3.12891 6.73431 3.12891 7.32209C3.12891 7.90987 3.6054 8.38637 4.19318 8.38637Z" fill="#FEED00"/>
<path d="M4.19318 11.5153C4.78097 11.5153 5.25746 11.0388 5.25746 10.451C5.25746 9.86321 4.78097 9.38672 4.19318 9.38672C3.6054 9.38672 3.12891 9.86321 3.12891 10.451C3.12891 11.0388 3.6054 11.5153 4.19318 11.5153Z" fill="#FEED00"/>
<path d="M4.19318 14.6422C4.78097 14.6422 5.25746 14.1657 5.25746 13.5779C5.25746 12.9902 4.78097 12.5137 4.19318 12.5137C3.6054 12.5137 3.12891 12.9902 3.12891 13.5779C3.12891 14.1657 3.6054 14.6422 4.19318 14.6422Z" fill="#FEED00"/>
<path d="M4.19318 17.7711C4.78097 17.7711 5.25746 17.2946 5.25746 16.7069C5.25746 16.1191 4.78097 15.6426 4.19318 15.6426C3.6054 15.6426 3.12891 16.1191 3.12891 16.7069C3.12891 17.2946 3.6054 17.7711 4.19318 17.7711Z" fill="#FEED00"/>
<path d="M7.32209 8.38637C7.90987 8.38637 8.38637 7.90987 8.38637 7.32209C8.38637 6.73431 7.90987 6.25781 7.32209 6.25781C6.73431 6.25781 6.25781 6.73431 6.25781 7.32209C6.25781 7.90987 6.73431 8.38637 7.32209 8.38637Z" fill="#FEED00"/>
<path d="M7.32209 11.5153C7.90987 11.5153 8.38637 11.0388 8.38637 10.451C8.38637 9.86321 7.90987 9.38672 7.32209 9.38672C6.73431 9.38672 6.25781 9.86321 6.25781 10.451C6.25781 11.0388 6.73431 11.5153 7.32209 11.5153Z" fill="#FEED00"/>
<path d="M7.32209 14.6442C7.90987 14.6442 8.38637 14.1677 8.38637 13.5799C8.38637 12.9921 7.90987 12.5156 7.32209 12.5156C6.73431 12.5156 6.25781 12.9921 6.25781 13.5799C6.25781 14.1677 6.73431 14.6442 7.32209 14.6442Z" fill="#FEED00"/>
<path d="M10.449 11.5133C11.0368 11.5133 11.5133 11.0368 11.5133 10.449C11.5133 9.86126 11.0368 9.38477 10.449 9.38477C9.86126 9.38477 9.38477 9.86126 9.38477 10.449C9.38477 11.0368 9.86126 11.5133 10.449 11.5133Z" fill="#FEED00"/>
</svg>
