<svg width="21" height="50" viewBox="0 0 21 50" fill="none" xmlns="http://www.w3.org/2000/svg">
<path d="M11.5133 48.2502C11.5133 47.6624 11.0368 47.1859 10.449 47.1859C9.86126 47.1859 9.38477 47.6624 9.38477 48.2502C9.38477 48.838 9.86126 49.3145 10.449 49.3145C11.0368 49.3145 11.5133 48.838 11.5133 48.2502Z" fill="white"/>
<path d="M11.5133 45.1213C11.5133 44.5335 11.0368 44.057 10.449 44.057C9.86126 44.057 9.38477 44.5335 9.38477 45.1213C9.38477 45.7091 9.86126 46.1855 10.449 46.1855C11.0368 46.1855 11.5133 45.7091 11.5133 45.1213Z" fill="white"/>
<path d="M11.5133 41.9924C11.5133 41.4046 11.0368 40.9281 10.449 40.9281C9.86126 40.9281 9.38477 41.4046 9.38477 41.9924C9.38477 42.5801 9.86126 43.0566 10.449 43.0566C11.0368 43.0566 11.5133 42.5801 11.5133 41.9924Z" fill="white"/>
<path d="M11.5133 38.8654C11.5133 38.2776 11.0368 37.8011 10.449 37.8011C9.86126 37.8011 9.38477 38.2776 9.38477 38.8654C9.38477 39.4532 9.86126 39.9297 10.449 39.9297C11.0368 39.9297 11.5133 39.4532 11.5133 38.8654Z" fill="white"/>
<path d="M11.5133 35.7365C11.5133 35.1487 11.0368 34.6722 10.449 34.6722C9.86126 34.6722 9.38477 35.1487 9.38477 35.7365C9.38477 36.3243 9.86126 36.8008 10.449 36.8008C11.0368 36.8008 11.5133 36.3243 11.5133 35.7365Z" fill="white"/>
<path d="M11.5133 32.6076C11.5133 32.0198 11.0368 31.5433 10.449 31.5433C9.86126 31.5433 9.38477 32.0198 9.38477 32.6076C9.38477 33.1954 9.86126 33.6719 10.449 33.6719C11.0368 33.6719 11.5133 33.1954 11.5133 32.6076Z" fill="white"/>
<path d="M11.5133 29.4787C11.5133 28.8909 11.0368 28.4144 10.449 28.4144C9.86126 28.4144 9.38477 28.8909 9.38477 29.4787C9.38477 30.0665 9.86126 30.543 10.449 30.543C11.0368 30.543 11.5133 30.0665 11.5133 29.4787Z" fill="white"/>
<path d="M11.5133 26.3498C11.5133 25.762 11.0368 25.2855 10.449 25.2855C9.86126 25.2855 9.38477 25.762 9.38477 26.3498C9.38477 26.9376 9.86126 27.4141 10.449 27.4141C11.0368 27.4141 11.5133 26.9376 11.5133 26.3498Z" fill="white"/>
<path d="M11.5133 23.2209C11.5133 22.6331 11.0368 22.1566 10.449 22.1566C9.86126 22.1566 9.38477 22.6331 9.38477 23.2209C9.38477 23.8087 9.86126 24.2852 10.449 24.2852C11.0368 24.2852 11.5133 23.8087 11.5133 23.2209Z" fill="white"/>
<path d="M11.5133 20.0939C11.5133 19.5061 11.0368 19.0296 10.449 19.0296C9.86126 19.0296 9.38477 19.5061 9.38477 20.0939C9.38477 20.6817 9.86126 21.1582 10.449 21.1582C11.0368 21.1582 11.5133 20.6817 11.5133 20.0939Z" fill="white"/>
<path d="M11.5133 16.965C11.5133 16.3772 11.0368 15.9007 10.449 15.9007C9.86126 15.9007 9.38477 16.3772 9.38477 16.965C9.38477 17.5528 9.86126 18.0293 10.449 18.0293C11.0368 18.0293 11.5133 17.5528 11.5133 16.965Z" fill="white"/>
<path d="M11.5133 13.8361C11.5133 13.2483 11.0368 12.7718 10.449 12.7718C9.86126 12.7718 9.38477 13.2483 9.38477 13.8361C9.38477 14.4239 9.86126 14.9004 10.449 14.9004C11.0368 14.9004 11.5133 14.4239 11.5133 13.8361Z" fill="white"/>
<path d="M2.12855 10.7072C2.12855 10.1194 1.65206 9.64293 1.06428 9.64293C0.476493 9.64293 -7.22139e-08 10.1194 -4.6521e-08 10.7072C-2.08282e-08 11.295 0.476493 11.7715 1.06428 11.7715C1.65206 11.7715 2.12855 11.295 2.12855 10.7072Z" fill="white"/>
<path d="M11.5133 10.7072C11.5133 10.1194 11.0368 9.64293 10.449 9.64293C9.86126 9.64293 9.38477 10.1194 9.38477 10.7072C9.38477 11.295 9.86126 11.7715 10.449 11.7715C11.0368 11.7715 11.5133 11.295 11.5133 10.7072Z" fill="white"/>
<path d="M20.9 10.7072C20.9 10.1194 20.4235 9.64293 19.8358 9.64293C19.248 9.64293 18.7715 10.1194 18.7715 10.7072C18.7715 11.295 19.248 11.7715 19.8358 11.7715C20.4235 11.7715 20.9 11.295 20.9 10.7072Z" fill="white"/>
<path d="M5.25746 7.5783C5.25746 6.99052 4.78097 6.51402 4.19318 6.51402C3.6054 6.51402 3.12891 6.99052 3.12891 7.5783C3.12891 8.16609 3.6054 8.64258 4.19318 8.64258C4.78097 8.64258 5.25746 8.16609 5.25746 7.5783Z" fill="white"/>
<path d="M11.5153 7.5783C11.5153 6.99052 11.0388 6.51402 10.451 6.51402C9.86321 6.51402 9.38672 6.99052 9.38672 7.5783C9.38672 8.16608 9.86321 8.64258 10.451 8.64258C11.0388 8.64258 11.5153 8.16608 11.5153 7.5783Z" fill="white"/>
<path d="M17.7711 7.5783C17.7711 6.99052 17.2946 6.51402 16.7069 6.51402C16.1191 6.51402 15.6426 6.99052 15.6426 7.5783C15.6426 8.16609 16.1191 8.64258 16.7069 8.64258C17.2946 8.64258 17.7711 8.16609 17.7711 7.5783Z" fill="white"/>
<path d="M8.38637 4.45135C8.38637 3.86356 7.90987 3.38707 7.32209 3.38707C6.73431 3.38707 6.25781 3.86356 6.25781 4.45135C6.25781 5.03913 6.73431 5.51562 7.32209 5.51562C7.90987 5.51562 8.38637 5.03913 8.38637 4.45135Z" fill="white"/>
<path d="M11.5153 4.45135C11.5153 3.86356 11.0388 3.38707 10.451 3.38707C9.86321 3.38707 9.38672 3.86356 9.38672 4.45135C9.38672 5.03913 9.86321 5.51562 10.451 5.51562C11.0388 5.51562 11.5153 5.03913 11.5153 4.45135Z" fill="white"/>
<path d="M14.6442 4.45135C14.6442 3.86356 14.1677 3.38707 13.5799 3.38707C12.9921 3.38707 12.5156 3.86356 12.5156 4.45135C12.5156 5.03913 12.9921 5.51562 13.5799 5.51562C14.1677 5.51562 14.6442 5.03913 14.6442 4.45135Z" fill="white"/>
<path d="M11.5133 1.32244C11.5133 0.734658 11.0368 0.258164 10.449 0.258164C9.86126 0.258164 9.38477 0.734658 9.38477 1.32244C9.38477 1.91023 9.86126 2.38672 10.449 2.38672C11.0368 2.38672 11.5133 1.91023 11.5133 1.32244Z" fill="white"/>
</svg>
