<svg width="37" height="37" viewBox="0 0 37 37" fill="none" xmlns="http://www.w3.org/2000/svg">
<path d="M8.89439 28.8053C9.31002 28.3897 9.31002 27.7158 8.89439 27.3002C8.47877 26.8846 7.8049 26.8846 7.38928 27.3002C6.97365 27.7158 6.97365 28.3897 7.38928 28.8053C7.8049 29.2209 8.47877 29.2209 8.89439 28.8053Z" fill="white"/>
<path d="M11.1073 26.5924C11.5229 26.1768 11.5229 25.5029 11.1073 25.0873C10.6917 24.6717 10.0178 24.6717 9.60217 25.0873C9.18654 25.5029 9.18654 26.1768 9.60217 26.5924C10.0178 27.008 10.6917 27.008 11.1073 26.5924Z" fill="white"/>
<path d="M13.3182 24.3815C13.7338 23.9658 13.7338 23.292 13.3182 22.8763C12.9026 22.4607 12.2287 22.4607 11.8131 22.8763C11.3975 23.292 11.3975 23.9658 11.8131 24.3815C12.2287 24.7971 12.9026 24.7971 13.3182 24.3815Z" fill="white"/>
<path d="M15.5311 22.1686C15.9467 21.7529 15.9467 21.0791 15.5311 20.6635C15.1155 20.2478 14.4416 20.2478 14.026 20.6635C13.6104 21.0791 13.6104 21.7529 14.026 22.1686C14.4416 22.5842 15.1155 22.5842 15.5311 22.1686Z" fill="white"/>
<path d="M17.744 19.9557C18.1596 19.5401 18.1596 18.8662 17.744 18.4506C17.3284 18.0349 16.6545 18.0349 16.2389 18.4506C15.8233 18.8662 15.8233 19.5401 16.2389 19.9557C16.6545 20.3713 17.3284 20.3713 17.744 19.9557Z" fill="white"/>
<path d="M19.9549 17.7447C20.3706 17.3291 20.3706 16.6553 19.9549 16.2396C19.5393 15.824 18.8654 15.824 18.4498 16.2396C18.0342 16.6553 18.0342 17.3291 18.4498 17.7447C18.8654 18.1604 19.5393 18.1604 19.9549 17.7447Z" fill="white"/>
<path d="M15.5311 8.89514C15.9467 8.47951 15.9467 7.80565 15.5311 7.39002C15.1155 6.97439 14.4416 6.97439 14.026 7.39002C13.6104 7.80565 13.6104 8.47951 14.026 8.89514C14.4416 9.31076 15.1155 9.31076 15.5311 8.89514Z" fill="white"/>
<path d="M22.1678 15.5319C22.5835 15.1162 22.5835 14.4424 22.1678 14.0267C21.7522 13.6111 21.0783 13.6111 20.6627 14.0267C20.2471 14.4424 20.2471 15.1162 20.6627 15.5319C21.0783 15.9475 21.7522 15.9475 22.1678 15.5319Z" fill="white"/>
<path d="M28.8045 22.1686C29.2202 21.7529 29.2202 21.0791 28.8045 20.6635C28.3889 20.2478 27.7151 20.2478 27.2994 20.6635C26.8838 21.0791 26.8838 21.7529 27.2994 22.1686C27.7151 22.5842 28.3889 22.5842 28.8045 22.1686Z" fill="white"/>
<path d="M19.9549 8.89514C20.3706 8.47951 20.3706 7.80565 19.9549 7.39002C19.5393 6.97439 18.8654 6.97439 18.4498 7.39002C18.0342 7.80565 18.0342 8.47951 18.4498 8.89514C18.8654 9.31076 19.5393 9.31076 19.9549 8.89514Z" fill="white"/>
<path d="M24.3788 13.319C24.7944 12.9033 24.7944 12.2295 24.3788 11.8138C23.9631 11.3982 23.2893 11.3982 22.8737 11.8138C22.458 12.2295 22.458 12.9033 22.8737 13.319C23.2893 13.7346 23.9631 13.7346 24.3788 13.319Z" fill="white"/>
<path d="M28.8045 17.7447C29.2202 17.3291 29.2202 16.6553 28.8045 16.2396C28.3889 15.824 27.7151 15.824 27.2994 16.2396C26.8838 16.6553 26.8838 17.3291 27.2994 17.7447C27.7151 18.1604 28.3889 18.1604 28.8045 17.7447Z" fill="white"/>
<path d="M24.3807 8.89514C24.7963 8.47951 24.7963 7.80565 24.3807 7.39002C23.9651 6.97439 23.2912 6.97439 22.8756 7.39002C22.46 7.80565 22.46 8.47951 22.8756 8.89514C23.2912 9.31076 23.9651 9.31076 24.3807 8.89514Z" fill="white"/>
<path d="M26.5936 11.108C27.0092 10.6924 27.0092 10.0185 26.5936 9.60291C26.178 9.18728 25.5041 9.18729 25.0885 9.60291C24.6729 10.0185 24.6729 10.6924 25.0885 11.108C25.5041 11.5237 26.178 11.5237 26.5936 11.108Z" fill="white"/>
<path d="M28.8045 13.319C29.2202 12.9033 29.2202 12.2295 28.8045 11.8138C28.3889 11.3982 27.7151 11.3982 27.2994 11.8138C26.8838 12.2295 26.8838 12.9033 27.2994 13.319C27.7151 13.7346 28.3889 13.7346 28.8045 13.319Z" fill="white"/>
<path d="M28.8045 8.89514C29.2202 8.47951 29.2202 7.80565 28.8045 7.39002C28.3889 6.97439 27.7151 6.97439 27.2994 7.39002C26.8838 7.80565 26.8838 8.47951 27.2994 8.89514C27.7151 9.31076 28.3889 9.31076 28.8045 8.89514Z" fill="white"/>
</svg>
