<svg width="54" height="52" viewBox="0 0 54 52" fill="none" xmlns="http://www.w3.org/2000/svg">
<path fill-rule="evenodd" clip-rule="evenodd" d="M39.7191 9.96598C40.8001 10.726 37.8871 10.573 36.8951 10.162C37.1261 10.537 35.1711 10.724 35.1601 10.686C35.2021 10.38 35.4031 10.234 35.7181 10.2C34.0951 10.154 33.104 9.43698 31.08 10.446C31.084 10.05 31.7461 10.312 31.8001 9.96598C30.9491 10.043 29.3821 9.74498 28.6801 10.686C27.5621 10.897 28.8421 9.89498 28.2001 9.96598C24.0071 10.329 20.3061 9.18798 15.7201 10.926C15.0771 10.309 16.3631 10.583 15.7201 9.96598C14.4341 10.257 16.033 9.98298 14.6 9.96598C13.86 6.29698 17.7391 2.76198 15.4001 0.365977C15.4001 0.285977 15.4001 0.205977 15.4001 0.125977C13.1601 0.125977 6.92005 0.125977 4.68005 0.125977C3.59205 0.237977 3.66105 1.50698 3.00005 2.04598C3.00005 2.28598 3.00005 3.52598 3.00005 3.76598C4.48805 5.41898 9.40705 4.32998 11.2401 4.72598C11.1421 15.882 -0.574948 27.061 0.720052 37.086C12.1811 37.049 29.6131 37.416 42.2401 36.846C43.6941 29.021 52.9711 20.018 53.6391 11.406C48.9021 9.88598 43.7531 11.468 39.7191 9.96598ZM39.7991 33.926C35.4881 34.034 33.842 33.246 30.239 33.686C29.798 32.943 27.661 33.198 26.399 33.686C26.503 33.391 26.7061 33.194 27.1191 33.207C26.3251 33.241 26.0011 33.339 24.9591 32.727C24.2411 32.754 24.8511 33.615 23.5191 33.448C23.5791 33.187 23.9971 33.285 23.9991 32.968C23.4691 32.973 22.2221 32.814 21.8391 33.688C21.4931 33.634 21.7551 32.972 21.3601 32.968C17.9661 33.102 15.9591 32.505 12.4801 33.688C12.6071 33.496 12.7301 33.298 12.7201 32.968C9.87705 33.042 7.63205 33.17 4.60005 33.208C4.12805 26.11 12.3061 20.843 12.3601 14.568C23.0281 14.601 35.3401 13.843 49.2401 14.088C49.4371 21.088 40.1021 26.626 39.7991 33.926Z" fill="white"/>
<path fill-rule="evenodd" clip-rule="evenodd" d="M27.8946 10.1621C27.8576 10.1011 27.7686 10.0361 27.5986 9.96606C27.6426 10.0361 27.7476 10.1021 27.8946 10.1621Z" fill="white"/>
<path fill-rule="evenodd" clip-rule="evenodd" d="M30.2389 40.9259C27.4849 41.5129 26.9099 44.5379 24.7179 44.7659C24.5959 43.7679 24.4389 44.6889 23.9979 43.8059C21.2479 44.5619 18.9829 43.5569 15.5979 44.0459C10.9159 35.0809 -0.189075 44.0969 5.51793 50.0459C6.29293 50.8549 8.57993 51.2169 9.35793 51.7259C9.67793 51.7259 9.99792 51.7259 10.3179 51.7259C12.1789 51.2049 14.3099 49.9029 15.1179 47.6459C18.3559 46.6089 23.3149 47.5889 26.3979 46.9259C27.5349 48.9089 28.2109 50.4759 29.9979 51.0059C38.3219 53.4779 38.7359 39.1169 30.2389 40.9259ZM9.83893 49.0859C7.42593 48.8829 6.22393 41.6529 11.9989 44.0459C13.0349 45.1199 12.1209 49.2779 9.83893 49.0859ZM30.4799 48.3659C31.0419 47.5059 29.8669 46.6779 29.5189 45.9659C29.4569 43.7339 31.7839 43.4709 33.8389 44.0459C35.8349 46.4289 32.9479 50.4589 30.4799 48.3659Z" fill="white"/>
</svg>
