<svg width="50" height="50" viewBox="0 0 50 50" fill="none" xmlns="http://www.w3.org/2000/svg">
<g clip-path="url(#clip0_1806_1352)">
<path d="M24.9993 12.8989C28.9406 12.8989 29.4075 12.914 30.9641 12.985C32.4033 13.0507 33.1848 13.2911 33.705 13.4933C34.3462 13.7299 34.9261 14.1072 35.4022 14.5975C35.8925 15.0736 36.2698 15.6535 36.5064 16.2947C36.7086 16.8148 36.9491 17.5964 37.0147 19.0356C37.0857 20.5921 37.1008 21.0589 37.1008 25.0004C37.1008 28.9419 37.0857 29.4086 37.0147 30.9653C36.949 32.4045 36.7085 33.186 36.5064 33.7062C36.2609 34.3428 35.8847 34.9209 35.4023 35.4034C34.9198 35.8859 34.3416 36.262 33.705 36.5076C33.1849 36.7097 32.4033 36.9502 30.9641 37.0158C29.4079 37.0869 28.9411 37.1019 24.9993 37.1019C21.0575 37.1019 20.5909 37.0869 19.0344 37.0158C17.5953 36.9502 16.8137 36.7097 16.2935 36.5076C15.6524 36.271 15.0724 35.8937 14.5963 35.4034C14.1061 34.9273 13.7287 34.3473 13.4921 33.7062C13.29 33.186 13.0495 32.4045 12.9839 30.9653C12.9129 29.4088 12.8978 28.9419 12.8978 25.0004C12.8978 21.0589 12.9129 20.5922 12.9839 19.0356C13.0496 17.5964 13.29 16.8149 13.4921 16.2947C13.7288 15.6535 14.1061 15.0735 14.5964 14.5974C15.0726 14.1071 15.6525 13.7298 16.2937 13.4932C16.8138 13.2911 17.5954 13.0506 19.0346 12.985C20.5911 12.9139 21.0579 12.8989 24.9994 12.8989M24.9994 10.2393C20.9905 10.2393 20.4877 10.2562 18.9135 10.3281C17.3423 10.3998 16.2693 10.6493 15.3304 11.0142C14.3455 11.3849 13.4533 11.9659 12.716 12.7168C11.9649 13.454 11.3837 14.3463 11.0129 15.3312C10.6483 16.2702 10.3988 17.3432 10.3274 18.9144C10.2553 20.4885 10.2383 20.9914 10.2383 25.0003C10.2383 29.0091 10.2553 29.512 10.3274 31.0862C10.3991 32.6573 10.6486 33.7303 11.0135 34.6692C11.3842 35.6541 11.9652 36.5464 12.7161 37.2837C13.4534 38.0346 14.3456 38.6156 15.3305 38.9862C16.2695 39.3512 17.3425 39.6006 18.9136 39.6724C20.488 39.7442 20.9907 39.7612 24.9995 39.7612C29.0083 39.7612 29.5112 39.7442 31.0854 39.6724C32.6566 39.6006 33.7296 39.3512 34.6685 38.9862C35.649 38.607 36.5395 38.0271 37.2829 37.2837C38.0263 36.5403 38.6062 35.6498 38.9855 34.6692C39.3504 33.7303 39.5999 32.6573 39.6716 31.0862C39.7435 29.5117 39.7604 29.0091 39.7604 25.0003C39.7604 20.9914 39.7435 20.4885 39.6716 18.9144C39.5999 17.3432 39.3504 16.2702 38.9855 15.3313C38.6148 14.3464 38.0338 13.4541 37.2829 12.7168C36.5456 11.9658 35.6533 11.3846 34.6683 11.0139C33.7293 10.6493 32.6564 10.3998 31.0852 10.3284C29.511 10.2562 29.0081 10.2393 24.9993 10.2393H24.9994Z" fill="white"/>
<path d="M25.0019 17.4199C23.5027 17.4199 22.0372 17.8645 20.7906 18.6974C19.5441 19.5303 18.5726 20.7141 17.9989 22.0992C17.4252 23.4842 17.2751 25.0083 17.5675 26.4787C17.86 27.9491 18.5819 29.2997 19.642 30.3598C20.7021 31.4198 22.0527 32.1418 23.5231 32.4342C24.9935 32.7267 26.5175 32.5766 27.9026 32.0029C29.2877 31.4292 30.4715 30.4576 31.3044 29.2111C32.1373 27.9646 32.5818 26.4991 32.5818 24.9999C32.5818 22.9896 31.7832 21.0616 30.3617 19.64C28.9402 18.2185 27.0122 17.4199 25.0019 17.4199ZM25.0019 29.9202C24.0287 29.9202 23.0774 29.6316 22.2683 29.0909C21.4592 28.5503 20.8285 27.7818 20.4561 26.8828C20.0837 25.9837 19.9863 24.9944 20.1762 24.04C20.366 23.0855 20.8346 22.2088 21.5228 21.5207C22.2109 20.8326 23.0876 20.364 24.042 20.1741C24.9965 19.9843 25.9858 20.0817 26.8848 20.4542C27.7839 20.8266 28.5523 21.4572 29.093 22.2663C29.6336 23.0755 29.9222 24.0268 29.9222 24.9999C29.9222 26.3049 29.4038 27.5563 28.4811 28.4791C27.5583 29.4018 26.3068 29.9202 25.0019 29.9202Z" fill="white"/>
<path d="M32.8807 18.8922C33.8589 18.8922 34.652 18.0992 34.652 17.1209C34.652 16.1426 33.8589 15.3496 32.8807 15.3496C31.9024 15.3496 31.1094 16.1426 31.1094 17.1209C31.1094 18.0992 31.9024 18.8922 32.8807 18.8922Z" fill="white"/>
</g>
<defs>
<clipPath id="clip0_1806_1352">
<rect width="30" height="30" fill="white" transform="translate(10 10)"/>
</clipPath>
</defs>
</svg>
