<svg width="45" height="50" viewBox="0 0 45 50" fill="none" xmlns="http://www.w3.org/2000/svg">
<path d="M33.033 31.1309C32.9416 31.0992 32.8466 31.0816 32.7447 31.0816H18.5952L18.2542 28.8564H33.2826C33.715 28.8564 34.0841 28.5435 34.1509 28.1146L35.9086 17.0411C35.9472 16.788 35.8769 16.5278 35.7082 16.331C35.5395 16.1341 35.2969 16.0216 35.0403 16.0216H16.2926L15.7899 12.7453C15.7231 12.3164 15.354 12 14.9216 12H10.8789C10.3937 12 10 12.3937 10 12.8789C10 13.364 10.3937 13.7577 10.8789 13.7577H14.1658L14.6333 16.8196C14.6263 16.8934 14.6298 16.9673 14.6403 17.0376L15.3856 21.7271L16.8445 31.2609C15.5122 31.6687 14.5384 32.9132 14.5384 34.3791C14.5384 36.1755 16.0008 37.6379 17.7972 37.6379C19.5936 37.6379 21.056 36.1755 21.056 34.3791C21.056 33.8237 20.9153 33.2999 20.6693 32.8429H29.8691C29.623 33.2999 29.4824 33.8237 29.4824 34.3791C29.4824 36.1755 30.9448 37.6379 32.7412 37.6379C34.5376 37.6379 36 36.1755 36 34.3791C36.007 32.6776 34.6958 31.2785 33.033 31.1309ZM34.0138 17.7828L33.7079 19.7163H22.1985V20.7709H33.5357L32.5303 27.1022H18.0186L17.1222 21.4565L16.5598 17.7828H34.0138ZM17.7972 35.8802C16.9675 35.8802 16.2961 35.2052 16.2961 34.3791C16.2961 33.5495 16.9711 32.878 17.7972 32.878C18.6268 32.878 19.2983 33.553 19.2983 34.3791C19.3018 35.2052 18.6268 35.8802 17.7972 35.8802ZM32.7447 35.8802C31.9151 35.8802 31.2436 35.2052 31.2436 34.3791C31.2436 33.5495 31.9186 32.878 32.7447 32.878C33.5743 32.878 34.2458 33.553 34.2458 34.3791C34.2493 35.2052 33.5743 35.8802 32.7447 35.8802Z" fill="white"/>
<path d="M21.2147 19.7178H19.668V20.7724H21.2147V19.7178Z" fill="white"/>
</svg>
