<svg width="64" height="50" viewBox="0 0 64 50" fill="none" xmlns="http://www.w3.org/2000/svg">
<path fill-rule="evenodd" clip-rule="evenodd" d="M48.7875 39.1129C50.614 38.624 52.0495 37.1886 52.5384 35.3621C53.4219 32.0548 53.4255 25.1504 53.4255 25.1504C53.4255 25.1504 53.4255 18.2459 52.5384 14.9386C52.0495 13.1121 50.614 11.6767 48.7875 11.1879C45.4804 10.3008 32.2127 10.3008 32.2127 10.3008C32.2127 10.3008 18.9452 10.3008 15.6379 11.1879C13.8114 11.6767 12.376 13.1121 11.8871 14.9386C11 18.2459 11 25.1504 11 25.1504C11 25.1504 11 32.0548 11.8871 35.3621C12.376 37.1886 13.8114 38.624 15.6379 39.1129C18.9452 40 32.2127 40 32.2127 40C32.2127 40 45.4804 40 48.7875 39.1129ZM38.9883 25.1498L27.9664 18.7868V31.513L38.9883 25.1498Z" fill="white"/>
</svg>
