<svg width="80" height="50" viewBox="0 0 80 50" fill="none" xmlns="http://www.w3.org/2000/svg">
<path d="M17.4973 19.6344H18.7784V24.2195H20.4241V13.9316H18.7784V18.0765H17.4973V13.9316H15.8516V24.2195H17.4973V19.6344Z" fill="white"/>
<path d="M22.884 13.9316H21.2383V24.2195H22.884V13.9316Z" fill="white"/>
<path d="M25.3449 20.5156H26.3647C27.8355 20.5156 28.2143 20.0304 28.2143 18.4288V16.0184C28.2143 14.4019 27.8355 13.9316 26.3647 13.9316H23.6992V24.2195H25.3449V20.5156ZM25.3449 15.4895H26.0439C26.5247 15.4895 26.5828 15.666 26.5828 16.2392V18.2087C26.5828 18.7669 26.5247 18.9583 26.0439 18.9583H25.3449V15.4902V15.4895Z" fill="white"/>
<path d="M17.4973 31.5019H18.7784V36.0877H20.4241V25.7998H18.7784V29.944H17.4973V25.7998H15.8516V36.0877H17.4973V31.5019Z" fill="white"/>
<path d="M23.0318 36.0858H23.8766C25.3475 36.0858 25.7405 35.6155 25.7405 33.999V27.7381C25.7405 26.1216 25.3475 25.6514 23.8766 25.6514H23.0318C21.5462 25.6514 21.168 26.1216 21.168 27.7381V33.999C21.168 35.6155 21.5468 36.0858 23.0318 36.0858ZM22.8137 27.9583C22.8137 27.3851 22.8576 27.2086 23.3377 27.2086H23.5707C24.0515 27.2086 24.0948 27.3851 24.0948 27.9583V33.7782C24.0948 34.3514 24.0509 34.5279 23.5707 34.5279H23.3377C22.8569 34.5279 22.8137 34.3514 22.8137 33.7782V27.9583Z" fill="white"/>
<path d="M26.4805 36.0877H28.1262V32.3838H29.1459C30.6167 32.3838 30.9956 31.8985 30.9956 30.297V27.8866C30.9956 26.27 30.6167 25.7998 29.1459 25.7998H26.4805V36.0877ZM28.1262 27.2835H28.8251C29.306 27.2835 29.364 27.46 29.364 28.0331V30.0026C29.364 30.5608 29.306 30.7523 28.8251 30.7523H28.1262V27.2841V27.2835Z" fill="white"/>
<path d="M45.3178 36.0639C46.9383 36.0639 48.5124 35.5709 49.8438 34.6629C49.1817 34.1543 48.5731 33.5785 48.0284 32.9448C47.2004 33.3975 46.2671 33.6411 45.3178 33.6411C43.7463 33.6411 42.3213 32.9963 41.2893 31.9542C41.1602 31.824 41.0376 31.6878 40.9214 31.5458C40.1076 30.5513 39.6184 29.2767 39.6184 27.8895V27.5117H37.2305V27.8901C37.2305 30.1436 38.1372 32.1874 39.6016 33.6671C41.066 35.1475 43.088 36.0639 45.3171 36.0639H45.3178Z" fill="white"/>
<path d="M41.0197 24.1163C42.1052 22.8593 43.6716 22.1383 45.3173 22.1383C45.3173 22.1383 45.3186 22.1383 45.3193 22.1383C45.3193 22.1383 45.3205 22.1383 45.3212 22.1383C45.3535 22.1383 45.3864 22.1403 45.4186 22.1409C45.5935 22.1442 45.7678 22.1533 45.942 22.1728C46.1137 22.1917 46.2841 22.2197 46.4532 22.2542C46.4532 22.2542 46.4532 22.2542 46.4532 22.2549C46.4797 22.2601 46.5061 22.264 46.5326 22.2699C46.6326 22.292 46.7326 22.3168 46.8314 22.3441C46.9334 22.3728 47.0327 22.4027 47.1257 22.4347C47.4038 22.5291 47.6736 22.6444 47.9337 22.7811C48.1899 22.9153 48.4365 23.0697 48.6714 23.2429C48.7004 23.2644 48.7275 23.2859 48.7559 23.3067C48.8198 23.3556 48.8818 23.4044 48.9392 23.452C49.027 23.5249 49.116 23.6044 49.2051 23.6878C49.207 23.6897 49.209 23.6917 49.2109 23.6936C49.2109 23.693 49.2109 23.6917 49.2109 23.691C49.3632 23.8349 49.5071 23.9867 49.642 24.1443C49.6504 24.1541 49.6582 24.1638 49.6666 24.1736C49.8821 24.4296 50.0744 24.7025 50.2422 24.9916C50.2945 25.0815 50.3442 25.1727 50.3913 25.2652C50.3926 25.2678 50.3939 25.2697 50.3952 25.2724C50.4436 25.3674 50.4901 25.4638 50.5333 25.5622C50.8573 26.2975 51.0212 27.0804 51.0212 27.8899C51.0212 28.3243 50.9728 28.7535 50.8779 29.1723C51.3813 29.9363 52.0183 30.6019 52.7547 31.1373C53.1974 30.1115 53.422 29.0206 53.422 27.8906C53.422 26.8869 53.2394 25.9132 52.8915 24.9929C52.7915 24.7285 52.6779 24.4687 52.5501 24.2127C52.292 23.6975 51.9764 23.2104 51.615 22.7597C51.5143 22.6346 51.4117 22.5109 51.3039 22.3917C51.2335 22.3135 51.1613 22.2367 51.0877 22.1611C50.8825 21.9501 50.6656 21.7508 50.4391 21.5632C50.3707 21.5066 50.3016 21.4512 50.2319 21.3971C50.1641 21.3444 50.0932 21.2936 50.0228 21.2428C49.9976 21.2245 49.9738 21.2057 49.9486 21.1881C49.8524 21.1203 49.755 21.0539 49.6588 20.992C49.6369 20.9777 49.6143 20.9647 49.5917 20.9504C49.4136 20.8383 49.2322 20.7328 49.0463 20.6358C49.0425 20.6338 49.0386 20.6319 49.0347 20.6299C48.6869 20.4482 48.3267 20.2925 47.9569 20.1636C47.8492 20.1258 47.7381 20.09 47.6265 20.0568C47.52 20.0249 47.4129 19.9956 47.3057 19.9682C47.3006 19.9669 47.2948 19.9649 47.2896 19.9636C47.1231 19.9213 46.9553 19.8855 46.7862 19.8542C46.6087 19.8217 46.43 19.795 46.2512 19.7741C45.944 19.7383 45.6342 19.7201 45.3238 19.7201C44.2331 19.7201 43.1456 19.9461 42.1446 20.3772L42.1459 20.372C42.1459 20.372 42.1433 20.3733 42.1414 20.374V20.3727C42.1414 20.3727 42.1388 20.374 42.1375 20.374L42.9068 16.3437H50.2222L50.219 16.3476C50.1783 16.3809 50.1377 16.4141 50.0977 16.4479C50.0796 16.4636 50.0602 16.4786 50.0422 16.4942C50.0338 16.5013 50.0254 16.5085 50.017 16.5157C49.9428 16.5789 49.8699 16.6433 49.7976 16.7085C49.795 16.7111 49.7918 16.7137 49.7892 16.7163C49.7866 16.7189 49.784 16.7208 49.7814 16.7234C49.7795 16.7254 49.7776 16.7273 49.775 16.7293C49.6517 16.8407 49.5317 16.956 49.4142 17.0732C49.3284 17.1585 49.2432 17.2451 49.1599 17.3337C49.136 17.3591 49.1109 17.3845 49.087 17.4099C49.0838 17.4132 49.0805 17.4171 49.0773 17.4203C48.9805 17.5245 48.8876 17.6326 48.7946 17.7408C48.7449 17.7987 48.6959 17.858 48.6475 17.9173C48.5888 17.9889 48.5307 18.0606 48.4739 18.1341C48.4255 18.196 48.3784 18.2579 48.3319 18.3204C48.2641 18.4109 48.1964 18.5028 48.1312 18.5953C48.1151 18.6187 48.0983 18.6415 48.0815 18.6656C48.0738 18.6773 48.066 18.6897 48.0583 18.7014C47.9731 18.8265 47.8892 18.9522 47.8085 19.0805C47.8085 19.0805 47.8085 19.0811 47.8078 19.0818C47.8388 19.0909 47.8717 19.0987 47.9021 19.1078C48.0273 19.1456 48.1525 19.186 48.2732 19.2277C48.9121 19.4498 49.5272 19.7461 50.1035 20.1076C50.4546 19.5963 50.8586 19.1248 51.3078 18.7014C51.3078 18.7014 51.3078 18.7014 51.3084 18.7008C51.3826 18.6311 51.4588 18.5634 51.5356 18.4969C51.5537 18.4813 51.5711 18.4644 51.5892 18.4487C51.5943 18.4442 51.5995 18.4396 51.6053 18.435C51.6221 18.4207 51.6401 18.407 51.6576 18.3921C51.7318 18.3295 51.806 18.2677 51.8822 18.2077C51.8828 18.2077 51.8834 18.2064 51.8841 18.2058C51.8944 18.1973 51.9047 18.1889 51.9157 18.181C51.9764 18.1335 52.039 18.0879 52.1016 18.0423C52.1313 18.0208 52.1603 17.998 52.19 17.9765C52.1907 17.9765 52.1913 17.9759 52.1919 17.9752C52.2074 17.9642 52.2236 17.9524 52.2391 17.9414C52.2391 17.9414 52.2397 17.9414 52.2403 17.9407C52.2778 17.914 52.3171 17.8886 52.3552 17.8632C52.4075 17.8274 52.4591 17.7916 52.5114 17.757C52.5321 17.7434 52.5527 17.7297 52.574 17.7167C52.574 17.7167 52.5753 17.7167 52.5753 17.716C52.6624 17.66 52.7515 17.6059 52.8406 17.5532C52.8406 17.5532 52.8418 17.5525 52.8425 17.5519C52.8683 17.5363 52.8948 17.5213 52.9212 17.5063C52.9212 17.5063 52.9225 17.5056 52.9232 17.505C53.009 17.4555 53.0961 17.408 53.1839 17.3617C53.1839 17.3617 53.1852 17.3617 53.1858 17.3611C53.2013 17.3526 53.2162 17.3441 53.2317 17.3363C53.2478 17.3278 53.2639 17.3207 53.2801 17.3122C53.2807 17.3122 53.2813 17.3116 53.282 17.3109C53.3168 17.2927 53.353 17.2764 53.3878 17.2588C53.4382 17.2341 53.4879 17.2087 53.5382 17.1846C53.575 17.167 53.6118 17.1507 53.6492 17.1338C53.6918 17.1142 53.7338 17.094 53.777 17.0751C53.8183 17.0576 53.8603 17.0406 53.9016 17.0237C53.9442 17.0061 53.9868 16.9898 54.0293 16.9729C54.03 16.9729 54.0313 16.9722 54.0319 16.9716C54.0623 16.9599 54.0926 16.9488 54.1229 16.9371C54.1733 16.9175 54.2236 16.898 54.2746 16.8798C54.3224 16.8628 54.3714 16.8465 54.4198 16.8303C54.4211 16.8303 54.4217 16.8296 54.423 16.829C54.5005 16.8029 54.5779 16.7768 54.656 16.7527C54.656 16.7527 54.6567 16.7527 54.6573 16.7527C54.7051 16.7384 54.7535 16.7247 54.8012 16.7111C54.8077 16.7091 54.8141 16.7078 54.8199 16.7059C54.8961 16.6844 54.9723 16.6629 55.0491 16.6433C55.1091 16.6284 55.1704 16.6147 55.2311 16.601C55.304 16.5841 55.3763 16.5671 55.4492 16.5521C55.5163 16.5385 55.5841 16.5274 55.6518 16.5157C55.6538 16.5157 55.6564 16.515 55.6583 16.5144C55.6977 16.5072 55.7377 16.5007 55.7777 16.4935C55.8042 16.489 55.8306 16.4838 55.8577 16.4799C55.9326 16.4688 56.0081 16.4603 56.0836 16.4505C56.0842 16.4505 56.0849 16.4505 56.0855 16.4505C56.0888 16.4505 56.0913 16.4499 56.0946 16.4492C56.1533 16.4421 56.212 16.4336 56.2714 16.4278C56.2714 16.4278 56.2721 16.4278 56.2727 16.4278C56.3624 16.4186 56.4528 16.4128 56.5431 16.4069C56.5483 16.4069 56.5534 16.4063 56.5586 16.4056C56.6038 16.4024 56.6483 16.3978 56.6935 16.3958C56.6935 16.3958 56.6941 16.3958 56.6948 16.3958C56.8368 16.3887 56.9794 16.3848 57.1233 16.3848C57.2672 16.3848 57.4099 16.3887 57.5519 16.3958C57.5519 16.3958 57.5525 16.3958 57.5531 16.3958C57.5873 16.3978 57.6209 16.4004 57.6545 16.403C57.6706 16.4043 57.6874 16.4056 57.7035 16.4069C57.7939 16.4128 57.8849 16.4186 57.9739 16.4278C57.9784 16.4278 57.9836 16.4278 57.9888 16.4291C58.0469 16.4349 58.1037 16.444 58.1611 16.4512C58.1882 16.4545 58.2159 16.4577 58.2431 16.461C58.2443 16.461 58.2456 16.461 58.2469 16.461C58.2947 16.4675 58.3424 16.4727 58.3896 16.4799C58.3896 16.4799 58.3902 16.4799 58.3908 16.4799C58.4573 16.4896 58.5232 16.5027 58.589 16.5144C58.5909 16.5144 58.5929 16.515 58.5954 16.5157C58.5987 16.5157 58.6012 16.517 58.6045 16.517C58.6058 16.517 58.6071 16.517 58.6083 16.517C58.6716 16.5281 58.7355 16.5385 58.7981 16.5515C58.8207 16.5561 58.8433 16.5606 58.8659 16.5652C58.9162 16.5756 58.9659 16.5886 59.0162 16.6003C59.0769 16.614 59.1376 16.6277 59.1982 16.6427C59.275 16.6622 59.3512 16.6837 59.4273 16.7052C59.4815 16.7208 59.5364 16.7358 59.59 16.7521C59.59 16.7521 59.5906 16.7521 59.5913 16.7521C59.67 16.7762 59.7474 16.8022 59.8249 16.8283C59.8262 16.8283 59.8268 16.8289 59.8281 16.8296C59.8765 16.8459 59.9249 16.8622 59.9733 16.8791C59.9733 16.8791 59.974 16.8791 59.9746 16.8791C60.0559 16.9084 60.1366 16.939 60.2166 16.9709C60.2173 16.9709 60.2186 16.9709 60.2192 16.9716C60.2618 16.9885 60.3044 17.0048 60.347 17.0224C60.4322 17.0576 60.5161 17.0947 60.6 17.1325C60.6368 17.1494 60.6742 17.1657 60.711 17.1833C60.7459 17.1995 60.7794 17.2171 60.8136 17.2334C60.8652 17.2588 60.9169 17.2829 60.9679 17.309C60.9679 17.309 60.9692 17.309 60.9698 17.3096C61.0014 17.3259 61.033 17.3422 61.0647 17.3585C61.0647 17.3585 61.0653 17.3585 61.066 17.3591C61.1092 17.3819 61.1512 17.406 61.1937 17.4294C61.2383 17.4542 61.2841 17.4783 61.328 17.5037C61.3545 17.5187 61.3803 17.5337 61.4067 17.5493C61.428 17.5617 61.448 17.5753 61.4693 17.5877C61.5384 17.6287 61.6068 17.6704 61.6746 17.7134C61.6746 17.7134 61.6752 17.7134 61.6758 17.7141C61.6965 17.7277 61.7178 17.7408 61.7385 17.7544C61.8198 17.8072 61.8992 17.8619 61.9785 17.9173C61.9889 17.9244 61.9998 17.9316 62.0102 17.9388C62.0102 17.9388 62.0108 17.9388 62.0114 17.9394C62.0276 17.9505 62.0431 17.9622 62.0586 17.9733C62.0586 17.9733 62.0599 17.9739 62.0599 17.9746C62.1521 18.041 62.2438 18.1087 62.3329 18.1791C62.3329 18.1791 62.3335 18.1791 62.3335 18.1797C62.3438 18.1882 62.3542 18.1967 62.3651 18.2045C62.3651 18.2045 62.3664 18.2051 62.3671 18.2058C62.4348 18.2592 62.5006 18.3146 62.5671 18.3699C62.5923 18.3914 62.6188 18.4116 62.6439 18.4331C62.6491 18.4377 62.6543 18.4422 62.6601 18.4468C62.7181 18.4969 62.7749 18.5497 62.8317 18.6011C62.8679 18.6337 62.9047 18.6656 62.9408 18.6988C62.9408 18.6988 62.9408 18.6988 62.9414 18.6988C64.2283 19.9109 65.1454 21.517 65.4985 23.3263C65.5488 23.5848 65.5882 23.8473 65.6146 24.113C65.6437 24.4022 65.6585 24.6953 65.6585 24.9923C65.6585 29.7409 61.8307 33.6037 57.1253 33.6037C55.5828 33.6037 54.1358 33.1863 52.8857 32.4607C52.7812 32.4001 52.6779 32.3376 52.5766 32.2725C52.4746 32.2074 52.3739 32.1409 52.2752 32.0712C51.5917 31.5932 50.9812 31.0174 50.463 30.3635C50.3778 30.2561 50.2952 30.1467 50.2151 30.0353C50.1306 29.9174 50.0493 29.7976 49.9705 29.6758C49.34 28.6982 48.8992 27.5845 48.7043 26.3887C48.6765 26.218 48.6539 26.0454 48.6359 25.8709C48.6068 25.5817 48.592 25.2886 48.592 24.9916C48.592 24.8191 48.5984 24.6478 48.6088 24.4778C48.5862 24.4556 48.5642 24.4322 48.541 24.4107C48.4674 24.341 48.3932 24.2752 48.3203 24.2146C48.2525 24.158 48.1777 24.1 48.0983 24.0414C47.7059 23.7522 47.2761 23.5275 46.8198 23.3732C46.7449 23.3478 46.6629 23.3224 46.5765 23.2983C46.4939 23.2755 46.4106 23.2546 46.3293 23.2371C46.3054 23.2318 46.2809 23.2279 46.257 23.2234C46.1654 23.7998 46.1169 24.3905 46.1169 24.9929C46.1169 25.0073 46.1169 25.0216 46.1176 25.0366C46.1195 25.5003 46.1486 25.9575 46.2054 26.4063C46.2531 26.7847 46.3196 27.1566 46.4048 27.5226C46.7714 29.1065 47.4755 30.5602 48.4345 31.8049C48.5081 31.9006 48.5836 31.9957 48.661 32.0888C48.7378 32.1826 48.8172 32.2744 48.8966 32.365C49.4336 32.9746 50.0357 33.5243 50.6921 34.0036C50.7921 34.0766 50.8934 34.1482 50.996 34.2179C51.0993 34.2876 51.2039 34.356 51.3091 34.4224C52.998 35.4873 54.9916 36.1041 57.1259 36.1041C63.1964 36.1041 68.1348 31.1203 68.1348 24.9936C68.1348 24.5149 68.1045 24.0434 68.0464 23.5803C68.0296 23.4468 68.0096 23.3146 67.9883 23.1823C67.9819 23.1426 67.9748 23.1035 67.9677 23.0638C67.9509 22.9681 67.9328 22.873 67.9141 22.7779C67.9057 22.7369 67.898 22.6965 67.889 22.6561C67.8644 22.5421 67.8386 22.4281 67.8109 22.3155C67.807 22.2998 67.8038 22.2836 67.7999 22.2679C67.7683 22.1416 67.7334 22.0159 67.6973 21.8908C67.6863 21.8517 67.674 21.8133 67.6624 21.7749C67.6353 21.6857 67.6082 21.5971 67.5792 21.5092C67.565 21.4668 67.5514 21.4245 67.5372 21.3828C67.5043 21.2864 67.4701 21.1907 67.4346 21.0956C67.4243 21.0682 67.4146 21.0402 67.4043 21.0135C67.3591 20.895 67.312 20.7784 67.2629 20.6618C67.2468 20.6234 67.23 20.5856 67.2132 20.5472C67.1777 20.4658 67.1416 20.3844 67.1042 20.3036C67.0842 20.2606 67.0642 20.2183 67.0442 20.176C67.0041 20.0926 66.9628 20.0099 66.9209 19.9272C66.9041 19.8939 66.888 19.8607 66.8705 19.8282C66.8131 19.7181 66.7537 19.6093 66.6924 19.5012C66.6731 19.4667 66.6524 19.4322 66.6324 19.3977C66.5872 19.3202 66.5414 19.2427 66.4949 19.1665C66.4704 19.1267 66.4465 19.0876 66.4214 19.0486C66.3723 18.9711 66.3226 18.8942 66.2723 18.8187C66.2516 18.788 66.2316 18.7568 66.211 18.7255C66.2051 18.7171 66.1987 18.7086 66.1929 18.7001C66.1277 18.605 66.0619 18.5106 65.9941 18.4181C65.9031 18.2931 65.8089 18.17 65.7127 18.0488C65.6901 18.0208 65.6669 17.9935 65.6443 17.9661C65.5701 17.8743 65.4946 17.7837 65.4178 17.6945C65.3371 17.6014 65.2558 17.5089 65.1725 17.419C65.17 17.4164 65.168 17.4138 65.1654 17.4112C65.1048 17.3461 65.0422 17.2836 64.9802 17.2204C64.8544 17.0908 64.7253 16.9638 64.593 16.8407C64.5517 16.8022 64.5117 16.7619 64.4691 16.7234C64.4665 16.7215 64.4646 16.7195 64.462 16.7169C64.3865 16.6485 64.3103 16.5815 64.2329 16.5157C64.2251 16.5092 64.2167 16.502 64.209 16.4955C64.1722 16.4642 64.1341 16.4336 64.0967 16.4024C64.0547 16.3678 64.0134 16.332 63.9708 16.2981C63.9695 16.2968 63.9676 16.2955 63.9657 16.2942C63.9502 16.2819 63.934 16.2695 63.9179 16.2571C63.7688 16.1386 63.6165 16.0233 63.461 15.9126C63.4565 15.9093 63.4519 15.9061 63.4474 15.9028C63.441 15.8982 63.4345 15.8937 63.4274 15.8891C63.3493 15.8338 63.2706 15.7797 63.1912 15.727C63.1764 15.7172 63.1622 15.7074 63.1473 15.6976C63.0712 15.6475 62.9944 15.598 62.9169 15.5492C62.9053 15.542 62.893 15.5342 62.8814 15.5264C62.7014 15.4143 62.5181 15.3075 62.3316 15.2059C62.3199 15.2001 62.309 15.1935 62.2974 15.1877C62.2496 15.1616 62.2012 15.1375 62.1534 15.1121C62.1218 15.0959 62.0908 15.0789 62.0586 15.0626C62.0366 15.0516 62.0153 15.0405 61.9934 15.0301C61.9372 15.0021 61.8804 14.9747 61.8236 14.948C61.8062 14.9395 61.7894 14.9311 61.7727 14.9233C61.7514 14.9128 61.7301 14.9031 61.7081 14.8926C61.692 14.8855 61.6758 14.8783 61.6597 14.8712C61.5874 14.8379 61.5145 14.8047 61.4409 14.7728C61.4358 14.7709 61.4306 14.7682 61.4254 14.7663C61.328 14.7246 61.2299 14.6842 61.1311 14.6452C61.115 14.6386 61.0989 14.6328 61.0827 14.6269C61.0034 14.5957 60.9233 14.5657 60.8427 14.5364C60.8143 14.526 60.7865 14.5162 60.7581 14.5064C60.7426 14.5006 60.7265 14.496 60.7104 14.4901C60.6555 14.4713 60.6006 14.4517 60.5451 14.4335C60.5155 14.4237 60.4858 14.4139 60.4561 14.4042C60.3786 14.3794 60.2999 14.3553 60.2218 14.3319C60.2005 14.3254 60.1799 14.3189 60.1586 14.313C60.0927 14.2941 60.0256 14.2765 59.9591 14.2583C59.9249 14.2492 59.8907 14.2394 59.8565 14.2303C59.8378 14.2251 59.8184 14.2212 59.7997 14.216C59.7184 14.1951 59.6371 14.1756 59.5551 14.1567C59.5216 14.1489 59.488 14.1417 59.4544 14.1345C59.4228 14.1274 59.3905 14.1215 59.3589 14.1143C59.3215 14.1065 59.2841 14.0981 59.246 14.0909C59.2098 14.0837 59.1743 14.0766 59.1382 14.0701C59.1389 14.0701 59.1401 14.0701 59.1408 14.0701C59.0653 14.0557 58.9891 14.0427 58.913 14.0303C58.8975 14.0277 58.882 14.0245 58.8659 14.0219C58.8536 14.0199 58.8407 14.018 58.8284 14.016C58.7555 14.0043 58.6819 13.9939 58.6077 13.9841C58.6064 13.9841 58.6051 13.9841 58.6038 13.9841C58.5741 13.9802 58.5451 13.9756 58.5154 13.9717C58.5025 13.9704 58.4902 13.9691 58.4773 13.9672C58.4005 13.9574 58.3237 13.9483 58.2469 13.9405C58.2456 13.9405 58.2443 13.9405 58.2431 13.9405C58.2295 13.9391 58.2153 13.9378 58.2011 13.9365C58.1669 13.9333 58.1327 13.9307 58.0985 13.9274C58.0617 13.9242 58.0249 13.9203 57.9881 13.9177C57.9526 13.9151 57.9165 13.9124 57.8803 13.9105C57.8429 13.9079 57.8048 13.9053 57.7674 13.9033C57.6938 13.8988 57.6196 13.8955 57.5454 13.8929C57.5118 13.8916 57.4783 13.8903 57.4447 13.889C57.4441 13.889 57.4434 13.889 57.4428 13.889C57.3937 13.8877 57.3447 13.8877 57.295 13.8864C57.2434 13.8857 57.1911 13.8838 57.1394 13.8838C57.1336 13.8838 57.1285 13.8838 57.1227 13.8838C57.1169 13.8838 57.1117 13.8838 57.1059 13.8838C57.0536 13.8838 57.0013 13.8851 56.9484 13.8864C56.9 13.887 56.851 13.887 56.8026 13.889C56.7664 13.8903 56.7303 13.8916 56.6941 13.8929C56.6225 13.8955 56.5515 13.8988 56.4805 13.9033C56.4405 13.9059 56.4011 13.9085 56.3611 13.9111C56.3147 13.9144 56.2688 13.9183 56.2224 13.9222C56.2069 13.9235 56.1914 13.9248 56.1759 13.9261C56.1681 13.9268 56.1598 13.9274 56.152 13.9281C56.1152 13.9313 56.0784 13.9346 56.0423 13.9378C55.9545 13.9463 55.8674 13.9561 55.7809 13.9672C55.7635 13.9691 55.7461 13.9711 55.7293 13.973C55.7299 13.973 55.7306 13.973 55.7312 13.973C55.7441 13.9717 55.7564 13.9704 55.7693 13.9685C55.8609 13.9574 55.9526 13.947 56.0449 13.9378C56.0791 13.9346 56.1133 13.932 56.1475 13.9287C56.1559 13.9281 56.1643 13.9274 56.1733 13.9261H40.93L40.8603 14.3L38.9609 24.2485H40.9074L41.0191 24.1189L41.0197 24.1163Z" fill="white"/>
<path d="M12 10.0046V39.9954L72 40V10L12 10.0046ZM33.3435 38.4343H13.5476V11.5664H33.3441V38.4343H33.3435ZM70.4524 38.4388H34.9059V11.5618H70.4524V38.4395V38.4388Z" fill="white"/>
</svg>
