<svg width="466" height="183" viewBox="0 0 466 183" fill="none" xmlns="http://www.w3.org/2000/svg">
<path d="M112.32 180.621C111.663 176.222 111.702 172.132 112.416 168.428C113.73 161.714 115.739 155.386 118.423 149.617L161.323 56.76C165.128 48.5991 168.663 43.4672 171.831 41.5186C173.724 40.2838 178.128 38.779 188.288 38.6246H210.5C213.939 38.6246 216.469 39.0876 218.072 39.9944C221.182 41.7115 222.36 44.0074 221.723 47.21C221.587 47.9238 220.68 50.6056 216.256 60.5029L180.291 138.562C173.685 152.646 167.813 163.007 162.849 169.412C161.091 171.727 158.155 175.161 154.138 179.637L151.24 182.859H264.12L263.734 180.602C262.961 176.222 262.942 172.19 263.618 168.64C264.951 161.811 266.979 155.425 269.664 149.637L312.969 55.5446C316.504 48.1747 319.865 43.39 322.897 41.3642C325.775 39.5507 330.334 38.6246 336.399 38.6246H358.612C365.063 38.6246 369.293 39.8015 371.225 42.1166C372.403 43.5443 372.731 45.4929 372.229 48.0975C371.727 50.6635 370.433 54.2905 368.347 58.8823L331.512 138.562C325.022 152.627 319.169 162.987 314.089 169.393C312.293 171.746 309.376 175.181 305.378 179.618L302.481 182.84H415.129L414.8 180.621C414.144 176.222 414.182 172.132 414.897 168.428C416.191 161.83 418.2 155.502 420.904 149.617L456.87 71.5578C461.389 61.8341 464.036 54.8693 464.924 50.2583C467.764 35.7114 464.886 23.2288 456.387 13.1771C449.085 4.43739 437.728 0 422.643 0H357.124C349.398 0 343.237 1.08041 338.833 3.22193C334.699 5.15123 330.527 8.87479 326.142 14.5662C324.732 9.41499 322.26 5.59497 318.706 3.18335C315.403 1.06112 309.782 0.019293 301.515 0.019293H210.674C200.804 0.019293 193.039 1.21546 187.534 3.5885C185.158 4.70749 182.705 6.38599 180.156 8.68186L184.135 0.019293H83.2305L83.5975 2.25728C84.3315 6.75255 84.3701 10.8427 83.6748 14.4119C82.3806 20.9908 80.3525 27.3768 77.6483 33.3962L29.0505 138.543C22.4446 152.608 16.5727 162.987 11.6086 169.393C9.85091 171.708 6.93427 175.142 2.89733 179.618L0 182.84H112.648L112.32 180.621Z" fill="#FFF500"/>
</svg>
