<svg width="242" height="202" viewBox="0 0 242 202" fill="none" xmlns="http://www.w3.org/2000/svg">
<path d="M173.79 200.23C173.46 197.9 173.48 195.77 173.84 193.91C174.53 190.36 175.58 187.05 176.96 184.07L195.4 144.07C197.86 138.76 199.37 134.57 200.01 131.27C201.5 123.64 199.67 117.15 194.58 111.98C191 108.42 185.41 106.61 177.95 106.61H90.2897L73.4097 131.82L76.7997 130.12C81.4297 127.8 88.1097 126.62 96.6597 126.62H143.66C146.94 126.62 149.29 126.88 150.66 127.39C151.45 127.68 152.29 128.29 151.88 130.42C151.36 133.1 150.17 135.09 148.33 136.36C147.69 136.82 146.09 137.37 142.03 137.37H97.4697C92.5597 137.37 89.4297 137.46 87.8697 137.65C83.7997 138.22 80.1097 139.37 76.8997 141.09C70.5697 144.56 65.2997 150.84 61.2397 159.75L57.1197 168.7C55.5797 171.96 54.5397 174.93 54.0397 177.53C52.6597 184.63 54.5297 190.63 59.5897 195.36C63.8297 199.34 70.5297 201.36 79.4897 201.36H107.05C111.39 201.36 115.41 200.69 119 199.35C121.36 198.42 123.6 196.87 125.69 194.72C125.44 196.6 125.45 198.54 125.72 200.49L125.84 201.35H173.95L173.79 200.21V200.23ZM131.76 175.27C130.12 178.72 128.97 179.96 128.27 180.42C127.76 180.77 126.09 181.36 120.73 181.36H109.23C105.52 181.36 103.89 180.88 103.19 180.48C102.5 180.08 101.63 179.29 102.06 177.1C102.12 176.79 102.39 175.91 103.5 173.45L107.9 164.02C109.7 160.08 111.13 158.68 112.03 158.19C112.9 157.7 114.82 157.12 119.09 157.12H140.14L131.76 175.27Z" fill="#FFF500"/>
<path d="M58.15 93.62C57.81 91.34 57.83 89.22 58.2 87.3C58.88 83.82 59.92 80.54 61.31 77.55L83.52 29.42C85.49 25.19 87.32 22.53 88.96 21.52C89.94 20.88 92.22 20.1 97.48 20.02H108.98C110.76 20.02 112.07 20.26 112.9 20.73C114.51 21.62 115.12 22.81 114.79 24.47C114.72 24.84 114.25 26.23 111.96 31.36L93.34 71.82C89.92 79.12 86.88 84.49 84.31 87.81C83.4 89.01 81.88 90.79 79.8 93.11L78.3 94.78H136.74L136.54 93.61C136.14 91.34 136.13 89.25 136.48 87.41C137.17 83.87 138.22 80.56 139.61 77.56L162.03 28.79C163.86 24.97 165.6 22.49 167.17 21.44C168.66 20.5 171.02 20.02 174.16 20.02H185.66C189 20.02 191.19 20.63 192.19 21.83C192.8 22.57 192.97 23.58 192.71 24.93C192.45 26.26 191.78 28.14 190.7 30.52L171.63 71.82C168.27 79.11 165.24 84.48 162.61 87.8C161.68 89.02 160.17 90.8 158.1 93.1L156.6 94.77H214.92L214.75 93.62C214.41 91.34 214.43 89.22 214.8 87.3C215.47 83.88 216.51 80.6 217.91 77.55L236.53 37.09C238.87 32.05 240.24 28.44 240.7 26.05C242.17 18.51 240.68 12.04 236.28 6.83C232.5 2.3 226.62 0 218.81 0H184.89C180.89 0 177.7 0.56 175.42 1.67C173.28 2.67 171.12 4.6 168.85 7.55C168.12 4.88 166.84 2.9 165 1.65C163.29 0.55 160.38 0.01 156.1 0.01H109.07C103.96 0.01 99.94 0.63 97.09 1.86C95.86 2.44 94.59 3.31 93.27 4.5L95.33 0.01H43.09L43.28 1.17C43.66 3.5 43.68 5.62 43.32 7.47C42.65 10.88 41.6 14.19 40.2 17.31L15.04 71.81C11.62 79.1 8.58 84.48 6.01 87.8C5.1 89 3.59 90.78 1.5 93.1L0 94.77H58.32L58.15 93.62Z" fill="#FFF500"/>
</svg>
