<svg width="54" height="52" viewBox="0 0 54 52" fill="none" xmlns="http://www.w3.org/2000/svg">
<path fill-rule="evenodd" clip-rule="evenodd" d="M39.7194 9.96598C40.8004 10.726 37.8874 10.573 36.8954 10.162C37.1264 10.537 35.1714 10.724 35.1604 10.686C35.2024 10.38 35.4034 10.234 35.7184 10.2C34.0954 10.154 33.1044 9.43698 31.0804 10.446C31.0844 10.05 31.7464 10.312 31.8004 9.96598C30.9494 10.043 29.3824 9.74498 28.6804 10.686C27.5624 10.897 28.8424 9.89498 28.2004 9.96598C24.0074 10.329 20.3064 9.18798 15.7204 10.926C15.0774 10.309 16.3634 10.583 15.7204 9.96598C14.4344 10.257 14.0334 9.98298 12.6004 9.96598C11.8604 6.29698 13.7394 2.76198 11.4004 0.365977C11.4004 0.285977 11.4004 0.205977 11.4004 0.125977C9.16036 0.125977 6.92036 0.125977 4.68036 0.125977C3.59236 0.237977 3.66137 1.50698 3.00037 2.04598C3.00037 2.28598 3.00037 3.52598 3.00037 3.76598C4.48837 5.41898 7.40737 4.32998 9.24037 4.72598C9.14237 15.882 -0.574635 27.061 0.720365 37.086C12.1814 37.049 29.6134 37.416 42.2404 36.846C43.6944 29.021 52.9714 20.018 53.6394 11.406C48.9024 9.88598 43.7534 11.468 39.7194 9.96598ZM40.7994 33.926C36.4884 34.034 33.8424 33.246 30.2394 33.686C29.7984 32.943 27.6614 33.198 26.3994 33.686C26.5034 33.391 26.7064 33.194 27.1194 33.207C26.3254 33.241 26.0014 33.339 24.9594 32.727C24.2414 32.754 24.8514 33.615 23.5194 33.448C23.5794 33.187 23.9974 33.285 23.9994 32.968C23.4694 32.973 22.2224 32.814 21.8394 33.688C21.4934 33.634 21.7554 32.972 21.3604 32.968C17.9664 33.102 15.9594 32.505 12.4804 33.688C12.6074 33.496 12.7304 33.298 12.7204 32.968C9.87736 33.042 7.63237 33.17 4.60037 33.208C4.12837 26.11 12.3064 20.843 12.3604 14.568C23.0284 14.601 35.3404 13.843 49.2404 14.088C49.4374 21.088 41.1024 26.626 40.7994 33.926Z" fill="white"/>
<path fill-rule="evenodd" clip-rule="evenodd" d="M27.8956 10.1621C27.8586 10.1011 27.7696 10.0361 27.5996 9.96606C27.6436 10.0361 27.7486 10.1021 27.8956 10.1621Z" fill="white"/>
<path fill-rule="evenodd" clip-rule="evenodd" d="M30.2389 40.9259C27.4849 41.5129 26.9099 44.5379 24.7179 44.7659C24.5959 43.7679 24.4389 44.6889 23.9979 43.8059C21.2479 44.5619 18.9829 43.5569 15.5979 44.0459C10.9159 35.0809 -0.189075 44.0969 5.51793 50.0459C6.29293 50.8549 8.57993 51.2169 9.35793 51.7259C9.67793 51.7259 9.99792 51.7259 10.3179 51.7259C12.1789 51.2049 14.3099 49.9029 15.1179 47.6459C18.3559 46.6089 23.3149 47.5889 26.3979 46.9259C27.5349 48.9089 28.2109 50.4759 29.9979 51.0059C38.3219 53.4779 38.7359 39.1169 30.2389 40.9259ZM9.83893 49.0859C7.42593 48.8829 6.22393 41.6529 11.9989 44.0459C13.0349 45.1199 12.1209 49.2779 9.83893 49.0859ZM30.4799 48.3659C31.0419 47.5059 29.8669 46.6779 29.5189 45.9659C29.4569 43.7339 31.7839 43.4709 33.8389 44.0459C35.8349 46.4289 32.9479 50.4589 30.4799 48.3659Z" fill="white"/>
</svg>
