<svg width="74" height="74" viewBox="0 0 74 74" fill="none" xmlns="http://www.w3.org/2000/svg">
<path d="M55.3502 53.8458C54.9346 53.4302 54.2607 53.4302 53.8451 53.8458C53.4295 54.2615 53.4295 54.9353 53.8451 55.351C54.2607 55.7666 54.9346 55.7666 55.3502 55.351C55.7658 54.9353 55.7658 54.2615 55.3502 53.8458Z" fill="black"/>
<path d="M53.1393 51.633C52.7237 51.2173 52.0498 51.2173 51.6342 51.633C51.2185 52.0486 51.2185 52.7224 51.6342 53.1381C52.0498 53.5537 52.7236 53.5537 53.1393 53.1381C53.5549 52.7224 53.5549 52.0486 53.1393 51.633Z" fill="black"/>
<path d="M50.9264 49.4201C50.5108 49.0044 49.8369 49.0044 49.4213 49.4201C49.0056 49.8357 49.0056 50.5096 49.4213 50.9252C49.8369 51.3408 50.5108 51.3408 50.9264 50.9252C51.342 50.5096 51.342 49.8357 50.9264 49.4201Z" fill="black"/>
<path d="M48.7135 47.2091C48.2979 46.7935 47.624 46.7935 47.2084 47.2091C46.7928 47.6248 46.7928 48.2986 47.2084 48.7142C47.624 49.1299 48.2979 49.1299 48.7135 48.7142C49.1291 48.2986 49.1291 47.6248 48.7135 47.2091Z" fill="black"/>
<path d="M46.5026 44.9962C46.0869 44.5806 45.4131 44.5806 44.9974 44.9962C44.5818 45.4119 44.5818 46.0857 44.9974 46.5013C45.4131 46.917 46.0869 46.917 46.5026 46.5013C46.9182 46.0857 46.9182 45.4119 46.5026 44.9962Z" fill="black"/>
<path d="M44.2897 42.7833C43.874 42.3677 43.2002 42.3677 42.7846 42.7833C42.3689 43.199 42.3689 43.8728 42.7846 44.2885C43.2002 44.7041 43.874 44.7041 44.2897 44.2885C44.7053 43.8728 44.7053 43.199 44.2897 42.7833Z" fill="black"/>
<path d="M42.0768 40.5724C41.6612 40.1568 40.9873 40.1568 40.5717 40.5724C40.156 40.988 40.156 41.6619 40.5717 42.0775C40.9873 42.4931 41.6611 42.4931 42.0768 42.0775C42.4924 41.6619 42.4924 40.988 42.0768 40.5724Z" fill="black"/>
<path d="M39.8658 38.3595C39.4502 37.9439 38.7763 37.9439 38.3607 38.3595C37.9451 38.7751 37.9451 39.449 38.3607 39.8646C38.7763 40.2803 39.4502 40.2803 39.8658 39.8646C40.2815 39.449 40.2815 38.7751 39.8658 38.3595Z" fill="black"/>
<path d="M19.9557 53.8458C19.5401 53.4302 18.8662 53.4302 18.4506 53.8458C18.0349 54.2615 18.0349 54.9353 18.4506 55.351C18.8662 55.7666 19.5401 55.7666 19.9557 55.351C20.3713 54.9353 20.3713 54.2615 19.9557 53.8458Z" fill="black"/>
<path d="M22.1686 51.633C21.7529 51.2173 21.0791 51.2173 20.6635 51.633C20.2478 52.0486 20.2478 52.7224 20.6635 53.1381C21.0791 53.5537 21.7529 53.5537 22.1686 53.1381C22.5842 52.7224 22.5842 52.0486 22.1686 51.633Z" fill="black"/>
<path d="M24.3795 49.422C23.9639 49.0064 23.29 49.0064 22.8744 49.422C22.4588 49.8376 22.4588 50.5115 22.8744 50.9271C23.29 51.3428 23.9639 51.3428 24.3795 50.9271C24.7951 50.5115 24.7951 49.8376 24.3795 49.422Z" fill="black"/>
<path d="M26.5924 47.2091C26.1768 46.7935 25.5029 46.7935 25.0873 47.2091C24.6717 47.6248 24.6717 48.2986 25.0873 48.7142C25.5029 49.1299 26.1768 49.1299 26.5924 48.7142C27.008 48.2986 27.008 47.6248 26.5924 47.2091Z" fill="black"/>
<path d="M28.8053 44.9962C28.3897 44.5806 27.7158 44.5806 27.3002 44.9962C26.8846 45.4119 26.8846 46.0857 27.3002 46.5013C27.7158 46.917 28.3897 46.917 28.8053 46.5013C29.2209 46.0857 29.2209 45.4119 28.8053 44.9962Z" fill="black"/>
<path d="M31.0162 42.7853C30.6006 42.3697 29.9267 42.3697 29.5111 42.7853C29.0955 43.2009 29.0955 43.8748 29.5111 44.2904C29.9267 44.706 30.6006 44.706 31.0162 44.2904C31.4319 43.8748 31.4319 43.2009 31.0162 42.7853Z" fill="black"/>
<path d="M33.2291 40.5724C32.8135 40.1568 32.1396 40.1568 31.724 40.5724C31.3084 40.988 31.3084 41.6619 31.724 42.0775C32.1396 42.4931 32.8135 42.4931 33.2291 42.0775C33.6447 41.6619 33.6447 40.988 33.2291 40.5724Z" fill="black"/>
<path d="M35.442 38.3595C35.0264 37.9439 34.3525 37.9439 33.9369 38.3595C33.5213 38.7751 33.5213 39.449 33.9369 39.8646C34.3525 40.2803 35.0264 40.2803 35.442 39.8646C35.8576 39.449 35.8576 38.7751 35.442 38.3595Z" fill="black"/>
<path d="M37.6529 36.1486C37.2373 35.733 36.5635 35.733 36.1478 36.1486C35.7322 36.5642 35.7322 37.2381 36.1478 37.6537C36.5635 38.0693 37.2373 38.0693 37.6529 37.6537C38.0686 37.2381 38.0686 36.5642 37.6529 36.1486Z" fill="black"/>
<path d="M39.8658 33.9357C39.4502 33.5201 38.7763 33.5201 38.3607 33.9357C37.9451 34.3513 37.9451 35.0252 38.3607 35.4408C38.7763 35.8564 39.4502 35.8564 39.8658 35.4408C40.2815 35.0252 40.2815 34.3513 39.8658 33.9357Z" fill="black"/>
<path d="M42.0787 31.7228C41.6631 31.3072 40.9892 31.3072 40.5736 31.7228C40.158 32.1384 40.158 32.8123 40.5736 33.2279C40.9892 33.6435 41.6631 33.6435 42.0787 33.2279C42.4944 32.8123 42.4944 32.1384 42.0787 31.7228Z" fill="black"/>
<path d="M44.2897 29.5119C43.874 29.0962 43.2002 29.0962 42.7846 29.5119C42.3689 29.9275 42.3689 30.6013 42.7846 31.017C43.2002 31.4326 43.874 31.4326 44.2897 31.017C44.7053 30.6013 44.7053 29.9275 44.2897 29.5119Z" fill="black"/>
<path d="M46.5026 27.299C46.0869 26.8833 45.4131 26.8833 44.9974 27.299C44.5818 27.7146 44.5818 28.3885 44.9974 28.8041C45.4131 29.2197 46.0869 29.2197 46.5026 28.8041C46.9182 28.3885 46.9182 27.7146 46.5026 27.299Z" fill="black"/>
<path d="M48.7154 25.0861C48.2998 24.6705 47.626 24.6705 47.2103 25.0861C46.7947 25.5017 46.7947 26.1756 47.2103 26.5912C47.626 27.0068 48.2998 27.0068 48.7154 26.5912C49.1311 26.1756 49.1311 25.5017 48.7154 25.0861Z" fill="black"/>
<path d="M50.9264 22.8751C50.5108 22.4595 49.8369 22.4595 49.4213 22.8751C49.0056 23.2908 49.0056 23.9646 49.4213 24.3803C49.8369 24.7959 50.5108 24.7959 50.9264 24.3803C51.342 23.9646 51.342 23.2908 50.9264 22.8751Z" fill="black"/>
<path d="M53.1393 20.6622C52.7237 20.2466 52.0498 20.2466 51.6342 20.6622C51.2185 21.0779 51.2185 21.7517 51.6342 22.1674C52.0498 22.583 52.7236 22.583 53.1393 22.1674C53.5549 21.7517 53.5549 21.0779 53.1393 20.6622Z" fill="black"/>
<path d="M55.3522 18.4494C54.9365 18.0337 54.2627 18.0337 53.8471 18.4494C53.4314 18.865 53.4314 19.5388 53.8471 19.9545C54.2627 20.3701 54.9365 20.3701 55.3522 19.9545C55.7678 19.5388 55.7678 18.865 55.3522 18.4494Z" fill="black"/>
<path d="M35.4401 33.9357C35.0244 33.5201 34.3506 33.5201 33.9349 33.9357C33.5193 34.3513 33.5193 35.0252 33.9349 35.4408C34.3506 35.8564 35.0244 35.8564 35.4401 35.4408C35.8557 35.0252 35.8557 34.3513 35.4401 33.9357Z" fill="black"/>
<path d="M33.2291 31.7228C32.8135 31.3072 32.1396 31.3072 31.724 31.7228C31.3084 32.1384 31.3084 32.8123 31.724 33.2279C32.1396 33.6435 32.8135 33.6435 33.2291 33.2279C33.6447 32.8123 33.6447 32.1384 33.2291 31.7228Z" fill="black"/>
<path d="M31.0162 29.5119C30.6006 29.0962 29.9267 29.0962 29.5111 29.5119C29.0955 29.9275 29.0955 30.6013 29.5111 31.017C29.9267 31.4326 30.6006 31.4326 31.0162 31.017C31.4319 30.6013 31.4319 29.9275 31.0162 29.5119Z" fill="black"/>
<path d="M28.8033 27.299C28.3877 26.8833 27.7138 26.8833 27.2982 27.299C26.8826 27.7146 26.8826 28.3885 27.2982 28.8041C27.7138 29.2197 28.3877 29.2197 28.8033 28.8041C29.219 28.3885 29.219 27.7146 28.8033 27.299Z" fill="black"/>
<path d="M26.5924 25.0861C26.1768 24.6705 25.5029 24.6705 25.0873 25.0861C24.6717 25.5017 24.6717 26.1756 25.0873 26.5912C25.5029 27.0068 26.1768 27.0068 26.5924 26.5912C27.008 26.1756 27.008 25.5017 26.5924 25.0861Z" fill="black"/>
<path d="M24.3795 22.8751C23.9639 22.4595 23.29 22.4595 22.8744 22.8751C22.4588 23.2908 22.4588 23.9646 22.8744 24.3803C23.29 24.7959 23.9639 24.7959 24.3795 24.3803C24.7951 23.9646 24.7951 23.2908 24.3795 22.8751Z" fill="black"/>
<path d="M22.1666 20.6622C21.751 20.2466 21.0771 20.2466 20.6615 20.6622C20.2459 21.0779 20.2459 21.7517 20.6615 22.1674C21.0771 22.583 21.751 22.583 22.1666 22.1674C22.5822 21.7517 22.5822 21.0779 22.1666 20.6622Z" fill="black"/>
<path d="M19.9557 18.4494C19.5401 18.0337 18.8662 18.0337 18.4506 18.4494C18.0349 18.865 18.0349 19.5388 18.4506 19.9545C18.8662 20.3701 19.5401 20.3701 19.9557 19.9545C20.3713 19.5388 20.3713 18.865 19.9557 18.4494Z" fill="black"/>
</svg>
