<svg width="200" height="200" viewBox="0 0 200 200" fill="none" xmlns="http://www.w3.org/2000/svg">
<path d="M40.4676 87.4431H43.6062V98.6002H47.6383V73.5664H43.6062V83.6522H40.4676V73.5664H36.4355V98.6002H40.4676V87.4431Z" fill="white"/>
<path d="M53.6688 73.5664H49.6367V98.6002H53.6688V73.5664Z" fill="white"/>
<path d="M59.698 89.5883H62.1963C65.7999 89.5883 66.728 88.4076 66.728 84.5106V78.6451C66.728 74.7116 65.7999 73.5674 62.1963 73.5674H55.666V98.6012H59.698V89.5883ZM59.698 77.3583H61.4105C62.5885 77.3583 62.7308 77.7878 62.7308 79.1824V83.9749C62.7308 85.3331 62.5885 85.799 61.4105 85.799H59.698V77.3599V77.3583Z" fill="white"/>
<path d="M40.4676 116.321H43.6062V127.48H47.6383V102.446H43.6062V112.531H40.4676V102.446H36.4355V127.48H40.4676V116.321Z" fill="white"/>
<path d="M54.0255 127.476H56.0952C59.6988 127.476 60.6617 126.332 60.6617 122.399V107.164C60.6617 103.23 59.6988 102.086 56.0952 102.086H54.0255C50.3856 102.086 49.459 103.23 49.459 107.164V122.399C49.459 126.332 50.3871 127.476 54.0255 127.476ZM53.491 107.699C53.491 106.305 53.5985 105.875 54.7749 105.875H55.3458C56.5237 105.875 56.6297 106.305 56.6297 107.699V121.861C56.6297 123.256 56.5222 123.685 55.3458 123.685H54.7749C53.597 123.685 53.491 123.256 53.491 121.861V107.699Z" fill="white"/>
<path d="M62.4805 127.48H66.5125V118.467H69.0108C72.6143 118.467 73.5425 117.287 73.5425 113.389V107.524C73.5425 103.591 72.6143 102.446 69.0108 102.446H62.4805V127.48ZM66.5125 106.057H68.2249C69.4029 106.057 69.5452 106.486 69.5452 107.881V112.673C69.5452 114.031 69.4029 114.497 68.2249 114.497H66.5125V106.058V106.057Z" fill="white"/>
<path d="M108.624 127.423C112.595 127.423 116.451 126.223 119.713 124.014C118.091 122.776 116.6 121.375 115.265 119.833C113.237 120.934 110.95 121.527 108.624 121.527C104.774 121.527 101.283 119.958 98.7546 117.422C98.4384 117.105 98.138 116.774 97.8534 116.429C95.8595 114.009 94.6609 110.907 94.6609 107.532V106.612H88.8105V107.533C88.8105 113.017 91.0321 117.99 94.6198 121.59C98.2076 125.193 103.161 127.423 108.623 127.423H108.624Z" fill="white"/>
<path d="M98.0967 98.3493C100.756 95.2906 104.594 93.5362 108.626 93.5362C108.626 93.5362 108.629 93.5362 108.631 93.5362C108.631 93.5362 108.634 93.5362 108.635 93.5362C108.714 93.5362 108.795 93.541 108.874 93.5426C109.303 93.5505 109.73 93.5727 110.156 93.6202C110.577 93.6662 110.994 93.7343 111.409 93.8183C111.409 93.8183 111.409 93.8183 111.409 93.8199C111.474 93.8326 111.538 93.8421 111.603 93.8563C111.848 93.9102 112.093 93.9705 112.335 94.037C112.585 94.1067 112.829 94.1796 113.056 94.2573C113.738 94.4871 114.399 94.7676 115.036 95.1004C115.664 95.4269 116.268 95.8025 116.843 96.2241C116.914 96.2764 116.981 96.3287 117.05 96.3794C117.207 96.4982 117.359 96.6171 117.499 96.7328C117.715 96.9103 117.933 97.1036 118.151 97.3065C118.156 97.3113 118.16 97.316 118.165 97.3208C118.165 97.3192 118.165 97.316 118.165 97.3144C118.538 97.6647 118.891 98.0339 119.221 98.4175C119.242 98.4412 119.261 98.465 119.282 98.4888C119.81 99.1116 120.281 99.7756 120.692 100.479C120.82 100.698 120.942 100.92 121.057 101.145C121.06 101.151 121.063 101.156 121.067 101.162C121.185 101.394 121.299 101.628 121.405 101.868C122.199 103.657 122.6 105.562 122.6 107.532C122.6 108.589 122.482 109.633 122.249 110.652C123.483 112.511 125.043 114.131 126.847 115.434C127.932 112.938 128.482 110.283 128.482 107.533C128.482 105.091 128.035 102.722 127.183 100.482C126.938 99.839 126.659 99.2067 126.346 98.5839C125.714 97.3303 124.941 96.1448 124.055 95.0481C123.808 94.7438 123.557 94.4427 123.293 94.1527C123.121 93.9625 122.944 93.7755 122.763 93.5917C122.26 93.0782 121.729 92.5932 121.174 92.1368C121.007 91.9989 120.837 91.8642 120.667 91.7327C120.501 91.6043 120.327 91.4807 120.154 91.3571C120.093 91.3127 120.034 91.2667 119.972 91.224C119.737 91.0591 119.498 90.8975 119.263 90.7469C119.209 90.7121 119.153 90.6804 119.098 90.6455C118.662 90.3729 118.217 90.1162 117.762 89.88C117.752 89.8753 117.743 89.8705 117.734 89.8658C116.881 89.4236 115.999 89.0448 115.093 88.731C114.829 88.6391 114.557 88.552 114.283 88.4711C114.022 88.3935 113.76 88.3222 113.498 88.2556C113.485 88.2524 113.471 88.2477 113.458 88.2445C113.05 88.1415 112.639 88.0543 112.225 87.9782C111.79 87.899 111.352 87.834 110.914 87.7833C110.161 87.6961 109.402 87.6518 108.642 87.6518C105.969 87.6518 103.305 88.2017 100.853 89.2509L100.856 89.2382C100.856 89.2382 100.85 89.2413 100.845 89.2429V89.2398C100.845 89.2398 100.839 89.2429 100.835 89.2429L102.72 79.4361H120.643L120.635 79.4456C120.535 79.5264 120.436 79.6072 120.338 79.6896C120.293 79.7277 120.246 79.7641 120.202 79.8022C120.181 79.8196 120.161 79.837 120.14 79.8545C119.958 80.0082 119.78 80.1651 119.602 80.3236C119.596 80.3299 119.588 80.3362 119.582 80.3426C119.576 80.3489 119.569 80.3537 119.563 80.36C119.558 80.3648 119.553 80.3695 119.547 80.3743C119.245 80.6453 118.951 80.9258 118.663 81.2111C118.453 81.4187 118.244 81.6295 118.04 81.845C117.982 81.9068 117.92 81.9686 117.862 82.0304C117.854 82.0383 117.846 82.0478 117.838 82.0558C117.601 82.3093 117.373 82.5724 117.145 82.8355C117.024 82.9765 116.903 83.1208 116.785 83.265C116.641 83.4393 116.499 83.6136 116.359 83.7927C116.241 83.9433 116.125 84.0939 116.012 84.246C115.846 84.4663 115.68 84.6897 115.52 84.9148C115.48 84.9718 115.439 85.0273 115.398 85.0859C115.379 85.1145 115.36 85.1446 115.341 85.1731C115.132 85.4774 114.927 85.7833 114.729 86.0955C114.729 86.0955 114.729 86.0971 114.728 86.0986C114.804 86.1208 114.884 86.1399 114.959 86.162C115.265 86.254 115.572 86.3522 115.868 86.4536C117.433 86.9941 118.94 87.7152 120.352 88.5947C121.212 87.3507 122.202 86.2032 123.302 85.1731C123.302 85.1731 123.302 85.1731 123.304 85.1715C123.486 85.002 123.672 84.8371 123.861 84.6755C123.905 84.6374 123.948 84.5962 123.992 84.5582C124.005 84.5471 124.017 84.536 124.031 84.5249C124.073 84.4901 124.117 84.4568 124.159 84.4203C124.341 84.2682 124.523 84.1176 124.71 83.9718C124.711 83.9718 124.713 83.9686 124.714 83.9671C124.74 83.9465 124.765 83.9259 124.792 83.9068C124.941 83.7911 125.094 83.6802 125.247 83.5693C125.32 83.517 125.391 83.4615 125.464 83.4092C125.466 83.4092 125.467 83.4076 125.469 83.406C125.507 83.3791 125.546 83.3506 125.584 83.3236C125.584 83.3236 125.586 83.3236 125.587 83.322C125.679 83.2571 125.775 83.1953 125.869 83.1334C125.997 83.0463 126.123 82.9591 126.251 82.8751C126.302 82.8418 126.353 82.8086 126.405 82.7769C126.405 82.7769 126.408 82.7769 126.408 82.7753C126.621 82.639 126.84 82.5074 127.058 82.3791C127.058 82.3791 127.061 82.3775 127.063 82.3759C127.126 82.3379 127.191 82.3014 127.255 82.265C127.255 82.265 127.259 82.2634 127.26 82.2618C127.47 82.1413 127.684 82.0257 127.899 81.9131C127.899 81.9131 127.902 81.9131 127.904 81.9116C127.942 81.8909 127.978 81.8703 128.016 81.8513C128.056 81.8307 128.095 81.8133 128.135 81.7927C128.136 81.7927 128.138 81.7911 128.139 81.7895C128.225 81.7451 128.313 81.7055 128.399 81.6627C128.522 81.6025 128.644 81.5407 128.767 81.4821C128.857 81.4393 128.947 81.3997 129.039 81.3585C129.143 81.3109 129.246 81.2618 129.352 81.2158C129.453 81.173 129.556 81.1318 129.657 81.0906C129.762 81.0478 129.866 81.0082 129.97 80.967C129.972 80.967 129.975 80.9654 129.977 80.9638C130.051 80.9353 130.125 80.9084 130.2 80.8798C130.323 80.8323 130.446 80.7847 130.571 80.7404C130.688 80.6992 130.808 80.6595 130.927 80.6199C130.93 80.6199 130.932 80.6183 130.935 80.6168C131.125 80.5534 131.314 80.49 131.506 80.4313C131.506 80.4313 131.507 80.4313 131.509 80.4313C131.626 80.3965 131.744 80.3632 131.861 80.3299C131.877 80.3251 131.893 80.322 131.907 80.3172C132.094 80.2649 132.28 80.2126 132.469 80.1651C132.616 80.1286 132.766 80.0953 132.915 80.0621C133.093 80.0209 133.27 79.9797 133.449 79.9432C133.613 79.9099 133.779 79.883 133.945 79.8545C133.95 79.8545 133.957 79.8529 133.961 79.8513C134.058 79.8339 134.156 79.818 134.254 79.8006C134.319 79.7895 134.383 79.7768 134.45 79.7673C134.633 79.7403 134.818 79.7197 135.003 79.696C135.005 79.696 135.006 79.696 135.008 79.696C135.016 79.696 135.022 79.6944 135.03 79.6928C135.174 79.6754 135.318 79.6548 135.463 79.6405C135.463 79.6405 135.465 79.6405 135.467 79.6405C135.686 79.6183 135.908 79.6041 136.129 79.5898C136.142 79.5898 136.154 79.5882 136.167 79.5866C136.278 79.5787 136.387 79.5676 136.497 79.5628C136.497 79.5628 136.499 79.5628 136.501 79.5628C136.849 79.5454 137.198 79.5359 137.551 79.5359C137.903 79.5359 138.253 79.5454 138.6 79.5628C138.6 79.5628 138.602 79.5628 138.604 79.5628C138.687 79.5676 138.77 79.5739 138.852 79.5803C138.891 79.5834 138.933 79.5866 138.972 79.5898C139.193 79.6041 139.416 79.6183 139.635 79.6405C139.646 79.6405 139.658 79.6405 139.671 79.6437C139.813 79.6579 139.952 79.6801 140.093 79.6976C140.16 79.7055 140.228 79.7134 140.294 79.7213C140.297 79.7213 140.3 79.7213 140.303 79.7213C140.42 79.7372 140.537 79.7499 140.653 79.7673C140.653 79.7673 140.654 79.7673 140.656 79.7673C140.819 79.7911 140.98 79.8228 141.141 79.8513C141.146 79.8513 141.151 79.8529 141.157 79.8545C141.165 79.8545 141.171 79.8576 141.179 79.8576C141.183 79.8576 141.186 79.8576 141.189 79.8576C141.344 79.8846 141.5 79.9099 141.654 79.9416C141.709 79.9527 141.764 79.9638 141.82 79.9749C141.943 80.0003 142.065 80.032 142.188 80.0605C142.337 80.0938 142.485 80.127 142.634 80.1635C142.822 80.211 143.009 80.2633 143.195 80.3156C143.328 80.3537 143.463 80.3901 143.594 80.4297C143.594 80.4297 143.595 80.4297 143.597 80.4297C143.79 80.4884 143.98 80.5518 144.169 80.6152C144.173 80.6152 144.174 80.6168 144.177 80.6183C144.296 80.658 144.414 80.6976 144.533 80.7388C144.533 80.7388 144.535 80.7388 144.536 80.7388C144.735 80.8101 144.933 80.8846 145.129 80.9622C145.131 80.9622 145.134 80.9622 145.136 80.9638C145.24 81.005 145.344 81.0447 145.449 81.0874C145.657 81.173 145.863 81.2634 146.068 81.3553C146.159 81.3965 146.25 81.4361 146.34 81.4789C146.426 81.5185 146.508 81.5613 146.592 81.6009C146.718 81.6627 146.845 81.7214 146.97 81.7848C146.97 81.7848 146.973 81.7848 146.974 81.7863C147.052 81.826 147.129 81.8656 147.207 81.9052C147.207 81.9052 147.208 81.9052 147.21 81.9068C147.316 81.9623 147.419 82.0209 147.523 82.078C147.632 82.1382 147.744 82.1968 147.852 82.2586C147.917 82.2951 147.98 82.3315 148.045 82.3696C148.097 82.3997 148.146 82.433 148.198 82.4631C148.367 82.5629 148.535 82.6643 148.701 82.7689C148.701 82.7689 148.703 82.7689 148.704 82.7705C148.755 82.8038 148.807 82.8355 148.858 82.8688C149.057 82.9972 149.251 83.1303 149.446 83.265C149.471 83.2824 149.498 83.2999 149.523 83.3173C149.523 83.3173 149.525 83.3173 149.526 83.3189C149.566 83.3458 149.604 83.3743 149.642 83.4013C149.642 83.4013 149.645 83.4029 149.645 83.4045C149.871 83.5661 150.096 83.7309 150.314 83.9021C150.314 83.9021 150.315 83.9021 150.315 83.9037C150.341 83.9243 150.366 83.9449 150.393 83.9639C150.393 83.9639 150.396 83.9655 150.398 83.9671C150.564 84.097 150.725 84.2317 150.888 84.3664C150.95 84.4187 151.014 84.4679 151.076 84.5202C151.089 84.5313 151.101 84.5424 151.116 84.5535C151.258 84.6755 151.397 84.8039 151.536 84.9291C151.625 85.0083 151.715 85.0859 151.803 85.1668C151.803 85.1668 151.803 85.1668 151.805 85.1668C154.958 88.1161 157.205 92.0243 158.07 96.4269C158.193 97.0561 158.289 97.6948 158.354 98.3414C158.425 99.045 158.462 99.7582 158.462 100.481C158.462 112.036 149.084 121.435 137.555 121.435C133.776 121.435 130.231 120.42 127.168 118.654C126.912 118.507 126.659 118.355 126.411 118.196C126.161 118.038 125.915 117.876 125.673 117.706C123.998 116.543 122.502 115.142 121.233 113.551C121.024 113.289 120.822 113.023 120.626 112.752C120.418 112.465 120.219 112.174 120.026 111.877C118.481 109.499 117.401 106.788 116.924 103.879C116.856 103.464 116.801 103.044 116.756 102.619C116.685 101.915 116.649 101.202 116.649 100.479C116.649 100.059 116.665 99.6425 116.69 99.2289C116.635 99.175 116.581 99.1179 116.524 99.0656C116.344 98.8961 116.162 98.736 115.983 98.5886C115.817 98.4507 115.634 98.3097 115.439 98.1671C114.478 97.4634 113.425 96.9166 112.307 96.541C112.123 96.4792 111.923 96.4174 111.711 96.3588C111.508 96.3033 111.304 96.2526 111.105 96.2098C111.047 96.1971 110.987 96.1876 110.928 96.1765C110.704 97.5791 110.585 99.0165 110.585 100.482C110.585 100.517 110.585 100.552 110.587 100.589C110.591 101.717 110.662 102.83 110.802 103.922C110.919 104.842 111.081 105.747 111.29 106.638C112.188 110.492 113.913 114.03 116.263 117.058C116.443 117.291 116.628 117.522 116.818 117.749C117.006 117.977 117.201 118.201 117.395 118.421C118.711 119.904 120.186 121.242 121.794 122.408C122.039 122.586 122.287 122.76 122.539 122.93C122.792 123.099 123.048 123.266 123.306 123.428C127.444 126.019 132.328 127.52 137.557 127.52C152.43 127.52 164.529 115.392 164.529 100.484C164.529 99.3192 164.454 98.1718 164.312 97.045C164.271 96.7201 164.222 96.3984 164.17 96.0767C164.154 95.98 164.137 95.8849 164.119 95.7882C164.078 95.5553 164.034 95.3239 163.988 95.0925C163.967 94.9927 163.949 94.8944 163.926 94.7961C163.866 94.5188 163.803 94.2415 163.735 93.9673C163.726 93.9292 163.718 93.8896 163.708 93.8516C163.631 93.5441 163.545 93.2383 163.457 92.934C163.43 92.8389 163.4 92.7454 163.371 92.6519C163.305 92.4348 163.239 92.2192 163.167 92.0053C163.133 91.9023 163.099 91.7992 163.065 91.6978C162.984 91.4633 162.9 91.2303 162.813 90.9989C162.788 90.9323 162.764 90.8642 162.739 90.7992C162.628 90.5108 162.513 90.2271 162.393 89.9434C162.353 89.8499 162.312 89.758 162.271 89.6645C162.184 89.4664 162.095 89.2683 162.004 89.0718C161.955 88.9672 161.906 88.8642 161.857 88.7611C161.759 88.5583 161.657 88.357 161.555 88.1557C161.513 88.0749 161.474 87.9941 161.431 87.9149C161.291 87.647 161.145 87.3823 160.995 87.1193C160.947 87.0353 160.897 86.9513 160.848 86.8673C160.737 86.6787 160.625 86.4901 160.511 86.3047C160.451 86.208 160.392 86.1129 160.331 86.0178C160.211 85.8292 160.089 85.6422 159.966 85.4584C159.915 85.3839 159.866 85.3078 159.815 85.2318C159.801 85.2111 159.785 85.1905 159.771 85.1699C159.611 84.9386 159.45 84.7088 159.284 84.4837C159.061 84.1794 158.83 83.8799 158.595 83.5851C158.539 83.517 158.482 83.4504 158.427 83.3839C158.245 83.1604 158.06 82.9401 157.872 82.723C157.674 82.4963 157.475 82.2713 157.271 82.0526C157.265 82.0463 157.26 82.0399 157.254 82.0336C157.105 81.8751 156.952 81.723 156.8 81.5692C156.492 81.2539 156.175 80.9448 155.851 80.6453C155.75 80.5518 155.652 80.4535 155.548 80.36C155.541 80.3553 155.537 80.3505 155.53 80.3442C155.345 80.1778 155.159 80.0145 154.969 79.8545C154.95 79.8386 154.929 79.8212 154.91 79.8053C154.82 79.7293 154.727 79.6548 154.635 79.5787C154.533 79.4947 154.431 79.4075 154.327 79.3251C154.324 79.322 154.319 79.3188 154.314 79.3156C154.276 79.2855 154.237 79.2554 154.197 79.2253C153.832 78.9368 153.459 78.6563 153.078 78.3869C153.067 78.379 153.056 78.3711 153.045 78.3631C153.029 78.352 153.013 78.341 152.996 78.3299C152.804 78.1951 152.611 78.0636 152.417 77.9352C152.381 77.9115 152.346 77.8877 152.309 77.8639C152.123 77.7419 151.935 77.6214 151.745 77.5026C151.716 77.4851 151.686 77.4661 151.658 77.4471C151.217 77.1745 150.768 76.9146 150.311 76.6674C150.282 76.6531 150.255 76.6373 150.227 76.623C150.11 76.5596 149.991 76.501 149.874 76.4392C149.797 76.3995 149.721 76.3583 149.642 76.3187C149.588 76.2918 149.536 76.2648 149.482 76.2395C149.345 76.1713 149.206 76.1048 149.066 76.0398C149.024 76.0192 148.983 75.9986 148.941 75.9796C148.889 75.9542 148.837 75.9304 148.783 75.9051C148.744 75.8876 148.704 75.8702 148.665 75.8528C148.488 75.772 148.309 75.6911 148.129 75.6135C148.116 75.6087 148.103 75.6024 148.091 75.5976C147.852 75.4962 147.612 75.3979 147.37 75.3029C147.33 75.287 147.291 75.2727 147.251 75.2585C147.057 75.1824 146.861 75.1095 146.663 75.0382C146.593 75.0128 146.525 74.9891 146.456 74.9653C146.418 74.951 146.378 74.9399 146.339 74.9257C146.204 74.8797 146.07 74.8322 145.934 74.7878C145.861 74.764 145.789 74.7402 145.716 74.7165C145.526 74.6562 145.333 74.5976 145.142 74.5406C145.09 74.5247 145.039 74.5089 144.987 74.4946C144.826 74.4486 144.661 74.4058 144.498 74.3615C144.415 74.3393 144.331 74.3155 144.247 74.2933C144.201 74.2806 144.154 74.2711 144.108 74.2585C143.909 74.2077 143.709 74.1602 143.508 74.1142C143.426 74.0952 143.344 74.0778 143.262 74.0604C143.184 74.0429 143.105 74.0287 143.028 74.0112C142.936 73.9922 142.844 73.9716 142.751 73.9542C142.663 73.9367 142.576 73.9193 142.487 73.9035C142.489 73.9035 142.492 73.9035 142.493 73.9035C142.308 73.8686 142.122 73.8369 141.935 73.8068C141.897 73.8004 141.859 73.7925 141.82 73.7862C141.79 73.7814 141.758 73.7767 141.728 73.7719C141.549 73.7434 141.369 73.718 141.187 73.6943C141.184 73.6943 141.181 73.6943 141.178 73.6943C141.105 73.6847 141.034 73.6737 140.961 73.6641C140.93 73.661 140.9 73.6578 140.868 73.6531C140.68 73.6293 140.492 73.6071 140.303 73.5881C140.3 73.5881 140.297 73.5881 140.294 73.5881C140.261 73.5849 140.226 73.5817 140.191 73.5786C140.107 73.5706 140.024 73.5643 139.94 73.5564C139.85 73.5485 139.759 73.5389 139.669 73.5326C139.582 73.5263 139.494 73.5199 139.405 73.5152C139.314 73.5088 139.22 73.5025 139.129 73.4977C138.948 73.4866 138.766 73.4787 138.585 73.4724C138.502 73.4692 138.42 73.466 138.338 73.4629C138.336 73.4629 138.335 73.4629 138.333 73.4629C138.213 73.4597 138.093 73.4597 137.971 73.4565C137.845 73.4549 137.717 73.4502 137.59 73.4502C137.576 73.4502 137.563 73.4502 137.549 73.4502C137.535 73.4502 137.522 73.4502 137.508 73.4502C137.38 73.4502 137.252 73.4534 137.122 73.4565C137.003 73.4581 136.883 73.4581 136.765 73.4629C136.676 73.466 136.588 73.4692 136.499 73.4724C136.324 73.4787 136.15 73.4866 135.976 73.4977C135.878 73.5041 135.781 73.5104 135.683 73.5168C135.569 73.5247 135.457 73.5342 135.343 73.5437C135.305 73.5469 135.267 73.55 135.229 73.5532C135.21 73.5548 135.19 73.5564 135.171 73.558C135.081 73.5659 134.991 73.5738 134.902 73.5817C134.687 73.6023 134.474 73.6261 134.262 73.6531C134.219 73.6578 134.176 73.6626 134.135 73.6673C134.137 73.6673 134.138 73.6673 134.14 73.6673C134.172 73.6641 134.202 73.661 134.233 73.6562C134.458 73.6293 134.682 73.6039 134.908 73.5817C134.992 73.5738 135.076 73.5675 135.16 73.5595C135.18 73.558 135.201 73.5564 135.223 73.5532H97.8769L97.7062 74.4629L93.0527 98.671H97.8216L98.0951 98.3557L98.0967 98.3493Z" fill="white"/>
<path d="M27 64.0111V136.989L174 137V64L27 64.0111ZM79.2915 133.19H30.7917V67.8115H79.2931V133.19H79.2915ZM170.208 133.201H83.1196V67.8004H170.208V133.203V133.201Z" fill="white"/>
</svg>
