<svg width="200" height="200" viewBox="0 0 200 200" fill="none" xmlns="http://www.w3.org/2000/svg">
<g clip-path="url(#clip0_1742_2110)">
<path d="M164.68 84.1338C164.016 84.1338 163.617 84.6671 163.617 85.2005V93.0671H184.336L174.906 84.1338H164.68Z" fill="white"/>
<path d="M185 95.4671C185 94.8004 184.469 94.4004 183.937 94.4004H176.102V115.2L185 105.734V95.4671Z" fill="white"/>
<path d="M173.711 115.867C174.375 115.867 174.773 115.334 174.773 114.8V106.934H154.055L163.484 115.867H173.711Z" fill="white"/>
<path d="M153.391 104.534C153.391 105.2 153.922 105.6 154.453 105.6H162.289V84.9336L153.391 94.4003V104.534Z" fill="white"/>
<path d="M58.6953 87.8672V97.4672H45.4141V87.8672H40.6328V112.134H45.4141V101.734H58.6953V112.134H63.6094V87.8672H58.6953Z" fill="white"/>
<path d="M123.109 87.8672V112.001H144.359L141.703 107.867H128.023V101.734H141.172V97.6005H128.023V92.1339H141.57L144.227 87.8672H123.109Z" fill="white"/>
<path d="M22.5703 87.8672C17.5234 87.8672 15 90.9339 15 95.4672V104.534C15 109.734 18.3203 112.134 22.5703 112.134H37.7109L34.9219 107.601H23.5C21.1094 107.601 20.0469 106.667 20.0469 104.001V95.8672C20.0469 93.2005 20.9766 92.1339 23.6328 92.1339H35.0547L37.7109 87.8672H22.5703Z" fill="white"/>
<path d="M101.859 87.8672C98.9375 87.8672 96.0156 89.6005 96.0156 94.1339V95.3339C96.0156 100.001 98.9375 101.867 101.727 101.867H111.82C112.883 101.867 113.68 102.001 113.68 103.867V105.867C113.68 107.467 112.883 107.867 111.688 107.867H98.4062L95.75 112.134H112.086C116.07 112.134 118.727 110.134 118.727 105.601V104.001C118.727 99.6005 116.203 97.6005 112.352 97.6005H102.656C101.594 97.6005 100.797 97.3339 100.797 95.7339V93.8672C100.797 92.5339 101.328 92.0005 102.523 92.0005H115.141L117.797 87.8672H101.859Z" fill="white"/>
<path d="M77.6875 87.8672L66.2656 112.001H71.7109L73.9688 107.067H86.3203L88.5781 112.001H94.0234L82.4688 87.8672H77.6875ZM79.9453 92.9339L84.3281 102.934H75.5625L79.9453 92.9339Z" fill="white"/>
</g>
<defs>
<clipPath id="clip0_1742_2110">
<rect width="170" height="32" fill="white" transform="translate(15 84)"/>
</clipPath>
</defs>
</svg>
