<svg width="200" height="200" viewBox="0 0 200 200" fill="none" xmlns="http://www.w3.org/2000/svg">
<path d="M119.883 118.092V114.177H130.954V109.587H119.883V105.807H134.735V101.217H114.752V115.797V121.062H116.372H116.912C118.668 121.062 119.883 119.712 119.883 118.092Z" fill="white"/>
<path d="M90.179 117.55L86.3984 121.331L87.4786 122.411L87.8837 122.816C89.0988 123.896 90.8541 123.896 92.0692 122.681L94.9046 119.846L102.736 127.676L105.976 124.436L98.145 116.605L100.845 113.905L111.377 124.436L114.617 121.196L100.575 107.155L90.179 117.55Z" fill="white"/>
<path d="M71.5431 101.217H66.2773V102.837V103.377C66.4124 104.997 67.6275 106.212 69.2477 106.212H73.1632V117.282H77.7539V106.212H81.5343V121.062H86.125V101.082L71.5431 101.217Z" fill="white"/>
<path d="M66.1449 72.7305L65.0648 73.9455L64.6597 74.3506C63.5796 75.5656 63.5796 77.3206 64.7948 78.5356L67.6301 81.3707L59.6641 89.2009L62.9045 92.4409L70.7356 84.6108L73.436 87.3108L62.9045 97.841L66.1449 101.081L80.1868 87.0408L69.7904 76.6455L66.1449 72.7305Z" fill="white"/>
<path d="M66.2773 72.5947H86.2601V57.8794V52.6143H84.6398H84.0998C82.4795 52.7493 81.2644 53.9643 81.2644 55.5843V59.4994H70.1929V64.0895H81.2644V67.8696H66.4124V72.5947H66.2773Z" fill="white"/>
<path d="M110.837 56.2602L114.617 52.4801L113.537 51.4001L113.132 50.9951C111.917 49.9151 110.162 49.9151 108.947 51.1301L106.111 53.9652L98.28 46L95.0396 49.2401L102.871 57.0702L100.17 59.7703L89.6389 49.2401L86.3984 52.4801L100.44 66.5205L110.837 56.2602Z" fill="white"/>
<path d="M129.473 72.5955H134.738V70.9755V70.4354C134.603 68.8154 133.388 67.6004 131.768 67.6004H127.852V56.5301H123.262V67.6004H119.481V52.75H114.891V72.7305H129.473V72.5955Z" fill="white"/>
<path d="M134.87 100.946L135.95 99.8661L136.355 99.461C137.435 98.246 137.435 96.491 136.22 95.276L133.385 92.4409L141.216 84.6107L137.975 81.3707L130.279 89.2008L127.579 86.5008L138.11 75.9705L134.87 72.7305L120.828 86.9057L131.225 97.3009L134.87 100.946Z" fill="white"/>
<path d="M125.012 76.7794H110.7V62.334L100.573 72.4592L90.447 62.334V76.6444H76L80.1855 80.8294L86.1263 86.7696L76 96.8948H90.312V111.205L100.438 101.08L110.565 111.205V97.0298H124.877L114.75 86.9046L125.012 76.7794ZM114.885 92.8447H106.514V101.215L100.573 95.2748L94.6325 101.215V92.8447H86.2614L92.2022 86.9046L86.2614 80.9644H94.6325V72.5943L100.573 78.5343L106.514 72.5943V80.9644H114.885L108.945 86.9046L114.885 92.8447Z" fill="white"/>
<path d="M115.02 92.7089H106.649V101.079L100.708 95.1389L94.7675 101.079V92.7089H86.3964L92.3372 86.7688L86.3964 80.8287H94.7675V72.4584L100.708 78.3986L106.649 72.4584V80.8287H115.02L109.08 86.7688L115.02 92.7089ZM125.147 76.6435H110.7V62.1982L100.573 72.3235L90.447 62.1982V76.5085H76L80.1855 80.6937L86.1263 86.6337L76 96.759H90.312V111.204L100.438 101.079L110.565 111.204V97.029H125.012L115.02 86.7688L125.147 76.6435Z" fill="white"/>
<path d="M57.1131 135.07C57.0189 134.169 56.9246 132.69 56.9246 131.928H47.1708V132.205C48.8199 132.344 49.0085 132.482 49.0085 134.562V144.243C49.0085 146.322 48.82 146.484 47.0059 146.623V146.9H52.9665V146.623C51.0347 146.484 50.8461 146.322 50.8461 144.243V139.668H53.3907C55.5346 139.668 55.676 140.084 55.9116 141.516H56.2179V137.381H55.9116C55.6996 138.767 55.5346 139.113 53.3907 139.113H50.8461V133.129C50.8461 132.482 50.9168 132.39 51.5765 132.39H53.0843C55.2755 132.39 55.7938 132.644 56.2179 133.476C56.477 133.938 56.6419 134.446 56.7833 135.116L57.1131 135.07Z" fill="white"/>
<path d="M62.9282 136.734C60.8785 136.734 57.957 138.467 57.957 142.164C57.957 144.706 59.8183 147.178 62.9282 147.178C65.2371 147.178 67.8523 145.353 67.8523 141.771C67.8523 139.022 65.8261 136.734 62.9282 136.734ZM62.6926 137.197C64.7895 137.197 65.8261 139.599 65.8261 142.233C65.8261 145.607 64.6716 146.716 63.1874 146.716C61.1848 146.716 59.9596 144.452 59.9596 141.402C59.9596 138.837 61.0905 137.197 62.6926 137.197Z" fill="white"/>
<path d="M74.9816 146.068L74.8404 145.767C74.5106 145.929 74.0396 146.114 73.4263 146.114C72.8141 146.114 72.0131 145.744 72.0131 143.827V137.657H74.4864C74.7456 137.519 74.8162 137.265 74.6286 137.011H72.0131V133.776L71.7775 133.729L70.3403 135.162V137.011H69.3507L68.7617 137.496L68.8089 137.657H70.3403V144.497C70.3403 146.253 71.0706 147.177 72.5314 147.177C72.7198 147.177 72.9319 147.108 73.2619 146.946L74.9816 146.068Z" fill="white"/>
<path d="M80.53 136.734C78.4805 136.734 75.5586 138.467 75.5586 142.164C75.5586 144.706 77.4195 147.178 80.53 147.178C82.8387 147.178 85.4541 145.353 85.4541 141.771C85.4541 139.022 83.4278 136.734 80.53 136.734ZM80.294 137.197C82.3909 137.197 83.4278 139.599 83.4278 142.233C83.4278 145.607 82.2729 146.716 80.7892 146.716C78.7862 146.716 77.5617 144.452 77.5617 141.402C77.5617 138.837 78.6923 137.197 80.294 137.197Z" fill="white"/>
<path d="M96.3914 137.012C95.7791 137.127 94.5305 137.312 93.305 137.381C92.6454 136.989 91.9393 136.734 91.2091 136.734C89.4652 136.734 87.2271 137.959 87.2271 140.593C87.2271 142.118 88.1692 143.296 89.3714 143.782C89.0406 144.221 88.1933 144.752 87.2503 145.029C87.2271 145.283 87.3209 145.676 87.4863 145.977C87.7687 146.508 88.4284 147.109 89.324 147.34C88.6644 147.871 87.6275 148.749 87.1797 149.211C86.8731 149.512 86.6613 149.881 86.6855 150.39C86.7561 151.66 88.0753 153.139 90.5485 153.139C93.659 153.139 96.1563 150.736 96.1563 148.495C96.1563 146.277 94.3186 145.838 93.0468 145.838C92.2217 145.838 91.3503 145.861 90.6433 145.861C89.6296 145.861 89.1354 145.445 89.1354 144.914C89.1354 144.567 89.559 144.082 89.795 143.92C90.1722 144.013 90.5727 144.059 91.0205 144.059C92.7402 144.059 94.8835 142.88 94.8835 140.293C94.8835 139.484 94.6252 138.698 94.1068 138.167L95.4725 138.213C95.8265 138.005 96.2743 137.52 96.4861 137.15L96.3914 137.012ZM90.9257 137.173C92.3156 137.173 93.1174 138.652 93.1174 140.685C93.1174 142.765 92.1985 143.527 91.2555 143.597C89.8888 143.597 89.0406 142.187 89.0406 140.131C89.0406 138.144 89.9362 137.173 90.9257 137.173ZM91.3967 147.317C92.3862 147.317 93.0932 147.409 93.659 147.64C94.3419 147.94 94.7665 148.611 94.7665 149.465C94.7665 151.013 93.7296 152.192 91.3735 152.192C89.677 152.192 88.2639 151.106 88.2639 149.789C88.2639 148.98 88.853 148.31 89.442 147.825C89.8888 147.455 90.3841 147.317 91.3967 147.317Z" fill="white"/>
<path d="M100.294 139.206V136.664C99.1867 137.172 98.2215 137.45 97.2078 137.611V137.819C98.4807 138.004 98.6219 138.12 98.6219 139.668V144.728C98.6219 146.322 98.4101 146.507 97.0898 146.622V146.9H102.179V146.622C100.412 146.507 100.294 146.345 100.294 144.728V140.037C100.907 138.767 101.52 138.212 102.061 138.212C102.462 138.212 102.698 138.397 103.051 138.72C103.169 138.836 103.381 138.882 103.64 138.767C104.017 138.536 104.299 138.166 104.299 137.796C104.299 137.311 103.805 136.733 103.098 136.733C101.967 136.733 100.883 138.212 100.365 139.206H100.294Z" fill="white"/>
<path d="M114.001 145.977L113.859 145.676C113.671 145.838 113.412 145.907 113.105 145.907C112.658 145.907 112.257 145.561 112.257 144.613V140.2C112.257 138.929 112.022 138.028 111.221 137.335C110.749 136.942 110.113 136.734 109.454 136.734C108.299 136.965 106.72 137.89 106.038 138.375C105.59 138.675 105.354 138.929 105.354 139.184C105.354 139.669 105.895 140.062 106.273 140.062C106.579 140.062 106.744 139.923 106.814 139.576C106.98 138.814 107.239 138.306 107.521 138.005C107.733 137.728 108.135 137.566 108.558 137.566C109.807 137.566 110.584 138.513 110.584 140.362V140.94C109.972 141.402 108.346 141.956 107.05 142.395C105.849 142.811 105.283 143.435 105.283 144.521C105.283 145.792 106.343 147.178 107.969 147.178C108.511 147.178 109.759 146.254 110.608 145.653C110.702 146.092 110.867 146.439 111.126 146.716C111.385 146.993 111.881 147.178 112.257 147.178L114.001 145.977ZM110.584 145.191C110.089 145.699 109.359 146 108.817 146C108.017 146 107.121 145.353 107.121 144.128C107.121 143.25 107.639 142.811 108.511 142.395C109.029 142.141 110.137 141.656 110.584 141.379V145.191Z" fill="white"/>
<path d="M125.296 146.9V146.623C123.882 146.507 123.717 146.346 123.717 144.705V136.757C122.61 136.965 121.173 137.011 119.406 137.011H117.803V135.763C117.803 133.984 118.109 132.459 118.605 131.859C118.935 131.396 119.335 131.119 119.97 131.119C121.125 131.119 121.88 131.835 122.374 132.482C122.539 132.69 122.727 132.69 122.94 132.575C123.128 132.459 123.316 132.251 123.387 132.09C123.481 131.905 123.481 131.628 123.27 131.35C122.986 130.958 122.28 130.287 120.984 130.241C120.113 130.334 119.17 130.726 118.204 131.489C116.931 132.482 116.531 133.707 116.342 134.285C116.224 134.701 116.107 135.394 116.107 136.272V137.011H114.976L114.387 137.496L114.434 137.658H116.107V144.705C116.107 146.323 115.942 146.484 114.482 146.623V146.9H119.381V146.623C117.968 146.507 117.803 146.346 117.803 144.705V137.658H120.866C121.973 137.658 122.021 137.82 122.021 138.906V144.705C122.021 146.346 121.855 146.507 120.513 146.623V146.9H125.296Z" fill="white"/>
<path d="M132.575 139.415C132.551 138.906 132.339 137.636 132.175 137.104C131.703 136.919 131.114 136.734 130.195 136.734C128.193 136.734 126.803 138.051 126.803 139.669C126.803 141.332 128.262 142.141 129.534 142.719C130.76 143.296 131.443 143.92 131.443 144.983C131.443 146.092 130.666 146.693 129.747 146.693C128.333 146.693 127.179 145.307 126.732 143.805L126.496 143.897C126.496 144.66 126.731 146.208 126.872 146.508C127.249 146.785 128.193 147.178 129.346 147.178C131.138 147.178 132.975 146.092 132.975 144.082C132.975 142.649 131.962 141.794 130.195 141.032C129.229 140.616 128.262 140.015 128.262 138.883C128.262 137.913 128.874 137.22 129.817 137.22C131.042 137.22 131.939 138.259 132.339 139.507L132.575 139.415Z" fill="white"/>
<path d="M144.829 146.9V146.623C144.098 146.554 143.533 146.392 142.519 145.26C141.601 144.243 139.316 141.47 138.939 140.847C139.905 139.738 140.399 139.183 141.059 138.513C142.002 137.543 142.237 137.427 143.863 137.15V136.872L139.433 137.08V137.358C140.706 137.496 140.895 137.658 140.235 138.582C139.669 139.368 138.986 140.2 138.468 140.731C138.091 141.124 137.69 141.401 137.006 141.54V130.241C136.135 130.565 134.886 130.934 133.874 131.05V131.258C135.216 131.373 135.311 131.558 135.311 133.083V144.728C135.311 146.323 135.146 146.507 133.732 146.623V146.9H138.609V146.623C137.172 146.507 137.006 146.323 137.006 144.728V141.909C137.149 141.863 137.242 141.84 137.313 141.84C137.595 141.84 137.784 142.025 138.138 142.441C139.292 144.012 140.965 146.092 141.719 146.97L144.829 146.9Z" fill="white"/>
<path d="M153.874 145.977L153.731 145.676C153.544 145.838 153.285 145.907 152.978 145.907C152.53 145.907 152.13 145.561 152.13 144.613V140.2C152.13 138.929 151.894 138.028 151.093 137.335C150.622 136.942 149.985 136.734 149.326 136.734C148.172 136.965 146.594 137.89 145.91 138.375C145.462 138.675 145.227 138.929 145.227 139.184C145.227 139.669 145.768 140.062 146.146 140.062C146.452 140.062 146.617 139.923 146.687 139.576C146.853 138.814 147.112 138.306 147.394 138.005C147.606 137.728 148.007 137.566 148.431 137.566C149.68 137.566 150.457 138.513 150.457 140.362V140.94C149.844 141.402 148.218 141.956 146.923 142.395C145.721 142.811 145.156 143.435 145.156 144.521C145.156 145.792 146.216 147.178 147.842 147.178C148.384 147.178 149.632 146.254 150.481 145.653C150.575 146.092 150.74 146.439 150.999 146.716C151.258 146.993 151.753 147.178 152.13 147.178L153.874 145.977ZM150.457 145.191C149.962 145.699 149.232 146 148.69 146C147.889 146 146.994 145.353 146.994 144.128C146.994 143.25 147.512 142.811 148.384 142.395C148.902 142.141 150.01 141.656 150.457 141.379V145.191Z" fill="white"/>
</svg>
