<svg width="200" height="200" viewBox="0 0 200 200" fill="none" xmlns="http://www.w3.org/2000/svg">
<path d="M121.12 74.5205C121.12 72.8955 120.98 71.333 120.72 69.833H100V78.708H111.84C111.32 81.5622 109.76 83.9788 107.42 85.6038V91.3747H114.56C118.72 87.3747 121.12 81.4997 121.12 74.5205Z" fill="#4285F4"/>
<path d="M99.9994 96.9167C105.939 96.9167 110.919 94.875 114.559 91.375L107.419 85.6042C105.459 86.9792 102.959 87.8125 99.9994 87.8125C94.2794 87.8125 89.4194 83.7917 87.6794 78.375H80.3594V84.2917C83.9794 91.7708 91.3994 96.9167 99.9994 96.9167Z" fill="#34A853"/>
<path d="M87.68 78.3545C87.24 76.9795 86.98 75.5212 86.98 74.0003C86.98 72.4795 87.24 71.0212 87.68 69.6462V63.7295H80.36C78.86 66.8128 78 70.292 78 74.0003C78 77.7087 78.86 81.1878 80.36 84.2712L86.06 79.6462L87.68 78.3545Z" fill="#FBBC05"/>
<path d="M99.9994 60.208C103.239 60.208 106.119 61.3747 108.419 63.6247L114.719 57.0622C110.899 53.3538 105.939 51.083 99.9994 51.083C91.3994 51.083 83.9794 56.2288 80.3594 63.7288L87.6794 69.6455C89.4194 64.2288 94.2794 60.208 99.9994 60.208Z" fill="#EA4335"/>
<g clip-path="url(#clip0_1742_1977)">
<path d="M60.3683 137.527V151.243H56V117.378H67.5855C70.5294 117.378 73.0301 118.355 75.0877 120.31C77.1769 122.265 78.2215 124.646 78.2215 127.452C78.2215 130.322 77.1769 132.718 75.0877 134.641C73.0618 136.565 70.5611 137.527 67.5855 137.527H60.3683ZM60.3683 121.54V133.364H67.6805C69.4215 133.364 70.8618 132.781 72.0013 131.614C73.1726 130.448 73.7582 129.06 73.7582 127.452C73.7582 125.876 73.1726 124.504 72.0013 123.337C70.8618 122.139 69.4215 121.54 67.6805 121.54H60.3683Z" fill="white"/>
<path d="M87.6922 120.074C87.6922 120.926 87.3914 121.651 86.79 122.25C86.1886 122.849 85.4605 123.149 84.6058 123.149C83.7512 123.149 83.0231 122.849 82.4217 122.25C81.8202 121.651 81.5195 120.926 81.5195 120.074C81.5195 119.223 81.8202 118.498 82.4217 117.899C83.0231 117.3 83.7512 117 84.6058 117C85.4605 117 86.1886 117.3 86.79 117.899C87.3914 118.498 87.6922 119.223 87.6922 120.074ZM86.79 128.068V151.243H82.4217V128.068H86.79Z" fill="white"/>
<path d="M103.585 139.466L111.894 151.243H106.766L101.021 142.682L95.3702 151.243H90.2422L98.4565 139.466L90.4321 128.067H95.3702L101.116 136.25L106.576 128.067H111.704L103.585 139.466Z" fill="white"/>
<path d="M124.668 152C121.249 152 118.432 150.833 116.216 148.5C114 146.166 112.893 143.218 112.893 139.655C112.893 136.124 113.969 133.191 116.121 130.858C118.274 128.493 121.028 127.311 124.383 127.311C127.833 127.311 130.572 128.43 132.597 130.669C134.655 132.876 135.684 135.982 135.684 139.986L135.636 140.459H117.356C117.419 142.729 118.179 144.558 119.635 145.946C121.091 147.333 122.832 148.027 124.858 148.027C127.644 148.027 129.828 146.639 131.41 143.865L135.304 145.756C134.259 147.711 132.803 149.241 130.936 150.344C129.1 151.448 127.01 152 124.668 152ZM117.688 136.865H131.031C130.904 135.256 130.239 133.932 129.036 132.892C127.865 131.82 126.282 131.284 124.288 131.284C122.642 131.284 121.218 131.788 120.015 132.797C118.844 133.806 118.068 135.162 117.688 136.865Z" fill="white"/>
<path d="M143.999 117.378V151.243H139.631V117.378H143.999Z" fill="white"/>
</g>
<defs>
<clipPath id="clip0_1742_1977">
<rect width="88" height="35" fill="white" transform="translate(56 117)"/>
</clipPath>
</defs>
</svg>
