<svg width="200" height="200" viewBox="0 0 200 200" fill="none" xmlns="http://www.w3.org/2000/svg">
<g clip-path="url(#clip0_1742_1983)">
<mask id="mask0_1742_1983" style="mask-type:luminance" maskUnits="userSpaceOnUse" x="26" y="64" width="148" height="74">
<path d="M174 64H26V138H174V64Z" fill="white"/>
</mask>
<g mask="url(#mask0_1742_1983)">
<path d="M71.3173 71.2471H67.4822L67.3359 90.7932H71.171L71.3173 71.2471Z" fill="white"/>
</g>
<mask id="mask1_1742_1983" style="mask-type:luminance" maskUnits="userSpaceOnUse" x="26" y="64" width="148" height="74">
<path d="M174 64H26V138H174V64Z" fill="white"/>
</mask>
<g mask="url(#mask1_1742_1983)">
<path d="M27.6949 121.745L28.0937 69.0377L31.417 65.7061H40.4497L43.7132 69.0377L43.5936 85.662H37.7844L37.8908 71.355V71.2475H33.9759L33.6104 119.535H37.5252L37.6316 105.121H43.4407L43.3144 121.745L39.9911 125.077H30.9717L27.6949 121.745ZM46.7773 65.7061H58.7744L58.7345 71.2475H52.633L52.4867 90.787H58.5883L58.5484 96.3284H52.4468L52.274 119.535H58.3756L58.3357 125.077H46.332L46.7773 65.7061ZM61.6325 65.7061H73.9553L77.232 69.0377L77.0659 90.572L74.7595 93.7088L77.026 96.5702L76.8133 125.077H70.9111L71.1305 96.3284H67.2954L67.076 125.077H61.1805L61.6325 65.7061ZM79.9173 65.7061H95.5434L95.5036 71.2475H90.5585L90.153 125.077H84.2509L84.6563 71.2475H79.8774L79.9173 65.7061ZM98.2087 65.7061H104.104L103.659 125.077H97.7634L98.2087 65.7061ZM107.082 65.7061H119.079L119.039 71.2475H112.938L112.791 90.787H118.893L118.853 96.3284H112.752L112.532 125.077H106.637L107.082 65.7061ZM121.924 65.7061H127.819L127.374 125.077H121.479L121.924 65.7061ZM130.804 65.7061H142.801L142.761 71.2475H136.659L136.513 90.787H142.615L142.575 96.3284H136.473L136.3 119.535H142.402L142.362 125.077H130.365L130.804 65.7061ZM145.659 65.7061H157.982L161.258 69.0377L160.86 121.745L157.53 125.077H145.207L145.659 65.7061ZM78.2357 64L78.2091 67.5935L74.6665 64H45.1023L45.0691 67.9697L41.1609 64H30.7257L26.4054 68.3324L26 122.457L30.2538 126.79L41.3005 138H51.729L53.7097 136.012L55.6705 138H79.7976V137.543L80.2563 138H89.5349L89.5681 133.909L93.6026 138H102.875L102.908 133.741L107.102 138H125.254L125.294 132.398L130.817 138H169.254L173.575 133.668L174 79.5362L169.746 75.2038L158.693 64H78.2357Z" fill="white"/>
</g>
<mask id="mask2_1742_1983" style="mask-type:luminance" maskUnits="userSpaceOnUse" x="26" y="64" width="148" height="74">
<path d="M174 64H26V138H174V64Z" fill="white"/>
</mask>
<g mask="url(#mask2_1742_1983)">
<path d="M151.508 71.2471L151.143 119.535H154.978L155.343 71.2471H151.508Z" fill="white"/>
</g>
</g>
<defs>
<clipPath id="clip0_1742_1983">
<rect width="148" height="74" fill="white" transform="translate(26 64)"/>
</clipPath>
</defs>
</svg>
