<svg width="200" height="200" viewBox="0 0 200 200" fill="none" xmlns="http://www.w3.org/2000/svg">
<path d="M126.712 108.302V124.197C126.712 124.666 126.273 125.118 125.792 125.118H112.527C112.059 125.118 111.585 124.858 111.585 124.125V108.309C111.585 107.578 111.207 107.269 110.439 107.269H93.0078L93.5273 92.1423H110.418C111.205 92.1423 111.585 91.7909 111.585 91.0748V75.7991C111.585 74.9371 111.957 74.3877 112.993 74.3877H125.562C126.268 74.3877 126.712 74.8209 126.712 75.5381V91.0753C126.712 91.73 126.893 92.1423 127.868 92.1423H141.382V106.327C141.382 106.795 141.121 107.269 140.389 107.269H127.871C127.004 107.269 126.712 107.684 126.712 108.302Z" fill="white"/>
<path d="M64.5771 125.117H54.0086C53.1277 125.117 52.7969 124.373 52.506 123.473L35.3783 75.7144C35.1382 75.0828 35.0682 74.3895 36.0563 74.3895H49.6653C50.6405 74.3845 50.955 74.9136 51.2881 75.8994L58.8681 100.472C59.0899 101.219 59.5006 101.243 59.7368 100.443L67.4025 75.5227C67.5551 74.9428 67.9902 74.3877 68.8137 74.3877H97.4415C98.1474 74.3877 98.5919 74.8209 98.5919 75.5381V124.197C98.5919 124.666 98.153 125.118 97.6715 125.118H84.3148C83.8467 125.118 83.3727 124.858 83.3727 124.125V77.2961C83.3727 76.7619 82.9073 76.5369 82.6141 77.2961L66.0985 123.577C65.8182 124.343 65.4571 125.117 64.5771 125.117Z" fill="white"/>
<path d="M163.852 74.3879C164.558 74.3879 165.003 74.8211 165.003 75.5383V124.198C165.003 124.666 164.564 125.118 164.082 125.118H150.818C150.35 125.118 149.876 124.858 149.876 124.125V93.2599C149.876 92.5847 149.531 92.1428 148.839 92.1428H141.383V82.6142C141.383 81.8518 141.687 81.501 142.4 80.9293L149.314 75.6855C150.337 74.932 150.812 74.3877 151.798 74.3877H163.852V74.3879Z" fill="white"/>
</svg>
