<svg width="200" height="200" viewBox="0 0 200 200" fill="none" xmlns="http://www.w3.org/2000/svg">
<path d="M145.82 101.573C145.82 98.2257 145.52 95.007 144.962 91.917H100.5V110.199H125.907C124.791 116.079 121.443 121.057 116.422 124.405V136.293H131.743C140.67 128.053 145.82 115.95 145.82 101.573Z" fill="#4285F4"/>
<path d="M100.5 147.709C113.246 147.709 123.932 143.503 131.743 136.293L116.422 124.405C112.216 127.237 106.851 128.954 100.5 128.954C88.2255 128.954 77.7967 120.671 74.063 109.513H58.3555V121.701C66.1234 137.108 82.0455 147.709 100.5 147.709Z" fill="#34A853"/>
<path d="M74.0627 109.469C73.1185 106.637 72.5606 103.633 72.5606 100.5C72.5606 97.3668 73.1185 94.3626 74.0627 91.5301V79.3418H58.3552C55.1364 85.6935 53.291 92.8605 53.291 100.5C53.291 108.139 55.1364 115.306 58.3552 121.658L70.5864 112.13L74.0627 109.469Z" fill="#FBBC05"/>
<path d="M100.5 72.0895C107.452 72.0895 113.632 74.4928 118.568 79.1278L132.086 65.6091C123.889 57.9699 113.246 53.292 100.5 53.292C82.0455 53.292 66.1234 63.8924 58.3555 79.3424L74.063 91.5307C77.7967 80.3724 88.2255 72.0895 100.5 72.0895Z" fill="#EA4335"/>
</svg>
