<svg width="200" height="200" viewBox="0 0 200 200" fill="none" xmlns="http://www.w3.org/2000/svg">
<g clip-path="url(#clip0_1742_314)">
<path d="M144.652 134.563C143.259 136.208 135.001 144.248 127.879 149.091C126.696 132.217 118.499 121.367 105.084 112.132C104.654 121.129 104.625 129.031 104.948 134.563C105.217 139.323 107.528 142.225 111.296 145.284C106.4 146.38 92.0734 146.192 87.1812 144.677C87.7446 144.248 93.7938 140.923 94.3031 130.12C94.6831 122.376 94.7371 116.625 94.4425 107.158L93.8727 104.706C87.3464 99.9453 81.6477 95.0744 74.3075 87.2261C81.0274 104.788 72.5008 126.661 71.508 134.701C71.1862 137.382 70.3252 142.867 70.6234 148.481C68.5224 147.232 60.0572 141.751 56 136.503C67.7985 116.496 76.3472 96.831 57.8315 78.9773C61.3188 73.7864 66.4799 69.1606 70.6234 67.138C74.9523 79.535 84.4397 89.3513 91.2964 93.6655C86.0525 74.4261 79.3364 68.1208 75.0817 65.9672C77.8848 59.475 87.1023 52.7376 92.0165 51.0129C89.7585 58.2226 89.576 62.9338 91.8046 70.5976C94.0343 78.3642 97.5327 87.7583 101.453 94.8363C103.554 91.2458 110.94 76.001 112.908 69.3732C114.872 62.7177 114.872 56.7567 114.037 52.4715C118.284 54.6323 127.449 63.147 129.549 67.2941C125.083 68.2559 122.983 70.5195 120.327 75.0427C117.582 79.673 110.672 97.1815 106.833 104.735C110.894 108.194 117.961 112.562 123.549 119.182C117.395 95.2376 123.686 77.0373 131.778 71.5803C135.563 72.6692 140.38 75.7274 143.874 79.3249C130.724 84.81 131.585 101.407 131.51 102.663C130.918 112.158 134.785 129.088 142.072 133.236C143.656 134.111 143.821 134.196 144.652 134.563C143.259 136.212 135.001 144.248 127.875 149.091Z" fill="white"/>
</g>
<defs>
<clipPath id="clip0_1742_314">
<rect width="89" height="99" fill="white" transform="translate(56 51)"/>
</clipPath>
</defs>
</svg>
