<svg width="201" height="200" viewBox="0 0 201 200" fill="none" xmlns="http://www.w3.org/2000/svg">
<g clip-path="url(#clip0_1944_8667)">
<path fill-rule="evenodd" clip-rule="evenodd" d="M151.194 96.0127C150.434 97.4816 149.125 99.4541 147.944 100.671C52.8891 100.671 52.8891 100.671 52.8891 100.671C52.1293 99.7479 50.441 97.6075 49.7656 96.0127H151.194Z" fill="white"/>
<path fill-rule="evenodd" clip-rule="evenodd" d="M144.104 105.456C56.8164 105.456 56.8164 105.456 56.8164 105.456C58.2093 107.135 59.6866 108.604 61.2906 109.695C139.208 109.695 139.208 109.695 139.208 109.695C141.192 108.604 142.965 107.135 144.104 105.456Z" fill="white"/>
<path fill-rule="evenodd" clip-rule="evenodd" d="M133.338 114.186C109.363 114.186 109.363 114.186 109.363 114.186C108.688 117.963 108.688 121.488 108.688 124.006C115.694 123.544 124.896 120.397 133.338 114.186Z" fill="white"/>
<path fill-rule="evenodd" clip-rule="evenodd" d="M160.102 65.208C149.17 65.8795 133.468 73.182 123.295 85.0589C121.438 87.1993 119.75 89.2977 118.441 91.564C153.517 91.564 153.517 91.564 153.517 91.564C158.329 82.1631 160.777 72.8042 160.102 65.208Z" fill="white"/>
<path fill-rule="evenodd" clip-rule="evenodd" d="M92.0586 124.006C92.1852 121.53 92.1852 118.005 91.6787 114.186C67.5352 114.186 67.5352 114.186 67.5352 114.186C76.1458 120.397 85.3473 123.544 92.0586 124.006Z" fill="white"/>
<path fill-rule="evenodd" clip-rule="evenodd" d="M100.458 124.762C102.99 122.159 105.607 118.634 107.929 114.186C92.9023 114.186 92.9023 114.186 92.9023 114.186C95.4349 118.634 97.7564 122.159 100.458 124.762Z" fill="white"/>
<path fill-rule="evenodd" clip-rule="evenodd" d="M82.5633 91.522C81.2548 89.2977 79.4821 87.1574 77.7093 85.017C67.5369 73.182 51.7508 65.8375 41.0719 65.208C40.3122 72.8042 42.7181 82.1631 47.4033 91.522H82.5633Z" fill="white"/>
<path fill-rule="evenodd" clip-rule="evenodd" d="M115.696 91.5224C115.907 88.8365 116.16 86.2344 116.16 83.1708C116.16 66.6353 108.689 49.5962 100.501 42C92.2279 49.5962 84.9258 66.6353 84.9258 83.1708C84.9258 86.2344 84.9258 88.8365 85.3901 91.5224H115.696Z" fill="white"/>
<path fill-rule="evenodd" clip-rule="evenodd" d="M150.982 158C155.92 158 160.099 156.027 160.099 151.033C160.099 148.263 158.031 146.291 154.865 145.577C151.489 144.738 147.31 144.822 147.31 142.681C147.521 141.296 148.787 140.919 150.855 140.919C153.937 140.919 154.063 142.597 154.232 143.605C159.255 143.605 159.255 143.605 159.255 143.605C158.875 139.702 155.709 137.016 150.602 137.016C145.284 137.016 142.203 139.911 142.203 143.521C142.203 145.661 143.3 147.508 145.115 148.431C146.381 149.102 148.196 149.564 150.349 149.942C152.586 150.11 154.528 150.32 154.739 151.914C154.739 153.005 153.599 154.307 151.278 154.307C147.816 154.307 147.057 152.334 147.057 151.033C141.738 151.033 141.738 151.033 141.738 151.033C141.823 155.188 145.284 158 150.982 158Z" fill="white"/>
<path fill-rule="evenodd" clip-rule="evenodd" d="M129.034 153.257C125.827 153.257 123.125 150.571 123.125 147.508C123.125 144.318 125.827 141.632 129.034 141.632C132.116 141.632 134.69 144.318 134.69 147.508C134.733 150.571 132.116 153.257 129.034 153.257ZM134.733 137.267C134.733 138.778 134.733 138.778 134.733 138.778C133.044 137.561 131.103 136.974 128.781 136.974C122.999 136.974 118.145 141.632 118.145 147.466C118.145 153.215 122.999 157.958 128.781 157.958C131.103 157.958 133.044 157.286 134.733 156.153C134.733 157.454 134.733 157.454 134.733 157.454C139.882 157.454 139.882 157.454 139.882 157.454C139.882 137.225 139.882 137.225 139.882 137.225H134.733V137.267Z" fill="white"/>
<path fill-rule="evenodd" clip-rule="evenodd" d="M105.609 153.257C102.528 153.257 99.8267 150.571 99.8267 147.508C99.8267 144.318 102.528 141.632 105.609 141.632C108.775 141.632 111.476 144.318 111.476 147.508C111.476 150.571 108.775 153.257 105.609 153.257ZM111.476 130.343C111.476 138.778 111.476 138.778 111.476 138.778C109.704 137.561 107.762 136.974 105.525 136.974C99.6156 136.974 94.9727 141.632 94.9727 147.466C94.9727 153.215 99.6578 157.958 105.525 157.958C107.762 157.958 109.788 157.286 111.476 156.153C111.476 157.454 111.476 157.454 111.476 157.454C116.499 157.454 116.499 157.454 116.499 157.454C116.499 130.301 116.499 130.301 116.499 130.301H111.476V130.343Z" fill="white"/>
<path d="M92.8619 130.343H87.7969V135.337H92.8619V130.343Z" fill="white"/>
<path d="M92.8619 137.268H87.7969V157.496H92.8619V137.268Z" fill="white"/>
<path fill-rule="evenodd" clip-rule="evenodd" d="M74.4595 153.257C71.0827 153.257 68.3814 150.571 68.3814 147.508C68.3814 144.318 71.0827 141.632 74.4595 141.632C77.5407 141.632 80.2421 144.318 80.2421 147.508C80.2421 150.571 77.5407 153.257 74.4595 153.257ZM80.2421 130.343C80.2421 138.778 80.2421 138.778 80.2421 138.778C78.4693 137.561 76.4433 136.974 74.164 136.974C68.3814 136.974 63.5273 141.632 63.5273 147.466C63.5273 153.215 68.3814 157.958 74.164 157.958C76.4011 157.958 78.4693 157.286 80.2421 156.153C80.2421 157.454 80.2421 157.454 80.2421 157.454C85.3916 157.454 85.3916 157.454 85.3916 157.454C85.3916 130.301 85.3916 130.301 85.3916 130.301H80.2421V130.343Z" fill="white"/>
<path fill-rule="evenodd" clip-rule="evenodd" d="M50.8632 153.257C47.782 153.257 45.0806 150.571 45.0806 147.508C45.0806 144.318 47.782 141.632 50.8632 141.632C54.2399 141.632 56.9413 144.318 56.9413 147.508C56.9413 150.571 54.1977 153.257 50.8632 153.257ZM56.9413 137.267C56.9413 138.778 56.9413 138.778 56.9413 138.778C55.1685 137.561 53.0159 136.974 50.7788 136.974C44.9962 136.974 40.2266 141.632 40.2266 147.466C40.2266 153.215 44.9962 157.958 50.7788 157.958C53.1003 157.958 55.1685 157.286 56.9413 156.153C56.9413 157.454 56.9413 157.454 56.9413 157.454C61.8797 157.454 61.8797 157.454 61.8797 157.454C61.8797 137.225 61.8797 137.225 61.8797 137.225H56.9413V137.267Z" fill="white"/>
</g>
<defs>
<clipPath id="clip0_1944_8667">
<rect width="120" height="116" fill="white" transform="translate(40.2266 42)"/>
</clipPath>
</defs>
</svg>
