<svg width="200" height="200" viewBox="0 0 200 200" fill="none" xmlns="http://www.w3.org/2000/svg">
<path d="M172.525 112.88C171.839 112.904 171.324 113.468 171.348 114.13C171.373 114.816 171.937 115.33 172.598 115.306C173.26 115.281 173.774 114.742 173.774 114.081C173.774 113.419 173.235 112.88 172.525 112.88C172.549 112.88 172.549 112.88 172.525 112.88ZM172.525 115.11C171.961 115.11 171.496 114.669 171.496 114.105C171.496 113.541 171.937 113.076 172.5 113.076C173.064 113.076 173.529 113.517 173.529 114.081C173.554 114.62 173.113 115.085 172.574 115.11C172.574 115.11 172.549 115.11 172.525 115.11Z" fill="white"/>
<path d="M173.109 113.788C173.109 113.518 172.938 113.396 172.595 113.396H172.031V114.792H172.252V114.18H172.497L172.889 114.792H173.134L172.717 114.18C172.938 114.18 173.109 114.033 173.109 113.788C173.109 113.812 173.109 113.812 173.109 113.788ZM172.276 114.033V113.567H172.57C172.717 113.567 172.889 113.592 172.889 113.763C172.889 113.984 172.717 114.008 172.546 114.008L172.276 114.033Z" fill="white"/>
<path d="M65.6144 83.624L59.3906 87.1525L60.7628 89.4803L65.6144 86.7359L70.6866 89.6028L72.0588 87.275L65.6144 83.624Z" fill="white"/>
<path d="M168.233 108.127C167.645 109.254 166.812 110.258 165.783 110.994C163.48 112.513 160.76 113.248 158.015 113.052C154.756 113.272 151.571 112.17 149.121 110.013C147.454 108.151 146.548 105.725 146.597 103.226C146.597 96.5122 151.988 93.8168 157.795 93.8168C160.319 93.7433 162.818 94.3804 165.023 95.6056C166.15 96.3407 167.081 97.3453 167.694 98.5459L171.419 97.7373C170.34 95.8261 168.821 94.2334 166.959 93.0572C164.092 91.538 160.907 90.7784 157.648 90.8274C151.399 90.8274 148.484 93.0327 147.454 93.8413C144.416 96.0221 142.701 99.5751 142.921 103.3C142.921 110.406 147.822 115.992 157.746 115.992C161.176 116.066 164.558 115.257 167.572 113.591C169.434 112.439 170.929 110.798 171.884 108.862L168.233 108.127Z" fill="white"/>
<path d="M122.916 91.248C115.614 91.248 108.189 95.2421 108.189 104.063C108.067 107.91 109.929 111.561 113.139 113.693C116.128 115.555 119.632 116.486 123.161 116.315C131.026 116.315 137.863 112.223 137.863 104.088C137.838 96.1977 131.443 91.2726 122.916 91.248ZM123.136 113.399C119.608 113.399 116.055 112.566 113.776 109.944C112.33 108.253 111.571 106.073 111.644 103.867C111.644 96.8103 117.452 94.2865 122.524 94.1639C129.189 93.9924 134.334 97.4719 134.334 103.769C134.334 107.812 132.153 113.399 123.136 113.399Z" fill="white"/>
<path d="M101.805 98.5953C101.879 96.6596 101.095 94.7728 99.6243 93.4987C97.6641 92.0285 95.2137 91.3424 92.7879 91.5629H76.1992V115.429H79.6542V105.897H91.4402L99.6978 115.429H104.231L95.2382 105.358C96.8554 105.064 101.805 104.305 101.805 98.5953ZM79.6052 103.079V94.4298H93.0084C94.6011 94.4543 96.3654 94.4543 97.468 96.194C97.9581 96.9536 98.2031 97.8357 98.2031 98.7179C98.2276 99.6245 97.9336 100.531 97.37 101.266C95.9978 103.055 93.572 103.079 91.6608 103.079H79.6052Z" fill="white"/>
<path d="M67.6233 91.5625H64.0703V115.429H67.6233V91.5625Z" fill="white"/>
<path d="M49.6628 110.994C47.3595 112.513 44.6396 113.248 41.8953 113.052C38.6363 113.272 35.4509 112.17 33.0006 110.013C31.3344 108.151 30.4278 105.725 30.4768 103.226C30.4768 96.5122 35.8675 93.8168 41.6747 93.8168C44.1986 93.7433 46.6979 94.3804 48.9032 95.6056C50.0303 96.3407 50.9615 97.3453 51.5495 98.5459L55.274 97.7373C54.1959 95.8261 52.6767 94.2334 50.8144 93.0572C47.9476 91.538 44.7621 90.7784 41.5277 90.8274C35.2549 90.8274 32.3635 93.0327 31.3099 93.8413C28.2715 96.0221 26.5562 99.5751 26.7768 103.3C26.7768 110.406 31.7019 115.992 41.6257 115.992C45.0562 116.066 48.4376 115.257 51.4515 113.591C53.3138 112.439 54.8085 110.798 55.7641 108.862L52.1131 108.127C51.525 109.254 50.6919 110.234 49.6628 110.994Z" fill="white"/>
</svg>
