<svg width="200" height="200" viewBox="0 0 200 200" fill="none" xmlns="http://www.w3.org/2000/svg">
<path d="M171.988 72.2299C172.014 70.0726 171.175 67.9936 169.657 66.4503C168.14 64.907 166.067 64.0258 163.895 64.0005C163.843 64 163.791 63.9998 163.739 64.0002H128.115L148.554 97.9269L150.44 98.164L151.634 99.7174V101.164L152.923 101.425L154.117 103.038V104.437L155.454 104.674L156.803 106.133V109.358C158.409 110.799 160.219 111.997 162.175 112.916C163.978 113.604 164.181 116.473 165.267 118.003C166.628 120.232 168.49 121.122 168.096 122.367C167.189 125.699 163.751 131.32 160.551 131.581H147.897V136.965H163.751C165.948 136.955 168.052 136.079 169.599 134.529C171.146 132.979 172.01 130.882 172.001 128.7L172 128.664V72.2299" fill="white"/>
<path d="M84.8387 131.664H78.7144C78.7144 116.461 83.8837 108.054 90.0796 106.382C90.9272 106.228 90.5213 102.077 89.4469 100.808H85.8654C85.2924 100.808 85.6267 99.7411 85.6267 99.7411L88.5277 93.5867L88.1337 91.9028H77.4131L86.2236 85.7839C86.6295 69.6447 103.295 68.3877 113.335 75.1114C119.304 79.0365 119.758 86.8156 119.304 92.1874C119.233 92.5313 117.753 92.3059 117.753 92.3059C117.753 92.3059 116.738 98.2351 119.388 98.2351H131.099C135.875 98.0454 140.483 101.259 140.483 101.259L141.605 97.1916L115.95 64.0001H36.2858C34.082 63.9874 31.9624 64.8398 30.3883 66.3718C29.6208 67.1434 29.0147 68.0583 28.6049 69.0637C28.1951 70.0691 27.9897 71.1452 28.0006 72.2298V128.735C27.9869 129.816 28.1911 130.89 28.6011 131.891C29.0112 132.893 29.6188 133.804 30.3883 134.569C31.9527 136.123 34.0735 136.997 36.2858 137H88.0023C86.7369 134.842 85.2924 132.387 84.8506 131.664" fill="white"/>
<path d="M39.4847 119.675C39.4847 118.564 39.8166 117.477 40.4385 116.553C41.0603 115.628 41.9441 114.908 42.9781 114.482C44.0121 114.057 45.1499 113.946 46.2476 114.163C47.3453 114.38 48.3535 114.915 49.1449 115.701C49.9363 116.487 50.4752 117.489 50.6935 118.579C50.9118 119.67 50.7997 120.8 50.3713 121.827C49.943 122.854 49.2177 123.732 48.2871 124.349C47.3565 124.967 46.2624 125.296 45.1432 125.296L45.0957 125.296C44.3604 125.298 43.632 125.156 42.9521 124.878C42.2722 124.599 41.654 124.191 41.133 123.676C40.6119 123.161 40.1981 122.548 39.9153 121.874C39.6324 121.2 39.486 120.477 39.4844 119.747C39.4843 119.723 39.4844 119.699 39.4847 119.675Z" fill="white"/>
</svg>
