<svg width="200" height="200" viewBox="0 0 200 200" fill="none" xmlns="http://www.w3.org/2000/svg">
<g clip-path="url(#clip0_1742_313)">
<path d="M15.8047 87.8438H22.0201V101.526H30.7581V107H15.8047V87.8438Z" fill="white"/>
<path d="M39.2031 87.8438H46.1611L49.7735 98.5984L53.3859 87.8438H60.2375L52.6955 107.136H46.7471L39.2051 87.8438H39.2031Z" fill="white"/>
<path d="M60.4766 87.8438H76.3311V93.098H66.5836V95.0418H75.6669V99.6654H66.5836V101.746H76.4636V107H60.4746V87.8438H60.4766Z" fill="white"/>
<path d="M83.8204 87.8438H89.6364L96.2491 96.299V87.8438H102.41V107H96.8853L89.9795 98.1621V107H83.8184V87.8438H83.8204Z" fill="white"/>
<path d="M109.956 87.708H116.117L123.952 107.001H117.207L116.224 104.428H109.717L108.762 107.001H102.123L109.958 87.708H109.956ZM114.682 99.8853L112.982 95.2327L111.283 99.8853H114.682Z" fill="white"/>
<path d="M124.959 93.2634H119.488V87.8457H136.645V93.2634H131.174V107H124.959V93.2634Z" fill="white"/>
<path d="M137.576 87.8438H143.792V107H137.576V87.8438Z" fill="white"/>
<path d="M145.014 97.4758V97.4221C145.014 91.8679 149.449 87.4346 155.185 87.4346C160.92 87.4346 165.304 91.8121 165.304 97.3683V97.4221C165.304 102.976 160.868 107.41 155.131 107.41C149.393 107.41 145.012 103.032 145.012 97.4758H145.014ZM159.036 97.4758V97.4221C159.036 95.1516 157.523 93.0983 155.133 93.0983C152.742 93.0983 151.281 95.1227 151.281 97.3662V97.42C151.281 99.6904 152.794 101.744 155.185 101.744C157.575 101.744 159.036 99.7194 159.036 97.4758Z" fill="white"/>
<path d="M165.941 87.8438H171.757L178.37 96.299V87.8438H184.531V107H179.006L172.101 98.1621V107H165.939V87.8438H165.941Z" fill="white"/>
<path d="M198 119H2V76H198V119ZM6.12017 114.755H193.878V80.2452H6.12017V114.753V114.755Z" fill="white"/>
<path d="M41.4424 83.9566C41.4424 83.9566 41.045 83.235 40.9647 83.0881C40.8884 82.9434 40.756 83.0571 40.756 83.0571C40.756 83.0571 40.3466 83.3735 40.1298 83.5224C39.9111 83.6754 39.9271 83.847 39.9271 83.9442C39.9271 84.0414 39.8569 84.6038 39.8569 84.6038C39.8469 84.7341 39.7786 84.8375 39.7305 84.9016L36.1602 87.751L35.7167 87.8586L34.6149 88.4086L34.6791 87.6352C34.7554 87.6807 34.8818 87.7986 34.9681 87.8131C35.0745 87.8296 35.235 87.7841 35.235 87.7841C35.235 87.7841 35.1748 87.6373 35.1748 87.5484C35.1748 87.4595 35.1949 87.3271 35.1949 87.3271C35.1949 87.3271 35.3634 87.4326 35.4859 87.4347C35.5862 87.4409 35.6906 87.3974 35.7528 87.352C35.813 87.3003 35.8712 87.2341 35.8712 87.2341C35.8712 87.2341 35.6645 87.1038 35.5962 87.0314C35.5481 86.9756 35.4738 86.8929 35.524 86.8929C35.6264 86.895 35.7789 86.7461 35.7789 86.7461C35.7789 86.7461 35.6685 86.6778 35.5862 86.6055C35.4919 86.5248 35.4538 86.4607 35.4136 86.3511C35.3755 86.2498 35.3574 86.1609 35.3574 86.1609C35.3574 86.1609 35.4196 86.2477 35.5661 86.2457C35.6906 86.2415 35.7989 86.1609 35.7989 86.1609C35.7989 86.1609 35.7026 86.1051 35.6404 86.0368C35.5702 85.9603 35.522 85.8776 35.4879 85.7721C35.4437 85.6233 35.4216 85.5509 35.3855 85.433C35.3695 85.3793 35.3574 85.2924 35.3153 85.1456C35.2671 84.8127 35.1286 84.6762 35.1286 84.6762C34.7072 84.0993 33.7479 83.9442 33.7479 83.9442C33.2562 83.8388 32.7685 84.4963 32.5718 85.1559C32.2447 86.2477 32.3411 87.3251 32.3411 87.3251C32.3411 87.3251 32.3571 87.5277 32.5317 87.6414C32.6341 87.7097 33.0475 87.8048 33.0475 87.8048L33.0033 88.696L31.9858 88.787C31.9858 88.787 31.2192 88.3155 30.585 87.9227L27.7493 85.7597C27.7493 85.7597 27.6309 85.6812 27.6148 85.4537C27.6148 85.4537 27.5446 84.8892 27.5446 84.792C27.5446 84.6948 27.5606 84.5253 27.3399 84.3702C27.1211 84.2172 26.7157 83.907 26.7157 83.907C26.7157 83.907 26.5833 83.7912 26.505 83.9359C26.4267 84.0786 26.0273 84.8065 26.0273 84.8065L26.2361 85.6336C26.2361 85.6336 26.3264 85.797 26.4508 85.95L26.6314 86.1402L27.685 87.11L27.7051 87.1162L29.427 88.7002L29.9207 89.1944C29.9207 89.1944 29.9569 89.2564 29.9569 89.3536C29.9569 89.4508 29.9468 89.7547 29.9468 89.7547C29.9468 89.7547 29.9408 89.8478 29.997 89.8995C30.0552 89.9574 30.9784 90.7328 30.9784 90.7328C30.9784 90.7328 31.0446 90.7886 31.0446 90.9251L31.2092 96.6405C31.2092 96.6405 31.2092 96.7294 31.2995 96.7294L31.5945 96.8432L32.2708 103.086L33.5653 107.213L31.5022 108.241C31.5022 108.241 31.4279 108.278 31.3918 108.373C31.3918 108.373 31.2694 108.611 31.2694 108.661C31.2694 108.741 31.3316 108.76 31.3316 108.76L34.4082 108.764L34.1152 109.589L34.0389 109.808C34.0389 109.808 33.9305 110.228 34.1071 110.292C34.2837 110.35 34.8296 110.375 35.0684 110.36C35.3715 110.344 35.9194 110.303 36.0057 110.212C36.0879 110.127 36.1241 109.746 35.6846 107.213L35.4216 97.4635L36.2084 91.3532C36.2806 90.677 36.3709 90.6005 36.3709 90.6005C36.3709 90.6005 37.2058 89.9595 37.2861 89.8829C37.3683 89.8044 37.3543 89.6824 37.3543 89.6824V89C37.3543 88.8656 37.4045 88.7787 37.4045 88.7787L38.0828 88.1026L38.2875 87.8896L40.463 85.7391L40.8443 85.2924L41.0269 85.1042C41.1534 84.9512 41.2356 84.792 41.2356 84.792C41.2356 84.792 41.3902 84.3888 41.4464 84.2502C41.5026 84.1117 41.4464 83.9587 41.4464 83.9587" fill="white"/>
<path d="M187.57 89.3088V89.3005C187.57 88.4796 188.217 87.791 189.039 87.791C189.862 87.791 190.5 88.4713 190.5 89.2922V89.3005C190.5 90.1214 189.854 90.81 189.031 90.81C188.209 90.81 187.57 90.1297 187.57 89.3088ZM190.33 89.3005V89.2922C190.33 88.554 189.776 87.9585 189.039 87.9585C188.303 87.9585 187.741 88.5623 187.741 89.3005V89.3088C187.741 90.047 188.295 90.6425 189.031 90.6425C189.768 90.6425 190.33 90.0387 190.33 89.3005ZM188.433 88.4548H189.126C189.336 88.4548 189.497 88.5168 189.607 88.6305C189.692 88.7174 189.736 88.8394 189.736 88.98V88.9883C189.736 89.2468 189.597 89.4101 189.401 89.4845L189.78 90.0594H189.379L189.047 89.5424H188.776V90.0594H188.433V88.4548ZM189.12 89.2385C189.294 89.2385 189.387 89.1434 189.387 89.009V89.0007C189.387 88.8456 189.282 88.767 189.112 88.767H188.776V89.2385H189.12Z" fill="white"/>
</g>
<defs>
<clipPath id="clip0_1742_313">
<rect width="196" height="43" fill="white" transform="translate(2 76)"/>
</clipPath>
</defs>
</svg>
