<svg width="200" height="200" viewBox="0 0 200 200" fill="none" xmlns="http://www.w3.org/2000/svg">
<path d="M154.873 102.502L177.927 88.1709V92.0573L154.873 106.449L131.789 92.0573V88.1709L154.873 102.502Z" fill="white"/>
<path d="M154.875 84.5283C149.668 84.5283 145.1 87.1395 142.48 91.1777C142.694 90.9651 142.815 90.8437 143.029 90.6919C149.515 85.3177 158.865 86.5322 163.951 93.303L167.331 91.1473C164.651 87.2306 160.053 84.5283 154.875 84.5283Z" fill="white"/>
<path d="M154.873 91.1768C152.04 91.1768 149.543 92.6038 148.051 94.6684C149.269 93.7879 150.67 93.3325 152.162 93.3325C154.659 93.3325 156.883 94.6077 158.375 96.7634L161.603 94.7595C160.202 92.5431 157.705 91.1768 154.873 91.1768Z" fill="white"/>
<path d="M139.279 85.3477C148.781 77.8786 162.211 79.9128 169.368 89.8413L169.429 89.902L172.931 87.7463C169.094 81.8864 162.425 78 154.872 78C147.38 78 140.711 81.8256 136.812 87.7463C137.513 86.9569 138.396 86.0157 139.279 85.3477Z" fill="white"/>
<path d="M42.9844 114.374V100.65H47.4916V114.222C47.4916 117.532 50.263 118.321 51.8161 118.321C55.1966 118.321 56.3234 116.317 56.3234 115.164V100.65H60.8306V121.965H58.2115L56.4452 119.536C55.227 121.024 53.217 122.359 50.2325 122.359C45.9384 122.39 42.9844 119.566 42.9844 114.374Z" fill="white"/>
<path d="M94.2383 93.1505V121.995H96.7965L98.4714 119.566C99.6896 121.053 101.7 122.45 104.684 122.45C108.674 122.45 112.024 120.021 112.024 114.647V108.058C112.024 102.684 108.643 100.255 104.471 100.255C101.578 100.255 99.6287 101.53 98.5933 102.806V93.1201L94.2383 93.1505ZM103.405 118.351C100.634 118.351 98.6237 117.015 98.6846 114.1V108.241C98.6846 105.963 100.512 104.202 103.466 104.202C105.567 104.202 107.638 105.751 107.638 108.241V114.222C107.638 116.863 105.506 118.351 103.405 118.351Z" fill="white"/>
<path d="M77.3679 93.1514V102.837C76.3629 101.562 74.4138 100.287 71.4902 100.287C67.3179 100.287 63.9375 102.716 63.9375 108.09V114.678C63.9375 120.052 67.3179 122.481 71.277 122.481C74.2311 122.481 76.2715 121.054 77.4897 119.597L79.1647 122.026H81.7228V93.1817H77.3679V93.1514ZM68.3229 114.314V108.333C68.3229 105.843 70.4243 104.294 72.4952 104.294C75.4492 104.294 77.2765 105.964 77.2765 108.333V114.192C77.3374 117.077 75.3274 118.443 72.5561 118.443C70.4852 118.352 68.3229 116.864 68.3229 114.314Z" fill="white"/>
<path d="M115.07 93.1514H119.578V121.996H115.07V93.1514Z" fill="white"/>
<path d="M90.308 100.68H85.8008V121.994H90.308V100.68Z" fill="white"/>
<path d="M88.0855 98.0989C89.4983 98.0989 90.6437 96.9571 90.6437 95.5485C90.6437 94.1399 89.4983 92.998 88.0855 92.998C86.6727 92.998 85.5273 94.1399 85.5273 95.5485C85.5273 96.9571 86.6727 98.0989 88.0855 98.0989Z" fill="white"/>
<path d="M132 118.351C128.893 118.351 127.401 116.742 127.401 114.525V112.764H140.74V107.997C140.74 103.079 137.299 100.194 131.969 100.194C126.426 100.194 122.863 103.291 122.863 108.119V114.708C122.863 119.626 126.426 122.511 131.969 122.511C136.08 122.511 139.126 120.841 140.344 118.017L137.116 116.013C135.989 117.562 134.345 118.351 132 118.351ZM127.401 108.058C127.401 105.842 128.954 104.293 131.847 104.293C134.74 104.293 136.294 105.842 136.294 108.058V109.394H127.462L127.401 108.058Z" fill="white"/>
<path d="M31.3799 100.195C26.9945 100.195 24.1623 101.956 23.0964 104.567L26.5986 106.723C28.0909 104.355 29.4918 104.234 31.3799 104.234C34.1513 104.234 35.3694 105.509 35.3694 107.604V109.274H31.5627C28.7913 109.274 22 110.215 22 116.075C22 120.234 25.1672 122.329 29.0045 122.329C32.0499 122.329 34.2731 120.902 35.5522 119.445L37.3185 121.874H39.9376V107.27C39.8767 103.232 37.0444 100.195 31.3799 100.195ZM35.339 115.194C35.2781 115.528 35.2781 115.923 34.8517 116.47C34.1817 117.411 32.4154 118.352 30.4054 118.352C28.2431 118.352 26.69 117.471 26.69 115.741C26.69 113.19 30.8013 112.644 33.4204 112.522H35.3694L35.339 115.194Z" fill="white"/>
</svg>
