<svg width="200" height="200" viewBox="0 0 200 200" fill="none" xmlns="http://www.w3.org/2000/svg">
<path d="M188.647 111.111H178.542V111.568L182.69 113.889L182.841 134.397L167.494 111.111H158.859V111.568L161.612 115.259V141.246C161.612 143.453 157.992 143.567 157.992 143.567V144.023H167.456V143.567C167.456 143.567 163.837 143.795 163.837 141.246C163.837 138.697 163.686 117.275 163.686 117.275L180.955 144.023H184.688V113.889L188.685 111.568V111.111H188.647ZM165.722 114.421C171.416 122.26 176.808 130.44 181.709 138.811C175.978 130.973 170.624 122.792 165.722 114.421ZM153.995 99.6966H145.474L140.157 106.736H145.775L153.995 99.6966ZM147.811 101.675C147.246 102.931 146.039 104.186 144.833 104.757C145.361 103.501 146.605 102.246 147.811 101.675ZM142.08 110.655C133.37 110.655 126.357 119.178 126.357 127.662C126.357 136.147 133.37 144.822 142.08 144.822C150.753 144.822 157.804 136.147 157.804 127.662C157.804 119.178 150.753 110.655 142.08 110.655ZM132.465 137.365C130.768 134.625 130.014 131.391 130.014 128.195C130.014 124.086 130.994 119.444 133.634 116.21C131.975 118.873 131.183 121.993 130.844 125.075C130.467 128.69 130.731 132.419 132.126 135.767C132.616 136.984 133.219 138.126 133.973 139.191C134.124 139.42 134.275 139.61 134.463 139.8C133.634 139.153 133.031 138.278 132.465 137.365ZM142.08 143.224C137.442 143.224 134.614 136.756 134.614 127.7C134.614 118.645 137.442 112.291 142.08 112.291C146.68 112.291 149.546 118.645 149.546 127.7C149.546 136.718 146.68 143.224 142.08 143.224ZM151.544 137.365C150.979 138.278 150.338 139.115 149.546 139.838C149.734 139.648 149.885 139.42 150.036 139.229C150.79 138.164 151.394 137.022 151.884 135.805C153.241 132.419 153.543 128.69 153.166 125.113C152.826 122.031 152.035 118.911 150.413 116.248C153.053 119.482 154.033 124.124 154.033 128.233C153.995 131.391 153.203 134.663 151.544 137.365ZM70.4383 143.605V144.061H84.8044V143.605C84.8044 143.605 81.1469 143.186 81.1469 141.284C81.1469 139.381 81.1469 113.318 81.1469 113.318H86.1995L88.1225 119.292H88.8012L92.9489 111.149H62.3315L66.4792 119.292H67.1579L68.817 113.318H74.0581V141.284C74.0958 143.339 70.4383 143.605 70.4383 143.605ZM77.6779 114.421C78.1681 123.211 78.1681 132.152 77.6779 140.941C77.1877 132.152 77.1877 123.211 77.6779 114.421ZM33.9764 120.471C33.9764 116.172 30.9222 111.492 23.2302 111.111H7.35585V111.568L10.2969 113.889V128.081C7.28044 126.787 5.58366 124.276 4 123.02V128.309C5.43284 128.994 6.90338 129.907 10.3346 130.478V141.246C10.3346 143.567 7.12961 143.567 7.12961 143.567V144.023H22.0236V143.567C22.0236 143.567 17.4611 143.605 17.4611 141.246C17.4611 138.963 17.4611 131.467 17.4611 130.973C27.6418 130.744 33.9764 125.798 33.9764 120.471ZM30.7714 119.101C31.1485 121.004 30.5075 123.02 29.414 124.58C28.6976 125.608 27.868 126.559 26.85 127.282C27.6418 126.331 28.3582 125.341 28.9615 124.276C29.6779 122.944 30.2058 121.537 30.1681 120.053C30.1304 117.922 29.1877 115.905 27.7549 114.383C29.3763 115.449 30.4698 117.237 30.7714 119.101ZM13.6528 140.941C13.1626 132.152 13.1626 123.211 13.6528 114.421C14.143 123.211 14.143 132.152 13.6528 140.941ZM17.348 129.337L17.3857 112.747H19.7612C24.022 112.747 26.85 114.421 26.85 120.205C26.85 124.847 24.7384 128.233 20.7416 129.146C19.7235 129.26 18.5923 129.337 17.348 129.337ZM126.093 140.104C120.286 139.876 113.951 132.685 111.086 130.06C117.496 128.195 121.266 123.972 121.266 119.862C121.266 115.563 118.212 111.492 110.52 111.149H94.6457V111.606L97.5868 113.927V128.119C94.5326 126.787 92.8735 124.276 91.2521 123.02V128.309C92.685 128.994 94.1555 129.907 97.5868 130.478V141.246C97.5868 143.034 94.3818 143.567 94.3818 143.567V144.023H109.276V143.567C109.276 143.567 104.713 142.73 104.713 141.246C104.713 139.762 104.713 131.011 104.713 131.011H103.808C105.166 131.011 107.353 130.782 107.353 130.782C107.353 130.782 108.672 132.875 108.71 132.875C111.802 137.745 116.704 145.051 120.512 145.051C124.396 145.051 126.093 142.387 126.093 140.104ZM101.093 140.941C100.603 132.152 100.603 123.211 101.093 114.421C101.546 123.211 101.546 132.152 101.093 140.941ZM115.045 114.421C117.081 115.715 118.288 118.264 118.137 120.7C118.024 122.564 116.968 124.238 115.61 125.456C115.158 125.836 114.668 126.217 114.14 126.483C115.799 124.961 117.269 122.944 117.42 120.661C117.571 118.34 116.628 116.096 115.045 114.421ZM104.676 129.337V128.728V112.709H107.051C111.312 112.709 114.14 113.28 114.14 119.558C114.14 128.538 104.676 129.337 104.676 129.337ZM120.852 141.893C117.571 140.789 113.273 135.881 111.274 132.989C112.933 134.663 114.517 136.338 116.214 137.974C117.043 138.773 117.91 139.572 118.778 140.295C119.683 140.98 120.588 141.779 121.756 141.969C121.417 142.007 121.153 141.969 120.852 141.893ZM53.9984 143.605V144.061H67.1579V143.605C67.1579 143.605 65.0086 143.224 63.9529 141.018C63.5758 140.219 61.8036 136.109 59.7298 131.201C60.6724 131.049 61.6528 130.973 62.6331 130.973L60.4462 125.912C59.7298 125.912 58.8248 126.217 57.8067 126.749C55.9591 122.336 54.0738 117.922 52.8672 115.106L56.1854 111.758V111.073H42.7997V111.53L46.0801 116.895C44.7227 120.053 42.8751 124.352 41.1406 128.461C39.1045 126.863 37.2192 125.722 35.8994 125.722L33.7502 130.63C35.9372 130.63 37.9356 131.087 39.7455 131.772C37.5962 136.718 35.824 140.789 35.5601 141.322C34.8437 142.73 33.8633 143.567 32.5059 143.567V144.023H40.5373V143.567C38.5389 143.567 37.0683 142.882 37.747 141.322C37.8979 141.018 39.5569 137.022 41.4046 132.495C44.1194 133.826 46.2309 135.539 47.7015 136.642C48.9081 135.729 50.7934 134.473 53.0558 133.332C54.7148 137.06 56.1854 140.257 56.5624 140.98C57.6182 142.958 53.9984 143.605 53.9984 143.605ZM36.5782 128.614C38.6897 128.766 40.9898 130.098 42.498 131.581C40.5373 130.668 38.6143 129.489 36.5782 128.614ZM47.8523 134.435C46.3064 133.027 44.4588 131.239 42.5734 129.679C44.7604 124.39 46.8342 119.292 46.8342 119.292C46.8342 119.292 49.436 125.189 51.9246 130.82C50.4917 132.076 49.0212 133.37 47.8523 134.435ZM48.531 114.307C52.7918 122.944 56.7133 131.924 60.0691 140.941C55.8083 132.304 51.9246 123.325 48.531 114.307ZM96.1162 70.6654C89.5177 70.6654 82.7306 74.242 82.7306 81.6615C82.7306 89.2332 89.6685 96.3863 96.1162 99.3541C102.564 96.3863 109.502 89.2332 109.502 81.6615C109.502 74.242 102.715 70.6654 96.1162 70.6654ZM96.1162 98.0985C95.3998 97.8702 93.1375 96.5005 92.6096 96.0059C93.7408 96.4624 94.9096 96.881 96.1162 97.2234C97.3228 96.881 98.4917 96.5005 99.6229 96.0059C99.0573 96.5385 96.8327 97.8702 96.1162 98.0985ZM107.504 86.0371C105.92 85.961 104.374 85.8468 102.828 85.5805C100.98 86.6078 99.095 87.4829 97.0966 88.2059C99.0573 88.7766 101.093 89.1951 103.13 89.4615C104.562 88.6244 105.958 87.7112 107.277 86.6839C107.089 87.1024 106.9 87.559 106.674 87.9776C105.882 88.5483 105.09 89.081 104.261 89.5756L105.694 89.6898L105.241 90.3366C104.562 90.2985 103.921 90.2224 103.243 90.1463C101.282 91.2498 99.2459 92.1629 97.1343 92.8859C98.7934 93.3424 100.452 93.6468 102.149 93.8371L101.508 94.4459C99.6606 94.1795 97.8507 93.799 96.0785 93.2663C94.3063 93.799 92.4965 94.1795 90.6489 94.4459L90.0078 93.8371C91.7046 93.6468 93.4014 93.3044 95.0228 92.8859C92.9112 92.1629 90.8751 91.2498 88.9144 90.1463C88.2357 90.2224 87.5946 90.2985 86.9159 90.3366L86.4635 89.6898L87.8963 89.5756C87.0668 89.081 86.2372 88.5483 85.4831 87.9776C85.2569 87.559 85.0683 87.1405 84.9175 86.6839C86.2372 87.7112 87.5946 88.6244 89.0652 89.4615C91.1013 89.1951 93.1375 88.7766 95.0982 88.2059C93.1375 87.4829 91.2144 86.6078 89.3668 85.5805C87.8209 85.8088 86.2372 85.961 84.6536 86.0371L84.4273 85.3902C85.747 85.3522 87.1045 85.238 88.4242 85.0859C86.8028 84.1346 85.2569 82.9932 83.7863 81.8137L83.824 81.0527C85.4831 80.9766 87.1422 80.8244 88.7635 80.52C87.3307 79.6829 85.9733 78.7317 84.6913 77.7044C84.8798 77.2859 85.106 76.8673 85.37 76.4868C86.5766 76.3727 87.8209 76.1824 89.0275 75.9541C88.3865 75.5737 87.7455 75.1551 87.1045 74.7366L87.7078 74.318C88.4619 74.8507 89.2537 75.3073 90.0455 75.7639C91.78 75.3834 93.4768 74.8888 95.1736 74.318C93.8916 73.7854 92.6096 73.2146 91.3653 72.5678L92.3456 72.3015C93.5522 72.9102 94.7965 73.4429 96.0785 73.9376C97.3228 73.4429 98.6049 72.9483 99.8115 72.3015L100.792 72.5678C99.5475 73.2146 98.2655 73.7854 96.9835 74.318C98.6426 74.8888 100.377 75.3834 102.112 75.7639C102.903 75.3073 103.695 74.8127 104.449 74.318L105.053 74.7366C104.412 75.1551 103.771 75.5737 103.13 75.9541C104.336 76.1824 105.543 76.3727 106.787 76.4868C107.051 76.8673 107.277 77.2859 107.466 77.7044C106.184 78.7317 104.826 79.6829 103.394 80.52C105.015 80.7863 106.674 80.9766 108.333 81.0527L108.371 81.8137C106.9 83.0312 105.354 84.1346 103.733 85.0859C105.053 85.2761 106.372 85.3522 107.73 85.3902L107.504 86.0371ZM97.0212 78.8839C98.8311 78.199 100.566 77.362 102.262 76.4107C103.846 76.7532 105.43 76.9815 107.051 77.1337C105.58 78.3132 104.035 79.3405 102.375 80.2917C100.566 79.9493 98.7557 79.4546 97.0212 78.8839ZM77.0746 86.6459C77.0746 84.8956 77.9419 82.8029 78.9976 81.3951C78.5452 83.7541 79.3747 87.1024 80.3928 89.2332C78.6206 89.3854 77.0746 88.6624 77.0746 86.6459ZM79.2993 91.6683C79.4501 92.1249 79.5632 92.6576 79.5632 93.1522C79.5632 94.3698 78.7337 95.359 77.4894 95.359C76.7353 95.359 76.0188 95.0166 75.5287 94.4459C77.3763 94.7122 78.5075 93.1522 79.2993 91.6683ZM67.7989 91.0976C67.7989 92.201 66.7808 93.038 65.7251 93.038C64.4053 93.038 63.3873 91.8205 63.3873 90.5268C63.3873 88.8907 64.6693 87.8634 66.2152 87.559C66.4038 87.521 66.7054 87.559 66.7054 87.8254C66.7431 88.0917 66.5169 88.2059 66.3284 88.2439C65.2726 88.4722 64.066 89.2332 64.066 90.5268C64.066 91.44 64.7447 92.3532 65.6873 92.3532C66.3661 92.3532 67.0448 91.8585 67.0448 91.1356C67.0448 90.641 66.6677 90.1083 66.1398 90.1083C65.9136 90.1083 65.6496 90.2605 65.5742 90.3366C65.4234 90.4127 65.1972 90.4507 65.084 90.2985C64.9709 90.1463 65.0463 89.918 65.1595 89.8039C65.2726 89.7278 65.7251 89.4234 66.1398 89.4234C67.1202 89.3473 67.7989 90.1844 67.7989 91.0976ZM79.8272 71.2741C81.6371 70.6654 83.6355 70.361 85.5208 70.2088C83.9371 70.9317 82.3912 71.6927 80.9207 72.8341C80.7321 72.2254 80.2796 71.7307 79.8272 71.2741ZM77.3386 78.199C77.4894 78.4273 77.3386 78.6556 77.1877 78.7698C76.9615 78.998 76.509 79.2644 76.0943 79.2644C74.7745 79.2644 73.3417 78.3512 71.9089 78.3512C71.0039 78.3512 70.74 78.7698 70.3629 78.7698C70.1744 78.7698 69.9859 78.6556 69.9859 78.4654C69.9859 77.8185 71.4564 77.6663 71.9466 77.6663C73.3794 77.6663 74.9631 78.5795 76.132 78.5795C76.3959 78.5795 76.6221 78.4273 76.773 78.2751C76.8861 78.0849 77.15 78.0088 77.3386 78.199ZM65.6119 82.5746C65.6119 84.1727 66.0267 85.4283 67.5349 86.1132C65.5742 86.2654 64.8955 86.5698 63.2741 87.7112C63.5381 85.8468 64.4053 83.9824 65.6119 82.5746ZM77.6025 71.959C76.509 71.959 75.4533 72.8341 75.4533 74.0898C75.4533 74.7366 75.7926 75.4976 76.3205 75.4976C76.5467 75.4976 76.7353 75.3834 76.7353 75.1171C76.7353 74.7366 76.2451 74.9649 76.2451 73.9756C76.2451 73.2907 76.9238 72.7961 77.5648 72.7961C78.5075 72.7961 79.1485 73.7093 79.1485 74.5844C79.1485 75.802 77.9796 76.6771 76.8484 76.6771C75.0762 76.6771 72.9269 75.6878 71.1547 75.84C71.381 75.6878 72.9269 74.7366 73.1909 74.5844C73.4925 74.4702 73.5302 74.28 73.4925 74.0898C73.4171 73.8615 73.1909 73.9376 73.0401 73.9756C67.4218 76.2585 61.3888 83.6019 61.3888 89.8419C61.3888 92.6195 62.52 95.2068 65.6873 95.2068C67.9874 95.2068 69.8727 93.3805 69.9481 91.0595C70.4006 91.5161 71.0039 91.7824 71.6449 91.7824C73.1909 91.7824 74.5106 90.4888 74.5106 88.8907C74.5106 87.7112 73.9073 86.6459 72.9646 85.961C74.2466 85.3141 75.0762 83.9444 75.0762 82.4985C75.0762 80.7483 73.6434 79.3024 71.9089 79.3024C70.476 79.3024 69.3071 80.52 69.3071 81.9278C69.3071 82.9551 70.2121 84.0966 71.4564 84.0966C72.0974 84.0966 72.663 83.64 72.663 82.9551C72.663 82.3463 72.2105 81.8898 71.6072 81.8898C71.0416 81.8898 70.5514 82.3463 70.5514 82.9171C70.2875 82.6507 70.099 82.3083 70.099 81.9278C70.099 80.9385 70.9285 80.1015 71.9089 80.1015C73.1909 80.1015 74.2844 81.2049 74.2844 82.4985C74.2844 84.1727 72.8892 85.5805 71.2302 85.5805C69.0809 85.5805 67.3087 83.7922 67.3087 81.6234C67.3087 79.3405 69.458 76.5629 71.8335 76.5629C73.4925 76.5629 75.1516 77.4761 76.8484 77.4761C78.432 77.4761 79.9403 76.2205 79.9403 74.5844C79.978 73.2146 78.9599 71.959 77.6025 71.959ZM71.9089 86.3034C73.0023 86.8741 73.7188 87.521 73.7188 88.8527C73.7188 89.9941 72.7761 90.9073 71.6826 90.9073C70.8154 90.9073 70.1367 90.1844 70.1367 89.3473C70.1367 88.7005 70.6646 88.1678 71.3056 88.1678C72.399 88.1678 71.9089 89.4234 72.5499 89.4234C72.7761 89.4234 72.9269 89.3093 72.9269 89.0429C72.9269 88.1298 72.1728 87.3688 71.2679 87.3688C70.476 87.3688 69.7219 87.9015 69.4203 88.6624C69.2317 88.358 69.0432 87.9395 68.6284 87.9395C68.3645 87.9395 68.176 88.2059 68.3268 88.3961L68.4022 88.5863C68.8924 89.3854 69.1563 89.842 69.1563 90.8312C69.1563 92.7717 67.5727 94.3317 65.6873 94.3317C62.9348 94.3317 62.1807 92.0488 62.1807 89.7659C62.1807 85.5424 64.1791 82.3844 66.9694 79.4166C66.6677 80.1015 66.5169 80.8244 66.5169 81.5854C66.5169 84.439 69.0809 86.798 71.9089 86.3034ZM111.877 89.1951C112.858 87.0644 113.725 83.7541 113.273 81.3571C114.328 82.7649 115.196 84.8576 115.196 86.6078C115.158 88.6624 113.612 89.3854 111.877 89.1951ZM116.704 94.4459C116.214 95.0166 115.497 95.359 114.743 95.359C113.499 95.359 112.669 94.3698 112.669 93.1522C112.669 92.6576 112.782 92.1629 112.933 91.6683C113.725 93.1522 114.856 94.7122 116.704 94.4459ZM128.808 90.5268C128.808 91.8205 127.827 93.038 126.47 93.038C125.414 93.038 124.396 92.201 124.396 91.0976C124.396 90.1844 125.075 89.3473 126.017 89.3473C126.432 89.3473 126.885 89.6517 126.998 89.7278C127.148 89.842 127.224 90.0702 127.073 90.2224C126.96 90.3746 126.734 90.3366 126.583 90.2605C126.47 90.1844 126.206 90.0322 126.017 90.0322C125.489 90.0322 125.112 90.5649 125.112 91.0595C125.112 91.7824 125.791 92.2771 126.47 92.2771C127.412 92.2771 128.091 91.3639 128.091 90.4507C128.091 89.1571 126.885 88.3961 125.829 88.1678C125.64 88.1298 125.452 88.0156 125.452 87.7493C125.489 87.4829 125.753 87.4449 125.942 87.4829C127.563 87.8634 128.808 88.8907 128.808 90.5268ZM112.405 71.2741C111.953 71.6927 111.463 72.2254 111.274 72.8341C109.804 71.7307 108.258 70.9317 106.674 70.2088C108.635 70.361 110.595 70.6654 112.405 71.2741ZM120.324 78.3512C118.853 78.3512 117.458 79.2644 116.138 79.2644C115.723 79.2644 115.271 78.998 115.045 78.7698C114.932 78.6556 114.743 78.4273 114.894 78.199C115.045 77.9707 115.346 78.0468 115.497 78.199C115.648 78.3512 115.912 78.5034 116.138 78.5034C117.307 78.5034 118.891 77.5902 120.324 77.5902C120.814 77.5902 122.284 77.7424 122.284 78.3893C122.284 78.6176 122.058 78.6937 121.907 78.6937C121.53 78.7698 121.266 78.3512 120.324 78.3512ZM126.621 82.5746C127.827 83.9824 128.694 85.8468 128.958 87.7112C127.337 86.5698 126.658 86.2654 124.698 86.1132C126.206 85.4283 126.621 84.1727 126.621 82.5746ZM119.155 73.9376C119.004 73.8615 118.778 73.8234 118.702 74.0517C118.627 74.28 118.702 74.4322 119.004 74.5463C119.306 74.6605 120.814 75.6498 121.04 75.802C119.268 75.6878 117.081 76.639 115.346 76.639C114.215 76.639 113.046 75.7639 113.046 74.5463C113.046 73.6712 113.687 72.758 114.63 72.758C115.271 72.758 115.95 73.2527 115.95 73.9376C115.95 74.9268 115.46 74.6985 115.46 75.079C115.46 75.3073 115.648 75.4595 115.874 75.4595C116.402 75.4595 116.742 74.6985 116.742 74.0517C116.742 72.7961 115.686 71.921 114.592 71.921C113.235 71.921 112.217 73.1766 112.217 74.5083C112.217 76.1444 113.725 77.4 115.309 77.4C117.005 77.4 118.665 76.4868 120.324 76.4868C122.699 76.4868 124.848 79.2644 124.848 81.5473C124.848 83.7161 123.076 85.5044 120.927 85.5044C119.268 85.5044 117.873 84.0966 117.873 82.4224C117.873 81.1288 118.966 80.0254 120.248 80.0254C121.229 80.0254 122.058 80.8624 122.058 81.8517C122.058 82.2322 121.907 82.6127 121.606 82.841C121.568 82.2702 121.115 81.8137 120.55 81.8137C119.947 81.8137 119.494 82.2702 119.494 82.879C119.494 83.5639 120.06 84.0205 120.701 84.0205C121.945 84.0205 122.85 82.879 122.85 81.8517C122.85 80.4059 121.681 79.2263 120.248 79.2263C118.514 79.2263 117.081 80.6722 117.081 82.4224C117.081 83.8683 117.91 85.2381 119.192 85.8849C118.212 86.5317 117.646 87.6351 117.646 88.8146C117.646 90.3746 118.929 91.7063 120.512 91.7063C121.153 91.7063 121.756 91.44 122.209 90.9834C122.284 93.3044 124.207 95.1307 126.47 95.1307C129.637 95.1307 130.768 92.5434 130.768 89.7659C130.806 83.5259 124.773 76.2205 119.155 73.9376ZM130.014 89.7659C130.014 92.0488 129.26 94.3317 126.507 94.3317C124.584 94.3317 123.038 92.7337 123.038 90.8312C123.038 89.842 123.302 89.3854 123.793 88.5863L123.868 88.3961C123.981 88.2059 123.793 87.9395 123.566 87.9395C123.152 87.9395 122.963 88.32 122.775 88.6624C122.473 87.9015 121.756 87.3688 120.927 87.3688C120.022 87.3688 119.268 88.1298 119.268 89.0429C119.268 89.3093 119.456 89.4234 119.645 89.4234C120.286 89.4234 119.796 88.1678 120.889 88.1678C121.53 88.1678 122.058 88.7005 122.058 89.3473C122.058 90.2224 121.342 90.9073 120.512 90.9073C119.381 90.9073 118.476 89.9561 118.476 88.8527C118.476 87.4829 119.23 86.8741 120.286 86.3034C123.076 86.798 125.678 84.439 125.678 81.6234C125.678 80.8624 125.489 80.1395 125.225 79.4546C128.016 82.3844 130.014 85.5424 130.014 89.7659ZM96.1162 78.4654C94.3818 77.8185 92.6473 77.0576 91.0259 76.1444C92.7604 75.7259 94.4572 75.2312 96.1162 74.6224C97.7753 75.2312 99.5098 75.7259 101.244 76.1444C99.5852 77.0576 97.8507 77.8185 96.1162 78.4654ZM90.762 80.7863C92.5719 80.4059 94.3818 79.9112 96.1162 79.2644C97.8507 79.8732 99.6606 80.4059 101.471 80.7863C99.736 81.6995 97.9639 82.4985 96.1162 83.1454C94.2686 82.4985 92.4965 81.6995 90.762 80.7863ZM129.75 79.8351C124.434 72.8341 113.537 68.7629 105.015 68.1541C103.997 67.0888 102.753 66.2137 101.433 65.6049C101.848 65.7951 102.262 65.8712 102.677 65.8712C104.412 65.8712 105.769 64.4254 105.769 62.7132C105.769 61.001 104.374 59.5551 102.677 59.5551C101.207 59.5551 99.8869 60.6966 99.6229 62.1424C99.4344 61.8761 98.9065 61.4576 98.5672 61.3054C99.5852 57.919 103.054 54.761 106.674 54.761C109.049 54.761 110.746 56.4732 110.746 58.8702C110.746 59.479 110.633 60.1639 110.445 60.7346C110.256 60.5063 109.954 60.3541 109.653 60.3541C109.087 60.3541 108.635 60.8107 108.635 61.3815C108.635 61.9522 109.087 62.4088 109.653 62.4088C110.822 62.4088 111.463 59.7834 111.463 58.8702C111.463 56.0546 109.464 54.038 106.674 54.038C102.79 54.038 99.0573 57.3483 97.8884 60.9629C97.3228 60.7346 96.6818 60.5824 96.0031 60.5824C95.3244 60.5824 94.7211 60.6966 94.1555 60.9249C93.0998 57.3102 89.3668 54 85.4831 54C82.6928 54 80.6944 56.0166 80.6944 58.8322C80.6944 59.8215 81.1846 62.3707 82.5043 62.3707C83.0699 62.3707 83.5224 61.9141 83.5224 61.3434C83.5224 60.7727 83.0699 60.3161 82.5043 60.3161C82.2027 60.3161 81.901 60.4683 81.7125 60.6966C81.524 60.1259 81.4108 59.441 81.4108 58.8322C81.4108 56.3971 83.1076 54.7229 85.4831 54.7229C89.1029 54.7229 92.5719 57.881 93.5899 61.2673C93.2129 61.4956 92.8735 61.8 92.5719 62.1044C92.3079 60.6585 90.9882 59.5171 89.5177 59.5171C87.7832 59.5171 86.4258 60.9629 86.4258 62.6751C86.4258 64.3873 87.8209 65.8332 89.5177 65.8332C89.9324 65.8332 90.3849 65.7571 90.762 65.5668C89.4422 66.1756 88.1979 67.0507 87.1799 68.1161C78.6583 68.7249 67.7612 72.7961 62.4446 79.7971C60.1068 82.879 58.5609 86.2273 58.5609 90.1844C58.5609 94.2556 60.9364 98.0605 65.3103 98.0605C68.2514 98.0605 71.1547 96.5385 72.4745 93.799C73.2286 96.0059 74.9631 97.3376 77.3386 97.3376C79.4878 97.3376 81.6748 96.3102 81.524 93.799C82.542 93.3044 83.5224 92.3912 83.5224 91.1737C83.5224 89.7278 80.7698 86.3795 80.7698 81.7376C80.7698 73.2907 88.3488 69.562 95.7015 69.4478H96.1162C103.62 69.4478 111.425 73.1385 111.425 81.7376C111.425 86.3795 108.672 89.7278 108.672 91.1737C108.672 92.4293 109.653 93.3424 110.671 93.8751C110.709 96.3102 112.669 97.3376 114.856 97.3376C117.232 97.3376 118.928 96.0059 119.72 93.799C121.04 96.5385 123.943 98.0605 126.885 98.0605C131.258 98.0605 133.634 94.2937 133.634 90.1844C133.634 86.2273 132.088 82.9171 129.75 79.8351ZM102.677 60.4302C103.921 60.4302 104.94 61.4956 104.94 62.7132C104.94 63.9688 103.921 64.9961 102.677 64.9961C101.433 64.9961 100.415 63.9307 100.415 62.7132C100.452 61.4576 101.471 60.4302 102.677 60.4302ZM96.0785 63.2078C98.3032 63.2078 99.8869 64.0449 99.8869 64.0449C100.189 64.6917 100.716 65.2244 101.32 65.5288C99.6983 64.7678 97.8884 64.3873 96.0785 64.3873C94.2686 64.3873 92.4587 64.7678 90.8374 65.5288C91.4784 65.2244 92.0063 64.6537 92.3079 64.0068C92.3456 64.0068 93.8916 63.2078 96.0785 63.2078ZM89.5177 64.9961C88.2734 64.9961 87.2553 63.9307 87.2553 62.7132C87.2553 61.4576 88.2734 60.4302 89.5177 60.4302C90.762 60.4302 91.78 61.4956 91.78 62.7132C91.78 63.9307 90.762 64.9961 89.5177 64.9961ZM79.978 81.7756C79.978 86.1893 82.7306 90.4507 82.7306 91.1737C82.7306 92.2771 81.6371 93.038 80.6944 93.3805L80.7321 93.799C80.7321 95.8156 79.1485 96.5385 77.3763 96.5385C75.2647 96.5385 73.7188 95.2829 73.1909 93.2663C73.6811 93.4185 74.2089 93.5327 74.6991 93.5327C76.8107 93.5327 77.9419 91.9727 78.8468 90.2985C77.15 89.6137 75.9057 88.7005 75.9057 86.6839C75.9057 83.2976 78.9599 79.2644 80.9207 76.7912C80.2042 78.3132 79.978 80.0634 79.978 81.7756ZM75.1139 86.6078C75.1139 88.4722 76.0566 89.88 77.7156 90.679C77.0369 91.7824 76.0565 92.7337 74.6991 92.7337C73.8319 92.7337 73.0023 92.3532 72.2482 91.9727C71.6449 95.2829 68.5907 97.2615 65.348 97.2615C61.4265 97.2615 59.3904 93.799 59.3904 90.1844C59.3904 80.0634 69.4957 73.1005 78.1304 70.6273C80.9207 69.8283 84.3519 68.9151 87.2553 68.9151C87.6701 68.9151 88.7258 69.5239 89.0275 69.7522C83.4093 71.6546 75.1139 80.52 75.1139 86.6078ZM96.1162 67.8878C93.9293 67.8878 91.7423 68.3444 89.8193 69.3717C89.2914 68.9151 88.7258 68.4205 88.0471 68.2302C90.6111 67.0888 93.3637 66.518 96.154 66.518C98.9442 66.518 101.697 67.0888 104.261 68.2302C103.582 68.4205 103.016 68.9151 102.489 69.3717C100.49 68.3444 98.3032 67.8878 96.1162 67.8878ZM114.819 96.5385C113.046 96.5385 111.463 95.8156 111.463 93.799L111.5 93.3805C110.595 93.038 109.464 92.2771 109.464 91.1737C109.464 90.4507 112.217 86.1893 112.217 81.7756C112.217 80.0634 111.991 78.3512 111.312 76.7532C113.273 79.2644 116.327 83.2595 116.327 86.6459C116.327 88.6624 115.082 89.5756 113.386 90.2605C114.291 91.9727 115.422 93.4946 117.533 93.4946C118.061 93.4946 118.551 93.3805 119.042 93.2283C118.476 95.2829 116.93 96.5385 114.819 96.5385ZM126.885 97.2615C123.642 97.2615 120.625 95.2829 119.984 91.9727C119.23 92.3532 118.401 92.7337 117.533 92.7337C116.176 92.7337 115.196 91.8205 114.517 90.679C116.176 89.88 117.119 88.4722 117.119 86.6078C117.119 80.52 108.786 71.6546 103.167 69.7902C103.469 69.562 104.525 68.9532 104.94 68.9532C107.881 68.9532 111.312 69.8663 114.064 70.6654C122.661 73.1766 132.804 80.1015 132.804 90.2605C132.842 93.8371 130.806 97.2615 126.885 97.2615ZM95.2113 83.5259C93.3637 84.1346 91.4784 84.5532 89.5931 84.8576C87.8963 83.9063 86.3126 82.8029 84.7667 81.5854C86.4258 81.4712 88.0848 81.281 89.7439 80.9766C91.4784 82.0039 93.326 82.841 95.2113 83.5259ZM89.857 80.2917C88.2357 79.3405 86.6897 78.3132 85.2192 77.1337C86.8405 76.9815 88.4242 76.7151 90.0078 76.4107C91.7046 77.362 93.4391 78.199 95.249 78.8839C93.4391 79.4546 91.6669 79.9493 89.857 80.2917ZM96.1162 83.9444C97.9261 84.5532 99.8115 85.0478 101.697 85.3902C99.8869 86.3415 98.0393 87.1785 96.1162 87.8254C94.1932 87.1785 92.3079 86.3795 90.5357 85.3902C92.421 85.0478 94.2686 84.5532 96.1162 83.9444ZM96.1162 88.6244C98.077 89.2712 100.075 89.7278 102.112 90.0322C100.189 91.0595 98.1901 91.8966 96.1162 92.5434C94.0424 91.8966 92.044 91.0595 90.121 90.0322C92.1194 89.7278 94.1555 89.2712 96.1162 88.6244ZM107.466 81.6234C105.958 82.841 104.336 83.9444 102.639 84.8956C100.754 84.5912 98.8688 84.1346 97.0212 83.5639C98.9065 82.841 100.716 82.0039 102.489 81.0146C104.148 81.281 105.807 81.5093 107.466 81.6234Z" fill="white"/>
<path d="M191.512 139.838V140.599H190.268V144.061H189.401V140.599H188.156V139.838H191.512Z" fill="white"/>
<path d="M194.756 139.838H196.001V144.023H195.209V141.17C195.209 141.094 195.209 140.979 195.209 140.827C195.209 140.675 195.209 140.561 195.209 140.485L194.417 144.023H193.588L192.796 140.485V140.827V141.17V144.023H192.004V139.838H193.248L194.002 143.148L194.756 139.838Z" fill="white"/>
</svg>
